<?xml version="1.0" standalone="no"?>
<!DOCTYPE svg PUBLIC "-//W3C//DTD SVG 20010904//EN"
 "http://www.w3.org/TR/2001/REC-SVG-20010904/DTD/svg10.dtd">
<svg version="1.0" xmlns="http://www.w3.org/2000/svg"
 width="700.000000pt" height="700.000000pt" viewBox="0 0 700.000000 700.000000"
 preserveAspectRatio="xMidYMid meet">
<metadata>
Created by potrace 1.11, written by Peter Selinger 2001-2013
</metadata>
<g transform="translate(0.000000,700.000000) scale(0.100000,-0.100000)"
fill="#000000" stroke="none">
<path d="M5059 5215 c-2 -2 -22 -6 -44 -9 -110 -13 -233 -77 -330 -171 -73
-71 -115 -131 -160 -228 -35 -77 -84 -224 -87 -262 -1 -13 -6 -21 -10 -19 -18
11 -50 12 -79 2 -23 -8 -38 -24 -56 -62 -13 -28 -21 -42 -18 -31 4 11 17 58
30 105 13 47 33 118 45 159 24 82 19 95 -32 86 -68 -12 -87 -35 -104 -122 -6
-34 -28 -89 -38 -95 -14 -10 -36 -10 -35 0 1 4 1 17 0 30 -1 21 -5 23 -38 18
-21 -4 -50 -11 -65 -17 -24 -10 -28 -17 -28 -53 0 -31 -7 -47 -25 -65 -20 -18
-23 -27 -14 -37 6 -8 18 -14 25 -14 8 0 14 -4 14 -10 0 -5 -11 -10 -24 -10
-14 0 -28 5 -31 10 -3 6 -19 10 -35 10 -26 0 -28 3 -32 46 -3 41 -1 47 19 55
29 11 30 39 3 39 -27 0 -29 9 -33 105 -2 44 -6 85 -10 91 -10 16 -68 7 -97
-15 -24 -17 -25 -24 -25 -110 0 -50 -1 -91 -4 -91 -2 0 -9 8 -16 17 -7 9 -27
17 -47 17 -33 1 -35 2 -27 28 4 14 6 28 4 30 -6 6 -35 118 -41 158 -6 39 -37
71 -62 66 -38 -7 -72 -30 -73 -50 -3 -48 18 -156 43 -219 11 -28 44 -43 76
-35 16 5 17 2 8 -27 -6 -20 -15 -31 -23 -28 -27 10 -64 -8 -76 -37 -23 -54
-39 -18 -62 143 -7 42 -30 57 -77 50 -23 -3 -28 1 -39 34 -7 21 -14 40 -14 43
0 3 -4 18 -8 33 -13 49 -85 58 -123 16 -16 -18 -16 -25 -6 -65 18 -66 16 -70
-32 -84 -60 -16 -79 -39 -74 -86 3 -37 2 -39 -34 -45 -36 -5 -37 -5 -48 35 -6
23 -13 52 -15 65 -3 14 -10 28 -17 33 -18 11 -56 10 -77 -2 -16 -8 -22 -1 -43
48 -114 266 -282 398 -513 404 -199 6 -360 -70 -417 -198 -19 -44 -25 -132
-13 -199 18 -98 29 -145 46 -188 21 -52 24 -71 10 -63 -5 3 -24 0 -42 -8 -45
-18 -333 -13 -539 10 -19 2 -113 6 -208 10 -158 6 -174 6 -192 -11 -11 -10
-20 -23 -20 -29 -1 -6 -18 -23 -39 -37 -21 -15 -44 -40 -52 -57 l-13 -29 -90
57 c-149 94 -173 104 -215 91 -20 -6 -45 -17 -55 -24 -22 -16 -38 -3 154 -123
77 -48 103 -59 138 -59 l44 -1 3 -79 c2 -44 6 -91 10 -105 18 -65 18 -81 -4
-101 -11 -11 -22 -32 -22 -47 -1 -15 -3 -45 -5 -67 -2 -22 -4 -55 -5 -74 0
-19 -7 -44 -14 -55 -16 -24 -18 -203 -5 -331 5 -44 11 -106 14 -137 14 -138
20 -180 41 -307 12 -74 20 -152 18 -175 -2 -23 -4 -64 -4 -93 0 -42 -3 -53
-18 -58 -10 -3 -26 -14 -36 -25 -16 -18 -16 -21 5 -54 11 -20 42 -54 67 -76
38 -33 42 -40 25 -40 -36 0 -65 -19 -136 -90 -60 -59 -68 -70 -57 -84 16 -19
57 -20 88 -3 35 20 153 131 153 144 0 16 0 16 46 -3 87 -37 249 -48 426 -29
l57 6 -23 -48 c-70 -146 -85 -191 -67 -203 8 -4 26 -6 40 -3 55 10 75 27 99
88 40 101 70 163 83 171 17 10 523 6 552 -5 24 -9 260 -7 307 3 14 3 47 8 74
11 27 3 51 7 55 9 3 2 67 7 141 11 74 3 158 8 185 10 28 2 102 7 165 10 63 3
147 8 185 11 39 2 302 7 586 11 455 5 518 4 540 -10 15 -9 61 -18 119 -22 119
-8 170 -14 182 -21 14 -9 68 -13 358 -30 158 -8 192 -12 225 -22 17 -5 59 -10
95 -11 36 -1 103 -6 150 -11 402 -44 580 -28 741 67 71 41 75 47 49 71 l-20
19 36 94 c20 52 50 139 67 194 16 55 35 107 42 115 18 21 23 44 30 130 3 41 8
82 10 90 4 14 7 30 19 108 3 15 12 68 20 117 8 50 18 112 21 140 4 31 13 54
23 60 9 5 57 32 107 59 113 61 204 123 212 143 4 9 -2 20 -13 26 -40 23 -69
18 -134 -24 -85 -54 -170 -102 -175 -98 -2 2 -6 32 -9 67 -3 35 -9 84 -13 110
-4 26 -6 58 -5 72 1 14 3 88 4 165 3 135 2 142 -25 200 -16 33 -41 72 -57 87
-26 23 -34 25 -62 17 -18 -5 -38 -9 -45 -9 -12 0 -45 52 -48 75 -1 6 -3 15 -3
21 -2 10 -85 40 -171 61 -19 5 -36 14 -38 19 -2 6 15 32 38 57 49 56 47 77 -9
77 -44 0 -92 -32 -137 -92 -25 -33 -31 -36 -69 -33 -22 2 -85 4 -138 4 -84 1
-98 3 -98 17 0 15 -10 16 -82 10 -93 -7 -157 -15 -175 -21 -18 -6 -17 2 11 86
54 168 63 218 61 315 -5 156 -70 247 -205 284 -42 12 -213 24 -221 15z m-1309
-712 c0 -24 -3 -33 -9 -25 -7 12 -4 62 5 62 2 0 4 -17 4 -37z"/>
<path d="M963 4816 l-27 -24 27 -55 c28 -59 44 -68 93 -55 48 12 59 31 46 76
-24 80 -84 105 -139 58z"/>
<path d="M3005 4763 c-11 -2 -31 -12 -44 -22 l-23 -18 26 -51 c14 -28 35 -53
46 -57 29 -9 75 3 95 25 16 18 15 21 -11 69 -15 28 -30 51 -33 52 -3 0 -13 2
-21 3 -8 1 -24 0 -35 -1z"/>
<path d="M5849 4747 c-35 -15 -83 -73 -76 -91 15 -39 101 -16 141 37 32 42 32
53 4 61 -31 8 -39 7 -69 -7z"/>
<path d="M1450 4601 c-19 -10 -33 -22 -30 -27 13 -23 120 10 120 37 0 16 -54
10 -90 -10z"/>
<path d="M6604 4589 c-17 -5 -55 -35 -85 -66 -30 -32 -72 -73 -93 -91 -31 -27
-36 -36 -25 -43 16 -10 63 -3 93 15 49 27 188 165 183 181 -5 14 -35 16 -73 4z"/>
<path d="M260 3178 c-228 -45 -269 -63 -256 -106 9 -28 47 -32 125 -15 36 8
77 16 91 19 64 13 98 25 112 41 35 43 -3 75 -72 61z"/>
<path d="M6708 3102 c-47 -4 -83 -43 -67 -73 11 -22 5 -21 164 -23 135 -2 172
6 188 41 20 44 -5 54 -134 56 -63 1 -131 1 -151 -1z"/>
<path d="M2659 2333 c-37 -15 -41 -21 -84 -146 l-24 -68 24 -9 c26 -10 87 3
102 23 15 18 75 198 69 204 -11 11 -52 9 -87 -4z"/>
<path d="M2830 2202 c-26 -13 -48 -60 -29 -63 5 -1 15 -2 22 -3 6 -1 31 4 55
12 41 13 67 45 55 65 -7 11 -71 5 -103 -11z"/>
<path d="M5596 2158 l-25 -23 26 -55 c33 -71 50 -90 82 -90 23 0 91 33 91 44
0 10 -54 113 -68 129 -22 24 -75 22 -106 -5z"/>
<path d="M5436 2045 c-21 -7 -43 -18 -47 -22 -6 -6 16 -50 52 -109 83 -133 87
-137 124 -130 40 8 85 29 85 39 0 5 -32 60 -71 123 -45 71 -78 114 -88 114 -9
-1 -33 -7 -55 -15z"/>
</g>
</svg>
