<?xml version="1.0" encoding="utf-8"?>
<!-- Generator: Adobe Illustrator 21.0.0, SVG Export Plug-In . SVG Version: 6.00 Build 0)  -->
<svg version="1.1" id="Layer_1" xmlns="http://www.w3.org/2000/svg" xmlns:xlink="http://www.w3.org/1999/xlink" x="0px" y="0px"
	 viewBox="613.69287 501.02435 53.61473 22.95127" enable-background="new 613.69287 501.02435 53.61473 22.95127"
	 xml:space="preserve">
<g>
	<path d="M653.60138,506.67874c-3.61102-0.961-7.76056-1.64984-12.23584-1.64896c-2.86169,0.00101-5.40253,0.2403-7.63287,0.61639
		l-6.71637-4.62183l-13.32147,0.00534l5.75244,6.12225h8.36279c-4.5343,1.58212-6.69122,3.47946-6.69122,3.47946l0.00201,3.73914
		c0,0,2.29028,1.89301,6.86127,3.48242l-8.53674-0.00482l-5.7525,6.12561l13.32056,0.00189l6.74823-4.64539
		c2.23822,0.39441,4.77411,0.64093,7.60388,0.64191c4.47717-0.00098,8.62482-0.69031,12.23669-1.65033
		c-1.164-1.75769-1.89581-3.70575-1.89868-5.81824C651.70642,510.38589,652.43433,508.4339,653.60138,506.67874z"/>
	<path d="M656.98993,507.70248c-1.27136,1.58896-1.94904,3.21701-1.94513,4.79153c-0.00684,1.58069,0.66992,3.20587,1.948,4.79822
		c6.33539-2.14056,10.31482-4.79248,10.31482-4.79248S663.32916,509.84732,656.98993,507.70248z"/>
</g>
</svg>
