<?xml version="1.0" encoding="utf-8"?>
<!-- Generator: Adobe Illustrator 21.0.0, SVG Export Plug-In . SVG Version: 6.00 Build 0)  -->
<svg version="1.1" id="Money" xmlns="http://www.w3.org/2000/svg" xmlns:xlink="http://www.w3.org/1999/xlink" x="0px" y="0px"
	 viewBox="48.94528 56.47091 46.10945 27.05817" enable-background="new 48.94528 56.47091 46.10945 27.05817" xml:space="preserve"
	>
<path d="M91.18848,56.47091H52.81054c-2.13463,0-3.86526,1.731-3.86526,3.86575v19.32618c0,2.13473,1.73063,3.86624,3.86526,3.86624
	h38.37794c2.13474,0,3.86625-1.73151,3.86625-3.86624V60.33667C95.05473,58.20192,93.32321,56.47091,91.18848,56.47091z
	 M51.93854,81.17111V59.16055h39.80008v22.01057H51.93854z"/>
<path d="M55.8037,77.30585h32.07065V63.0263H55.8037V77.30585z M72,64.90472c2.90664,0,5.26185,2.3561,5.26185,5.26134
	c0,2.90615-2.35521,5.26126-5.26185,5.26126s-5.26125-2.35511-5.26125-5.26126C66.73875,67.26083,69.09386,64.90472,72,64.90472z"/>
</svg>
