<?xml version="1.0" encoding="utf-8"?>
<!-- Generator: Adobe Illustrator 21.0.0, SVG Export Plug-In . SVG Version: 6.00 Build 0)  -->
<svg version="1.1" id="Layer_1" xmlns="http://www.w3.org/2000/svg" xmlns:xlink="http://www.w3.org/1999/xlink" x="0px" y="0px"
	 viewBox="238.50002 600.50293 32.666 32.4863" enable-background="new 238.50002 600.50293 32.666 32.4863" xml:space="preserve">
<path d="M241.52899,632.82678h12.37886v-13.77106h-12.37886V632.82678z M269.42975,609.44287h-7.26163
	c0.51627-0.26392,0.97455-0.54327,1.38254-0.83624c1.57202-1.12158,2.39954-2.54468,2.39569-3.95911
	c0.00198-1.15717-0.55005-2.18005-1.3457-2.87225c-0.79666-0.69708-1.85052-1.10803-2.98557-1.10992
	c-1.20749-0.00098-2.32797,0.41669-3.28708,1.05859c-1.44443,0.96875-2.58034,2.4267-3.38957,4.02673
	c-0.0387,0.07831-0.07732,0.15564-0.11404,0.23395c-0.29591-0.61676-0.64102-1.21332-1.03069-1.77405
	c-0.68449-0.97546-1.50816-1.84174-2.47203-2.4856c-0.9601-0.64008-2.08157-1.05872-3.28908-1.05872
	c-1.20076,0.00397-2.29997,0.50854-3.12375,1.28204c-0.81982,0.77539-1.396,1.86584-1.39798,3.10333
	c-0.00188,0.72321,0.20889,1.47931,0.64291,2.16565c0.54628,0.8634,1.40965,1.61169,2.60646,2.22559h-6.52191
	c-0.86922,0-1.57498,0.70483-1.57498,1.57391v5.83856h15.24252v-7.41345h1.85437v7.41345h15.24245v-5.83856
	C271.00467,610.14667,270.29987,609.44287,269.42975,609.44287 M247.29108,607.12738
	c-0.61588-0.38666-0.98999-0.77722-1.2076-1.12341c-0.2175-0.34998-0.29095-0.65552-0.29285-0.95319
	c-0.00395-0.4989,0.24553-1.03162,0.68449-1.44641c0.43213-0.41083,1.01802-0.66034,1.54688-0.66034h0.01257
	c0.67766,0,1.35254,0.22919,2.02544,0.67578c1.00732,0.66418,1.95485,1.83124,2.61806,3.15472
	c0.33838,0.66907,0.6033,1.37573,0.78111,2.06604C250.408,608.5235,248.43185,607.84961,247.29108,607.12738 M257.72284,605.51678
	c0.55099-0.78894,1.19778-1.45129,1.8678-1.89697c0.67291-0.44659,1.34869-0.67578,2.02643-0.67578h0.00574
	c0.56857,0,1.10605,0.21759,1.47928,0.54431c0.37314,0.33264,0.56558,0.73193,0.56747,1.15918
	c-0.00388,0.50671-0.26968,1.24622-1.45212,2.1106c-1.12634,0.81696-3.06961,1.65607-6.06564,2.24194
	C256.43887,607.81091,256.99002,606.5531,257.72284,605.51678 M255.76212,632.82678h12.38083v-13.77106h-12.38083V632.82678z"/>
</svg>
