<?xml version="1.0" encoding="utf-8"?>
<!-- Generator: Adobe Illustrator 21.0.0, SVG Export Plug-In . SVG Version: 6.00 Build 0)  -->
<svg version="1.1" id="Layer_1" xmlns="http://www.w3.org/2000/svg" xmlns:xlink="http://www.w3.org/1999/xlink" x="0px" y="0px"
	 viewBox="6.51395 5.8496 31.9721 37.3008" enable-background="new 6.51395 5.8496 31.9721 37.3008" xml:space="preserve">
<path d="M22.49976,42.96389c8.73882,0,15.82643-7.0876,15.82643-15.82644
	C29.58637,27.13746,22.49976,34.22408,22.49976,42.96389z M11.25444,22.302c0,2.42619,1.96941,4.39649,4.396,4.39649
	c0.92288,0,1.78527-0.29096,2.48807-0.77438l-0.03524,0.33353c0,2.42669,1.9698,4.39699,4.3965,4.39699
	c2.42668,0,4.39599-1.9703,4.39599-4.39699l-0.03574-0.33353c0.71152,0.49203,1.56618,0.77438,2.48857,0.77438
	c2.42658,0,4.39599-1.9703,4.39599-4.39649c0-1.74992-1.02772-3.25324-2.5146-3.95663
	c1.47718-0.70329,2.5146-2.20671,2.5146-3.95663c0-2.42619-1.96941-4.396-4.39599-4.396c-0.92239,0-1.78478,0.29007-2.48857,0.77339
	l0.03574-0.33404c0-2.42608-1.96931-4.39598-4.39599-4.39598c-2.42669,0-4.3965,1.9699-4.3965,4.39598l0.03524,0.33404
	c-0.71201-0.49203-1.56519-0.77339-2.48807-0.77339c-2.42659,0-4.396,1.9698-4.396,4.396c0,1.74992,1.02871,3.25334,2.5142,3.95663
	C12.28315,19.04876,11.25444,20.55208,11.25444,22.302z M22.49976,13.94937c2.42668,0,4.39599,1.9693,4.39599,4.396
	c0,2.42619-1.96931,4.396-4.39599,4.396c-2.42669,0-4.3965-1.9698-4.3965-4.396
	C18.10326,15.91867,20.07306,13.94937,22.49976,13.94937z M6.67381,27.13746c0,8.73883,7.08662,15.82644,15.82595,15.82644
	C22.49976,34.22408,15.41313,27.13746,6.67381,27.13746z"/>
</svg>
