<?xml version="1.0" encoding="utf-8"?>
<!-- Generator: Adobe Illustrator 21.0.0, SVG Export Plug-In . SVG Version: 6.00 Build 0)  -->
<svg version="1.1" id="Layer_1" xmlns="http://www.w3.org/2000/svg" xmlns:xlink="http://www.w3.org/1999/xlink" x="0px" y="0px"
	 viewBox="0 0 34.37273 34.37299" enable-background="new 0 0 34.37273 34.37299" xml:space="preserve">
<g>
	<path d="M0.28627,14.06893c-0.3818,2.0728-0.3842,4.2109,0.0079,6.3008l4.1206-3.21L0.28627,14.06893z"/>
	<path d="M24.40347,1.58553c-4.7832-2.208-10.4443-2.144-15.2539,0.4067l7.5132,5.625L24.40347,1.58553z"/>
	<path d="M33.90157,13.17493l-4.8106,3.748l4.9356,3.6948C34.52267,18.17343,34.48946,15.63043,33.90157,13.17493z"/>
	<path d="M9.20917,32.41363c4.84421,2.5342,10.7236,2.6504,15.7305,0.1133l-8.0962-6.0615L9.20917,32.41363z"/>
	<path d="M7.91427,14.43323l-6.23289-4.6665c-0.31991,0.6694-0.59531,1.3559-0.82471,2.0561l5.3076,3.9736L7.91427,14.43323z"/>
	<path d="M18.59297,25.10213l8.3359,6.2422c0.2774-0.1914,0.5508-0.3906,0.8203-0.6006c0.3184-0.248,0.625-0.5049,0.92-0.7705
		l-8.3262-6.2344L18.59297,25.10213z"/>
	<path d="M11.41327,11.70713l-7.4111-5.5493c-0.4624,0.5517-0.8853,1.1274-1.2691,1.7231l6.9307,5.189L11.41327,11.70713z"/>
	<path d="M22.09297,22.37553l8.0918,6.0586c0.4707-0.5439,0.9043-1.1123,1.2969-1.7011l-7.6387-5.7207L22.09297,22.37553z"/>
	<path d="M14.91277,8.98053l-7.7163-5.7773c-0.1929,0.1377-0.3843,0.2793-0.5732,0.4262c-0.396,0.3086-0.774,0.6319-1.1358,0.9673
		l7.6758,5.7471L14.91277,8.98053z"/>
	<path d="M25.59196,19.64903l6.9717,5.2207c0.3301-0.6621,0.6152-1.3408,0.8555-2.0332l-6.0772-4.5503L25.59196,19.64903z"/>
	<path d="M26.44837,2.70563L0.88007,22.62653c0.2329,0.6983,0.5127,1.3858,0.83931,2.0586l26.52009-20.6626
		C27.66717,3.54113,27.06857,3.10213,26.44837,2.70563z"/>
	<path d="M30.74337,6.62363c-0.30081-0.3858-0.61431-0.7539-0.93951-1.1065l-27.0176,21.0498
		c0.2622,0.4024,0.5425,0.7969,0.8428,1.1827c0.1421,0.1826,0.2876,0.3593,0.4356,0.5341l27.0908-21.1074
		C31.02167,6.99033,30.88587,6.80573,30.74337,6.62363z"/>
	<path d="M32.29807,8.99863l-26.7461,20.8398c0.5439,0.501,1.1142,0.9619,1.7075,1.3819l25.9624-20.2281
		C32.95916,10.31453,32.65157,9.64853,32.29807,8.99863z"/>
</g>
</svg>
