<?xml version="1.0" encoding="utf-8"?>
<!-- Generator: Adobe Illustrator 21.0.0, SVG Export Plug-In . SVG Version: 6.00 Build 0)  -->
<svg version="1.1" id="Layer_2" xmlns="http://www.w3.org/2000/svg" xmlns:xlink="http://www.w3.org/1999/xlink" x="0px" y="0px"
	 viewBox="0 0 1150 23" enable-background="new 0 0 1150 23" xml:space="preserve">
<g>
	<path fill="#E6E7E8" d="M1150,22.99996c-9.01697,0-13.72803-4.589-17.51404-8.276c-3.41199-3.323-5.87695-5.724-11.23401-5.724
		c-5.35803,0-7.823,2.401-11.23499,5.724c-3.78601,3.688-8.49695,8.276-17.51404,8.276s-13.72803-4.589-17.51404-8.276
		c-3.41199-3.323-5.87695-5.724-11.23401-5.724s-7.82202,2.401-11.23401,5.724c-3.78601,3.688-8.49695,8.276-17.51404,8.276
		s-13.729-4.589-17.51501-8.276c-3.4118-3.323-5.87683-5.724-11.2348-5.724c-5.35699,0-7.82202,2.401-11.23401,5.724
		c-3.78699,3.687-8.49799,8.276-17.51404,8.276s-13.72803-4.589-17.51398-8.276c-3.41199-3.323-5.87701-5.724-11.23401-5.724
		s-7.82202,2.401-11.23401,5.724c-3.78699,3.687-8.49896,8.276-17.51495,8.276s-13.729-4.589-17.51501-8.276
		c-3.41199-3.323-5.87701-5.724-11.23401-5.724s-7.82202,2.401-11.23401,5.724c-3.78699,3.687-8.49896,8.276-17.51501,8.276
		s-13.729-4.589-17.51501-8.276c-3.41199-3.323-5.87695-5.724-11.23499-5.724c-5.35498,0-7.82001,2.4-11.23102,5.723
		c-3.78595,3.688-8.49695,8.277-17.51196,8.277c-9.01703,0-13.729-4.589-17.51501-8.276
		c-3.41199-3.323-5.87695-5.724-11.23499-5.724c-5.35602,0-7.82098,2.401-11.23199,5.723c-3.78601,3.688-8.49701,8.277-17.513,8.277
		c-9.01703,0-13.729-4.589-17.51398-8.277c-3.41003-3.322-5.875-5.723-11.23303-5.723s-7.82098,2.401-11.23297,5.723
		c-3.78503,3.688-8.49701,8.277-17.51404,8.277c-9.01599,0-13.72699-4.589-17.51202-8.276
		c-3.41095-3.323-5.87494-5.724-11.23297-5.724s-7.82202,2.401-11.23401,5.724c-3.78595,3.687-8.49695,8.276-17.51398,8.276
		s-13.729-4.589-17.51501-8.276c-3.41199-3.323-5.87701-5.724-11.23596-5.724c-5.35699,0-7.82202,2.401-11.23401,5.724
		c-3.78601,3.687-8.49701,8.276-17.51404,8.276c-9.01599,0-13.72803-4.589-17.51398-8.276
		c-3.41101-3.323-5.87598-5.724-11.23401-5.724s-7.823,2.401-11.23401,5.724c-3.78601,3.687-8.49701,8.276-17.51398,8.276
		c-9.017,0-13.729-4.589-17.51401-8.276c-3.41101-3.323-5.87698-5.724-11.23401-5.724c-5.358,0-7.823,2.401-11.23499,5.724
		c-3.78702,3.687-8.49899,8.276-17.51501,8.276c-9.017,0-13.729-4.589-17.51599-8.276c-3.41199-3.323-5.87698-5.724-11.237-5.724
		c-5.358,0-7.823,2.401-11.23499,5.724c-3.78601,3.687-8.49802,8.276-17.51501,8.276s-13.729-4.589-17.51498-8.276
		c-3.41202-3.323-5.87701-5.724-11.23602-5.724c-5.358,0-7.823,2.401-11.23499,5.724c-3.78601,3.687-8.49802,8.276-17.51501,8.276
		s-13.729-4.589-17.51501-8.276c-3.41296-3.323-5.87799-5.724-11.23599-5.724s-7.82401,2.401-11.23599,5.724
		c-3.78598,3.687-8.49899,8.276-17.51599,8.276c-9.01801,0-13.729-4.589-17.51599-8.276c-3.41202-3.323-5.87802-5.724-11.237-5.724
		c-5.35699,0-7.82201,2.401-11.23399,5.724c-3.78502,3.687-8.49702,8.276-17.51302,8.276c-9.017,0-13.729-4.589-17.515-8.276
		c-3.412-3.323-5.877-5.724-11.235-5.724s-7.82401,2.401-11.23599,5.724c-3.78601,3.687-8.49802,8.276-17.51501,8.276
		c-9.01801,0-13.73-4.589-17.517-8.276c-3.412-3.323-5.877-5.724-11.237-5.724s-7.825,2.401-11.23801,5.724
		c-3.787,3.687-8.5,8.276-17.517,8.276c-9.018,0-13.73-4.589-17.517-8.276c-3.41299-3.323-5.87899-5.724-11.23899-5.724
		s-7.826,2.401-11.239,5.724c-3.785,3.687-8.498,8.276-17.516,8.276s-13.731-4.588-17.518-8.276
		c-3.414-3.323-5.88-5.724-11.241-5.724s-7.827,2.401-11.24,5.724c-3.787,3.687-8.5,8.276-17.519,8.276v-9
		c5.361,0,7.827-2.401,11.241-5.724c3.787-3.688,8.5-8.276,17.518-8.276s13.731,4.588,17.519,8.276
		c3.413,3.323,5.879,5.724,11.24,5.724c5.36,0,7.825-2.401,11.238-5.724c3.78699-3.687,8.49899-8.276,17.517-8.276
		s13.73,4.589,17.517,8.276c3.413,3.323,5.879,5.724,11.239,5.724s7.826-2.401,11.238-5.724c3.787-3.687,8.5-8.276,17.517-8.276
		s13.73,4.589,17.517,8.276c3.412,3.323,5.87801,5.724,11.237,5.724c5.358,0,7.82401-2.401,11.23599-5.724
		c3.78601-3.687,8.49802-8.276,17.51501-8.276s13.729,4.589,17.515,8.276c3.412,3.323,5.877,5.724,11.235,5.724
		c5.35699,0,7.82201-2.401,11.23399-5.724c3.78601-3.687,8.49701-8.276,17.51302-8.276c9.017,0,13.729,4.589,17.51599,8.276
		c3.41199,3.323,5.87799,5.724,11.237,5.724s7.82401-2.401,11.23599-5.724c3.78702-3.687,8.49899-8.276,17.51599-8.276
		s13.729,4.589,17.51498,8.276c3.41199,3.323,5.87701,5.724,11.23599,5.724c5.35901,0,7.82401-2.401,11.23599-5.724
		c3.78503-3.687,8.49704-8.276,17.51404-8.276s13.729,4.589,17.51599,8.276c3.41202,3.323,5.87701,5.724,11.23502,5.724
		s7.823-2.401,11.23499-5.724c3.78702-3.687,8.49902-8.276,17.51501-8.276c9.01801,0,13.729,4.589,17.51599,8.276
		c3.41199,3.323,5.87701,5.724,11.23599,5.724c5.358,0,7.823-2.401,11.23499-5.724c3.78702-3.687,8.49902-8.276,17.51602-8.276
		c9.01599,0,13.728,4.589,17.51401,8.276c3.41199,3.323,5.87701,5.724,11.23499,5.724c5.35699,0,7.82202-2.401,11.23401-5.724
		c3.78503-3.687,8.49603-8.276,17.513-8.276c9.01599,0,13.72803,4.589,17.51398,8.276c3.41101,3.323,5.87604,5.724,11.23401,5.724
		c5.35699,0,7.82202-2.401,11.23401-5.724c3.78699-3.687,8.49701-8.276,17.51404-8.276c9.01801,0,13.729,4.589,17.51599,8.276
		c3.41199,3.323,5.87701,5.724,11.23499,5.724c5.35699,0,7.82202-2.401,11.23401-5.724c3.78699-3.687,8.49799-8.276,17.51398-8.276
		s13.72803,4.589,17.513,8.277c3.41101,3.323,5.87604,5.723,11.23199,5.723c5.35699,0,7.82202-2.401,11.23401-5.724
		c3.78601-3.687,8.49799-8.276,17.513-8.276s13.72803,4.589,17.513,8.276c3.41199,3.323,5.87701,5.724,11.23401,5.724
		c5.35602,0,7.82098-2.401,11.23199-5.723c3.78601-3.688,8.49701-8.277,17.513-8.277c9.01703,0,13.729,4.589,17.51501,8.276
		c3.41199,3.323,5.87701,5.724,11.23499,5.724c5.35602,0,7.82098-2.401,11.23199-5.724c3.78503-3.687,8.49603-8.276,17.51099-8.276
		c9.01703,0,13.729,4.589,17.51501,8.276c3.41101,3.323,5.87604,5.724,11.23499,5.724s7.823-2.401,11.23499-5.724
		c3.78601-3.687,8.49805-8.276,17.51404-8.276c9.01703,0,13.72803,4.589,17.51398,8.276c3.41199,3.323,5.87701,5.724,11.23499,5.724
		s7.823-2.401,11.23499-5.724c3.78607-3.687,8.49707-8.276,17.51404-8.276s13.72803,4.589,17.51398,8.276
		c3.41199,3.323,5.87701,5.724,11.23401,5.724s7.82202-2.401,11.23401-5.724c3.78601-3.687,8.49701-8.276,17.51404-8.276
		s13.729,4.589,17.51501,8.276c3.41205,3.323,5.87701,5.724,11.23505,5.724c5.35706,0,7.82202-2.401,11.23401-5.724
		c3.78601-3.688,8.49695-8.276,17.51404-8.276s13.72803,4.589,17.51404,8.276c3.41199,3.323,5.87695,5.724,11.23401,5.724
		s7.82202-2.401,11.23401-5.724c3.78601-3.688,8.49805-8.276,17.51501-8.276s13.72803,4.589,17.51404,8.276
		c3.41174,3.323,5.87671,5.724,11.23376,5.724V22.99996z"/>
</g>
</svg>
