<?xml version="1.0" encoding="utf-8"?>
<!-- Generator: Adobe Illustrator 21.0.0, SVG Export Plug-In . SVG Version: 6.00 Build 0)  -->
<svg version="1.1" id="Layer_1" xmlns="http://www.w3.org/2000/svg" xmlns:xlink="http://www.w3.org/1999/xlink" x="0px" y="0px"
	 viewBox="0 0 1150 34" enable-background="new 0 0 1150 34" xml:space="preserve">
<path fill="#FFFFFF" d="M1121.25195-0.00004c-14.375,0-14.375,14-28.74902,14s-14.37402-14-28.74805-14s-14.37402,14-28.74805,14
	c-14.375,0-14.375-14-28.75-14c-14.37402,0-14.37402,14-28.74799,14s-14.37384-14-28.74786-14s-14.37402,14-28.74902,14
	s-14.37494-14-28.74896-14s-14.37402,14-28.74902,14s-14.375-14-28.75-14c-14.37097,0-14.37097,14-28.74298,14
	c-14.375,0-14.375-14-28.75-14c-14.37201,0-14.37201,14-28.74402,14c-14.37402,0-14.37402-14-28.74701-14s-14.37299,14-28.74701,14
	c-14.37299,0-14.37299-14-28.74597-14c-14.37402,0-14.37402,14-28.74799,14c-14.375,0-14.375-14-28.75098-14
	c-14.37402,0-14.37402,14-28.74799,14s-14.37402-14-28.74805-14s-14.37402,14-28.74799,14c-14.37399,0-14.37399-14-28.74802-14
	c-14.375,0-14.375,14-28.75,14c-14.37598,0-14.37598-14-28.75299-14c-14.375,0-14.375,14-28.75,14s-14.375-14-28.75101-14
	c-14.375,0-14.375,14-28.75,14s-14.37601-14-28.75101-14s-14.375,14-28.75101,14s-14.37601-14-28.75299-14
	c-14.37399,0-14.37399,14-28.74699,14c-14.375,0-14.375-14-28.75-14s-14.375,14-28.75099,14c-14.377,0-14.377-14-28.754-14
	s-14.377,14-28.755,14s-14.378-14-28.756-14s-14.378,14-28.756,14c-14.379,0-14.379-14-28.759-14s-14.379,14-28.759,14v20h1150v-20
	C1135.62598,13.99996,1135.62598-0.00004,1121.25195-0.00004z"/>
</svg>
