<?xml version="1.0" encoding="utf-8"?>
<!-- Generator: Adobe Illustrator 21.0.0, SVG Export Plug-In . SVG Version: 6.00 Build 0)  -->
<svg version="1.1" id="Layer_1" xmlns="http://www.w3.org/2000/svg" xmlns:xlink="http://www.w3.org/1999/xlink" x="0px" y="0px"
	 viewBox="56.49954 49.85476 15 28" enable-background="new 56.49954 49.85476 15 28" xml:space="preserve">
<g id="facebook">
	<g>
		<path d="M68.18069,55.18851c1.02631,0.0293,1.9931-0.00051,2.6806-0.2998c0.39071-0.8179,0.55571-1.8545,0.6192-2.9893
			c-0.19049-0.0146-0.06249-0.3369-0.2071-0.3989c-0.0293-0.2022-0.2783-0.1948-0.3086-0.398
			c-0.2773-0.165-0.457-0.4223-0.7226-0.5981c-0.7266-0.1616-1.44041-0.335-2.1641-0.4985
			c-0.8486,0.0444-1.8945-0.1026-2.58009,0.0996c-2.61911-0.0401-3.997,1.1201-5.25921,2.3916
			c-0.023,0.0781-0.0034,0.1972-0.105,0.1992c-0.5742,1.5874-0.1245,3.6211-0.2041,5.581c0.0986,0.4361,0.1074,0.9585,0.2041,1.3946
			c-0.9981,0.2959-2.2119,0.3867-3.4024,0.499c-0.3168,0.3237-0.1777,1.0889-0.206,1.6934c0.085,0.583,0.2783,1.0595,0.4131,1.59469
			c0.2109,0.19331,0.5962,0.39651,0.8252,0.498c0.0649,0.02931,0.07131,0.08211,0.1025,0.09961
			c0.5059,0.2676,1.4512,0.0079,2.2676,0.0996c-0.1362,1.9776,0.2558,3.9151,0,5.6797c0.0068,0.3272,0.2949,0.3819,0.2075,0.7979
			c-0.001,0.9629-0.0669,1.99019,0.2075,2.6904c-0.2871,0.4551-0.4966,0.9824-0.415,1.794
			c0.1221,0.0156,0.1138,0.1572,0.105,0.29879c-0.0747,0.46971,0.643,0.17481,0.5151,0.69821
			c0.16211,0.4561-0.4277,0.18359-0.4126,0.4981v0.8965c0.5298,0.2851,1.4624,0.18159,2.2681,0.19919
			c0.9082-0.419,2.1875-0.47849,2.7851-1.19629c0.459,0.23529,0.916-0.01371,1.2383-0.1992
			c-0.0176-0.31551,0.27351-0.333,0.2051-0.6983c-0.00389-0.3281-0.17289-0.4961-0.1025-0.8965v-2.8886
			c-0.2061-2.293-0.0479-4.9385-0.30859-7.1758c0.8877-0.1055,1.917-0.0752,2.57809-0.3984
			c0.3574-0.4512,0.3769-1.2305,0.5156-1.8946c0.1768-0.2256,0.2207-0.583,0.2061-0.9961
			c0.19041-0.2129,0.0683-0.7295,0.1035-1.0957c-0.1406-0.5952-0.168-1.2998-0.8252-1.395
			c-0.8838-0.2353-2.043,0.5952-2.9912,0.2988c0.0488-1.1342-0.293-2.3422,0-3.3881
			C66.76069,55.60941,67.46089,55.39011,68.18069,55.18851z M64.36329,59.97121c0.1172,0.2539,0.25391,0.4863,0.414,0.6977
			c0.0791,0.0225,0.2032,0.003,0.2051,0.1006c1.1924,0.0557,2.1992-0.0693,3.0957-0.2993c0,0.9976-0.2705,1.7329-0.5176,2.4917
			c-0.6621,0.0449-1.4667,0.2998-1.958,0.1983c-0.2763,0.165-0.372,0.50579-0.6201,0.6982c-0.0488,0.4414,0.14161,0.4951,0,0.7969
			c-0.2011,0.13669-0.0547,0.6113-0.2051,0.7959v1.4961c0.085,0.2812-0.1455,0.2578-0.1035,0.49699v3.4883
			c-0.0849,0.2813,0.1465,0.2578,0.1035,0.4981v2.9892c0.0635,0.2705-0.1318,0.791,0.1026,0.8965
			c-0.0703,0.3643-0.4121-0.0205-0.8242,0.09959c-0.5284,0.12211-0.9258,0.36921-1.5479,0.40041
			c0.11721-0.3525,0.3203-0.6221,0.3106-1.09669c0.0488-0.38081-0.3653-0.3115-0.5157-0.498
			c0.1934-0.6436,0.5625-1.1172,0.7217-1.793c0.1973-0.5146,0.7139-1.2978,0.30961-1.7939
			c-0.52251-0.1055-0.52151,0.2929-0.82621,0.3984c-0.0224,0.0772-0.0019,0.1963-0.1025,0.1992
			c-0.0235,0.0772-0.003,0.1963-0.1026,0.1992c0.0098,0.1202-0.1513,0.0616,0,0c0.0225-0.0781,0.002-0.1972,0.1026-0.1992
			c0.0234-0.0771,0.0019-0.1972,0.1025-0.1992v-0.29881c0.36821-0.5752,0.6699-1.2139,0.82621-1.99319
			c0.19139-0.2803,0.28319-0.65621,0.41209-0.9971c0.1562-0.2617,0.3398-0.86911,0.1045-1.1953
			c-0.51659,0.03319-0.7959,0.2949-0.9297,0.6973c-0.3203-0.1895,0.16111-0.4336,0.1045-0.6973
			c0.1377-0.23141,0.1689-0.56641,0.30861-0.79681c0.20209-0.41309,0.56439-1.30379,0-1.59579
			c-0.43751-0.0234-0.61231,0.2071-0.72271,0.4981c-0.2138,0.1914-0.4297,0.3828-0.5156,0.6982
			c-0.373-0.0703-0.1426-0.72651-0.2061-1.0966c-0.0673-0.5196,0.1221-0.8995,0-1.1954c-0.5595-0.7988-2.0258-0.1054-3.1972-0.2988
			c-0.10839-0.3066-0.2217-0.9844-0.1035-1.1953c1.0449-0.0879,2.4785,0.2012,3.1972-0.1992
			c0.0244-0.0781,0.003-0.1973,0.1035-0.19921c0.0938-0.72319-0.2714-1-0.51459-1.39549c0.23239-0.8057,0.04-2.0201,0.10349-2.9893
			c0.2334-0.1406,0.3281-0.4141,0.5147-0.5977c0.1123-0.955,0.67281-1.47551,0.7216-2.4921
			c-0.2734,0.0014-0.6074-0.0547-0.6191,0.1992c-0.3018-0.1143-0.3818,0.4785-0.5146,0.1992
			c-0.1123-0.5405,0.246-0.626,0.3085-0.9971c0.5987-0.4179,1.212-0.8203,1.8565-1.1953c1.7412-0.2441,4.6484-0.4487,6.08591,0.1983
			c0.05079,0.6162-0.28711,0.854-0.207,1.496h-1.54591c-1.0918,0.24029-1.9873,0.6719-2.9912,0.9971
			c-0.2402,0.0664-0.2764,0.3311-0.5156,0.3985c-0.03619,0.3964-0.22459,0.6464-0.31059,0.9961
			C64.18159,57.42381,64.39359,58.58151,64.36329,59.97121z"/>
	</g>
</g>
</svg>
