<?xml version="1.0" encoding="utf-8"?>
<!-- Generator: Adobe Illustrator 21.0.0, SVG Export Plug-In . SVG Version: 6.00 Build 0)  -->
<svg version="1.1" id="Layer_1" xmlns="http://www.w3.org/2000/svg" xmlns:xlink="http://www.w3.org/1999/xlink" x="0px" y="0px"
	 viewBox="51.99999 53.85551 24 20" enable-background="new 51.99999 53.85551 24 20" xml:space="preserve">
<g id="twitter">
	<g>
		<path d="M75.58471,57.91772c-0.22425-0.3624-0.89977-0.27452-1.39271-0.36725h-1.10076
			c0.14013-0.34895,0.33924-0.6398,0.51421-0.95342c0.05502-0.43346,0.25127-0.72628,0.22029-1.24672
			c0.12756-0.16478,0.17398-0.41218,0.29283-0.58656c0.10243-0.1426,0.23969-0.47215,0.07343-0.6596
			c-0.05026-0.2185-0.29184-0.24601-0.58656-0.21989c-0.08698,0.03572-0.16724,0.07779-0.2194,0.14637
			c-0.44365,0.42861-0.77023,1.00319-1.24773,1.3931c-0.00871,0.00821-0.06086-0.00041-0.07343,0
			c-0.086,0.00485-0.03285,0.04592-0.07442,0.07353c-0.14498,0.09659-0.25414,0.15071-0.36527,0.22029
			c-0.28126,0.17447-0.54123,0.44019-0.88136,0.51323c-0.52382-0.20921-1.14432-0.32232-1.83241-0.36626
			c-1.1452,0.10094-2.27882,0.21307-3.0066,0.73302c-0.90165,0.34597-1.46129,1.0312-2.12711,1.61349
			c-0.04829,0.31698-0.33826,0.39377-0.36626,0.73302c-0.00485,0.04492-0.01158,0.08699-0.07253,0.07343
			c0.04256,0.2382-0.05018,0.34113-0.07344,0.51322c-0.00099,0.13142,0.19714,0.42663,0,0.51411
			c-0.81377-0.11836-1.4699-0.62338-2.12711-0.95392c-0.71036-0.35655-1.45308-0.59723-2.05269-1.09927
			c-0.70838-0.31896-1.24673-0.80793-1.75986-1.32017c-0.20584-0.30827-0.53638-0.49046-0.66058-0.88087
			c-0.37497-0.16241-0.17348-0.90274-0.73302-0.87949c-0.31223-0.04255-0.34122,0.19714-0.43979,0.36626
			c-0.06956,0.22425-0.35755,0.22999-0.36725,0.51322c-0.00386,0.04541-0.01059,0.08738-0.07342,0.07432
			c-0.16815,1.07761-0.52184,1.97105-0.51313,3.22599c0.12756,0.41081,0.34598,0.73066,0.58656,1.02685
			c-0.41357,0.05027-0.70838,0.2199-0.88037,0.51372c-0.05898,1.06207,0.37398,1.63032,0.73401,2.27299
			c0.13291,0.37982,0.34785,0.6775,0.58665,0.95292c0.01682,0.22712,0.20386,0.28511,0.29273,0.44068
			c0.01841,0.10441,0.12133,0.1237,0.14745,0.22039c-0.03968,0.10441,0.28551,0.17783,0.07244,0.21841
			c-0.40881,0.12953-1.00555,0.06957-1.24624,0.36725c-0.10817,0.27641-0.10817,0.82436,0,1.09978
			c0.03335,0.23484,0.27937,0.25899,0.29333,0.51322c0.49393,0.41267,1.07038,0.73926,1.61399,1.10077
			c0.56824,0.16428,1.19884,0.26769,1.83279,0.36626c-0.10094,0.33924-0.3344,0.54508-0.58655,0.73351
			c-0.77172,0.37695-1.82953,0.46869-2.71377,0.73252c-0.54943,0.0377-0.94569,0.22811-1.53957,0.22039
			c-0.32904,0.12559-0.84464,0.07442-1.10027,0.22029c-0.12034,0.0677-0.10055,0.0948-0.2199,0.21851
			c-0.13281,0.40784,0.10975,0.73254,0.4393,0.88039c-0.00485,0.25027,0.21643,0.27352,0.36725,0.36725
			c0.08788,0.18071,0.25127,0.28699,0.44019,0.36626c0.53875,0.46295,1.25446,0.75093,1.90682,1.10077
			c0.8209,0.1807,1.63131,0.3721,2.49337,0.51322c0.88671,0.11499,1.88119,0.12271,2.7867,0.2194h0.95292
			c0.50541,0.13043,1.21774,0.05315,1.83329,0.07343c0.09381-0.10056,0.31895-0.07254,0.51322-0.07343
			c0.51698-0.26582,1.18389-0.38081,1.61389-0.73262c0.56834-0.2387,0.97904-0.63495,1.54057-0.88038
			c0.85721-0.75677,1.91641-1.31057,2.49238-2.3475c0.20297-0.18754,0.34696-0.43395,0.44078-0.73253
			c0.26186-0.15468,0.38071-0.44939,0.58656-0.66008c0.40011-0.40596,0.69878-0.91432,1.02634-1.39361
			c0.31609-0.49094,0.57022-1.04276,0.88047-1.53956c-0.0097-0.40111,0.30244-0.47938,0.29284-0.88038
			c0.19129-0.22326,0.17487-0.65533,0.36725-0.87949c-0.03285-0.25225,0.029-0.41079,0.07343-0.58763
			c0.04641-1.26793-0.04642-2.39669-0.29382-3.37188c0.5818-0.15318,1.16846-0.29866,1.61399-0.58714
			C75.29961,58.98128,75.7673,58.5884,75.58471,57.91772z M72.21185,61.95067c-0.15181,0.85038-0.60892,1.39548-1.02734,1.98015
			c0.05799,0.37497-0.10243,0.53252-0.07254,0.87948c-0.15656,0.30927-0.28413,0.64564-0.36726,1.02635
			c-0.20099,0.26382-0.32855,0.60021-0.51312,0.88047c-0.3624,0.54212-0.76934,1.03991-1.17331,1.54046
			c-0.37398,0.5538-0.90264,0.9549-1.32017,1.46614c-0.41554,0.48798-0.93252,0.87553-1.39261,1.32007
			c-0.46869,0.16824-0.88037,0.39239-1.24664,0.66009c-0.23009,0.08895-0.4581,0.17783-0.66008,0.29282
			c-0.17497,0.144-0.49393,0.14311-0.66108,0.29383c-1.07464,0.14597-2.27596,0.16814-3.51834,0.14687
			c-1.02001-0.10431-2.09277-0.15746-3.00749-0.36726c-0.91283-0.18743-1.49563-0.70451-2.27308-1.02634
			c0.15121-0.2396,0.62772-0.1527,0.95341-0.2193c0.03038-0.16438,0.38942-0.00298,0.4392-0.14796
			c0.25463,0.05899,0.28224-0.10815,0.51412-0.07243c0.55765-0.19912,1.21773-0.29868,1.68692-0.58667
			c0.27888-0.13626,0.40159-0.42909,0.65959-0.58654c0.03286-0.18754,0.10243-0.33736,0.2194-0.43979
			c0.04691-0.27254,0.19912-0.43683,0.14686-0.80695c0.11024-0.20782,0.2963-0.33925,0.29333-0.66009
			c-0.07343-0.14598-0.12707-0.31312-0.29333-0.36725c-0.02553-0.19427-0.37349-0.06671-0.43969-0.21941
			c-0.25225,0.03196-0.41169-0.02899-0.58665-0.07442c-0.1522-0.04246-0.48175,0.09085-0.51312-0.07244
			c-0.83307-0.02316-1.28632-0.42525-1.83379-0.73253c0.42614-0.25908,1.0215-0.34894,1.31967-0.7345
			c0.51075-0.07541,1.04663-0.12757,1.10077-0.65909c0-0.70937-0.76301-0.65434-1.31968-0.80704
			c-0.76548-0.65326-1.18201-1.65456-1.76035-2.49338c0.23573-0.15557,0.55855-0.22326,0.73302-0.43969
			c0.44939,0.057,0.5344-0.24839,0.66008-0.51422c0.01831-0.48273-0.32915-0.59911-0.58664-0.80644
			c-0.25613-0.20832-0.47018-0.45761-0.66008-0.73302c-0.00288-0.80993-0.02129-1.63477,0.07342-2.34701
			c0.06235-0.01356,0.06957,0.0285,0.07294,0.07342c0.22425,0.43684,0.55331,0.76688,0.80704,1.17322
			c0.52618,0.35378,0.9157,0.84426,1.53996,1.10037c0.44751,0.40831,1.09691,0.61466,1.54056,1.02683
			c0.59437,0.26038,1.14619,0.5639,1.68643,0.87989c0.66196,0.19238,1.04465,0.66591,1.98025,0.58665
			c0.19614-0.09669,0.38942-0.19713,0.58656-0.29383c0.25512-0.45127-0.058-1.06741,0.14597-1.61348
			c0.25226-0.65178,0.78864-1.02001,1.24673-1.46604c0.28699-0.1532,0.54885-0.33202,0.80695-0.51362
			c0.34311-0.09669,0.6678-0.21366,0.9538-0.36676c0.3721-0.0189,0.70551-0.0764,1.02645-0.14647h1.24664
			c0.24167,0.05166,0.46969,0.11787,0.73262,0.14647c0.20673,0.13578,0.37586,0.30966,0.6591,0.36676
			c0.78082,0.68611,1.25732,1.6782,1.39459,3.00699C72.09003,60.96391,72.26302,61.34947,72.21185,61.95067z M72.50468,56.37717
			c-0.12766,0.33687-0.22811,0.69977-0.58665,0.80704c-0.01643-0.10441-0.12084-0.12371-0.14598-0.2199
			c-0.01157-0.20733,0.20683-0.18367,0.29283-0.29333C72.2263,56.58736,72.30745,56.42556,72.50468,56.37717
			C72.49786,56.28879,72.61186,56.33174,72.50468,56.37717z M67.07814,59.38376c0.16131,0.1334,0.28115,0.30639,0.51312,0.36724
			c0.09956,0.21843,0.31124,0.32382,0.58765,0.36628c0.04631-0.14884,0.34211-0.04829,0.36626-0.21981
			c0.172-0.02276,0.16428-0.22662,0.29283-0.29381c-0.01742-0.5441-0.12756-0.99596-0.36626-1.31968
			C67.72169,57.86547,66.81332,58.32308,67.07814,59.38376z"/>
	</g>
</g>
</svg>
