<?xml version="1.0" encoding="utf-8"?>
<!-- Generator: Adobe Illustrator 21.0.0, SVG Export Plug-In . SVG Version: 6.00 Build 0)  -->
<svg version="1.1" id="Layer_1" xmlns="http://www.w3.org/2000/svg" xmlns:xlink="http://www.w3.org/1999/xlink" x="0px" y="0px"
	 viewBox="52.99949 52.85741 22 22" enable-background="new 52.99949 52.85741 22 22" xml:space="preserve">
<g id="instagram">
	<g>
		<path d="M74.88089,65.33591c-0.0127-2.3945-0.3438-4.788-0.3028-7.1347c-0.0234-0.7881-0.0859-1.53521-0.15231-2.2783
			c-0.1055-0.29991-0.1113-0.6993-0.1524-1.0625c-0.2597-0.1705-0.2216-0.6397-0.456-0.8355
			c-0.4229-0.2334-1.20119-0.1138-1.7442-0.227c-0.65719-0.0264-1.2539-0.1153-1.8994-0.15291
			c-1.9355-0.10109-3.9726-0.07569-5.99609-0.07569c-2.0009,0-3.95411-0.1445-5.6953-0.3789h-2.2016
			c-0.0967,0.0039-0.1055,0.0977-0.2271,0.0762c-0.5986,0.0337-1.0766,0.188-1.59469,0.3032
			c-0.21,0.1187-0.42141,0.2354-0.68311,0.30419c-0.1363,0.19241-0.5132,0.14461-0.607,0.37891
			c-0.186,0.2119,0.1846,0.4512,0,0.6075v0.9111c0.1734,0.1304,0.0274,0.5796,0.0752,0.8349v0.9873
			c-0.0166,1.2808,0.1338,2.3975,0.0762,3.7198c0.4673,2.7617,0.374,6.5371,0.0762,9.4131
			c0.1553,0.5791,0.3633,1.10539,0.4551,1.7461c0.2558,0.4785,0.3349,1.1328,0.6831,1.5195
			c0.5024,0.206,1.2329,0.1855,1.8979,0.2285c0.3828,0.0977,0.667,0.293,1.1397,0.3037c2.8432-0.2099,5.4961-0.1543,8.42671-0.22849
			c2.70409,0.2402,5.80179,0.1885,8.27539-0.2275c0.1953-0.1338,0.1279-0.5293,0.22761-0.7598
			c-0.05571-0.3848,0.207-0.4492,0.22749-0.7588C74.86229,70.15721,74.89449,67.76271,74.88089,65.33591z M61.89939,59.11131
			c0.7569-0.15331,1.4805-0.3408,2.4287-0.3042c0.71,0.0757,1.2871,0.2827,1.8975,0.4556c0.1162,0.1841-0.2432,0.5469,0.1533,0.6836
			v0.0762c0.0586,0.0166,0.1494,0.0019,0.15141,0.0761c0.4453,0.0352,0.7939,0.167,1.0635,0.3789
			c0.4501,0.0547,0.53609,0.4756,1.1376,0.3799c-0.0908,0.2129-0.0839,0.5244-0.0751,0.835
			c0.3242,1.18259,0.47459,2.80959,0.3027,4.2519c-0.16411,0.16309-0.2149,0.4424-0.3027,0.68269
			c-0.3106,0.32221-0.48151,0.78511-0.83601,1.06251c-0.0947,0.23631-0.25,0.4082-0.45409,0.5332
			c-0.1162,0.2128-0.206,0.4521-0.457,0.5302c-0.2979,0.16309-0.57719,0.0108-0.834-0.0761
			c-0.4463,0.1621-0.9043,0.3115-1.21481,0.6074c-0.8165-0.0957-1.6485-0.1748-2.4297-0.3037
			c-0.2422-0.13869-0.4873-0.27351-0.835-0.3047c-0.2266-0.2041-0.4961-0.3643-0.8359-0.4551
			c-0.1006-0.127-0.3369-0.1182-0.4551-0.2285c-0.1983-0.0293-0.2285-0.2266-0.4556-0.2285
			c-0.1181-0.4121-0.4428-0.6182-0.5317-1.0616c-0.2256-0.331-0.3081-0.8046-0.4551-1.2148
			c-0.043-1.4336,0.0913-2.6924,0.3794-3.7959c0.3462-0.5908,0.7788-1.0937,1.1382-1.6699
			c0.249,0.02049,0.3652-0.0899,0.3799-0.3042c0.3056,0.0532,0.4336-0.0718,0.6836-0.0752
			C61.69819,59.56841,61.71,59.251,61.89939,59.11131z M60.22849,56.37791c-0.1172-0.2627-0.0664-0.6914-0.0752-1.062
			c-0.0068-0.2847,0.2779-0.2788,0.30371-0.5317c-0.00291-0.0738-0.09271-0.0586-0.15181-0.07621
			c0.1264-0.14549,0.7007-0.09669,0.8344,0c0.1319,0.53711-0.3544,0.45511-0.5312,0.68361
			c0.0107,0.1675,0.3223,0.0322,0.4561,0.0762c0.0293,0.8535-0.0586,1.4961,0,2.2016h-0.4561
			c-0.0068,0.2344,0.2285,0.2261,0.4561,0.2281c-0.0586,0.2856,0.0918,0.3632,0.0751,0.6074
			c-0.2255,0.1528-0.7158,0.0425-1.062,0.0752C59.97459,57.98631,60.31349,57.20511,60.22849,56.37791z M59.54589,54.78421
			c0.0884-0.0127,0.1338,0.0161,0.1514,0.0762c0.1792,0.2529,0.00971,0.68259-0.0757,0.91059
			C59.44779,55.59231,59.59469,55.08941,59.54589,54.78421z M59.69779,56.606c-0.1324-0.06939-0.1685-0.23689-0.1519-0.45559
			C59.67819,56.22071,59.71339,56.38821,59.69779,56.606z M59.69779,57.97271c-0.0582,0.1386-0.0816-0.045-0.0757-0.1524
			C59.68019,57.68211,59.70309,57.86621,59.69779,57.97271z M59.54589,58.20121c0.1748-0.0244,0.084,0.2187,0.2275,0.227
			c-0.0088,0.1929-0.2832,0.1792-0.3798,0.0767C59.43309,58.39261,59.50679,58.31251,59.54589,58.20121z M57.19239,56.98541
			c0.0058-0.108,0.0127-0.21441-0.0762-0.2281c-0.0727-0.7329,0.1299-1.4145,0-1.9731c0.25-0.1548,0.7686-0.0415,1.1387-0.0767
			v1.1387c-0.08789,0.0644-0.2031,0.1011-0.37889,0.0767c-0.05421,0.2802,0.32369,0.1313,0.37889,0.3037
			c0.0078,0.8525-0.0557,1.7773,0.1523,2.4287c-0.5654-0.0586-0.90619,0.1069-1.4424,0.0761
			c0.0967-0.6123-0.0185-1.4345,0.5308-1.5937C57.48439,56.99661,57.23879,57.09081,57.19239,56.98541z M56.66109,56.98541
			c-0.20409,0.0209-0.2168-0.5342-0.0771-0.6075C56.91209,56.38431,56.833,56.87891,56.66109,56.98541z M56.50879,57.97271
			c0.0771-0.3116,0.0337-0.3038,0.07521-0.68271C56.81249,57.30271,56.84419,58.05961,56.50879,57.97271z M56.73679,55.92291
			c-0.2632,0.0537-0.2729-0.2662-0.15279-0.37991C56.84669,55.48971,56.856,55.80961,56.73679,55.92291z M56.73679,54.78421
			c0.0327,0.1587-0.0517,0.2007-0.0757,0.3042c-0.1757,0.0229-0.0844-0.2193-0.2285-0.2285
			C56.457,54.75681,56.623,54.79691,56.73679,54.78421z M56.50879,58.50491c0.1484-0.0308,0.1103,0.3447-0.0762,0.227
			C56.47269,58.67041,56.51169,58.60841,56.50879,58.50491z M55.82519,54.78421c0.02881,0.2593-0.4385,0.3203-0.3789,0H55.82519z
			 M54.83839,54.86041c-0.0337,0.2187-0.3257,0.1792-0.3789,0.3789C54.24509,55.06931,54.543,54.77151,54.83839,54.86041z
			 M54.38279,55.61911c0.2256-0.205,0.4507-0.41011,0.6836-0.6074c-0.0215-0.1225,0.0713-0.1308,0.0762-0.2275h0.2285
			c0.1016,0.38079-0.2607,0.2959-0.3047,0.5312c0.021,0.1221-0.0723,0.1309-0.0752,0.2271
			c0.0195,0.3354,0.1211,0.5879,0.0752,0.9878c-0.27,0.0078-0.2759,0.2802-0.60739,0.227
			C54.48239,56.32911,54.32519,56.083,54.38279,55.61911z M54.459,58.88381V57.29c0.19529-0.18449,0.396-0.36419,0.60739-0.53219
			c0.2949,0.4893,0.1787,1.3916,0.4551,1.8975C55.24609,58.81151,54.77049,58.76561,54.459,58.88381z M72.6797,69.96781
			c-0.10941,0.9541-0.1582,1.9677-0.37891,2.8086c-2.88969,0.12299-6.01949,0.0048-8.88279,0.1533
			c-0.19921,0.0449-0.27351-0.0313-0.22851-0.2285c-0.253,0-0.2579,0.247-0.5313,0.2285c0.2012-0.336,0.4375-0.8985,0.1514-1.291
			c-0.7969,0.0127-0.7969,0.82129-1.1377,1.291c-0.6856-0.05271-1.1367,0.1269-1.8228,0.0752
			c0.1802-0.7051,0.7495-1.0215,0.9107-1.7451c-0.3946-0.54981-0.9893,0.1377-1.2139,0.455
			c-0.2036,0.4805-0.5566,0.80959-0.7598,1.2901h-0.9863c0.2383-0.4688,0.4893-0.9258,0.7588-1.3662
			c0.1709-0.51171,0.625-0.7412,0.6826-1.3672c-0.15719-0.2803-0.4199-0.0293-0.6826,0c-0.1231,0.1816-0.2725,0.3349-0.3799,0.5312
			c-0.2324,0.376-0.501,0.7139-0.6836,1.1397c-0.1806,0.208-0.3349,0.0029-0.5303,0.22649
			c-0.3886,0.2715-0.5805,0.7364-0.9882,0.9873c-0.1739-0.0595,0.039-0.3564,0.1533-0.3798
			c0.0454-0.1807-0.0962-0.5498,0.0752-0.60751c0.0635-0.3662,0.21191-0.6474,0.37891-0.9101
			c0.11909-0.7422,0.52149-1.1992,0.68409-1.8984c-0.55909,0.09859-0.6743,0.64249-0.9878,0.9873
			c-0.2124,0.44529-0.542,0.7724-0.6826,1.291c-0.1744-0.1309-0.0284-0.5801-0.0762-0.836
			c0.1221-0.5859,0.2983-1.1191,0.3799-1.7461c0.1328-0.2197,0.1728-0.5351,0.228-0.8339c0.1685-0.209,0.0464-0.6104-0.0767-0.7608
			c-0.2256,0.0274-0.374,0.1328-0.455,0.3037c-0.1919-0.0322-0.1934,0.5059-0.3038,0.3037
			c-0.04489-2.58691-0.4511-4.8125-0.456-7.4384c0.0264-0.3306-0.1826-0.4244-0.2275-0.6846
			c1.6289,0.0283,3.121,0.0908,4.7832,0.2285c-0.0889,0.1387-0.1993,0.2568-0.3042,0.3789
			c-0.1441,0.07029-0.2256,0.1729-0.3785,0.3037c-0.6045,1.6533-0.9751,3.9844-0.6074,6.1504
			c0.22851,0.5801,0.5894,1.0293,0.9863,1.4414c0.9068,0.4854,1.6348,1.1494,2.5059,1.6709c1.7012,0.3613,3.8398,0.3692,5.541,0
			c0.23631-0.12011,0.4844-0.2256,0.68459-0.3799c1.3642-1.24221,2.75291-2.459,2.96091-4.8593v-1.3672
			c-0.1972-1.59771-0.6884-2.9053-1.747-3.6436c0.331-0.2197,1.09859,0.0435,1.6699,0.0762c0.2226,0.0132,0.4472,0.01369,0.6836,0
			c0.4082-0.0239,0.9277-0.0552,1.44331,0c0.14359,0.1865,0.11329,0.5439,0.22759,0.7598
			c-0.06159,1.6835-0.1924,3.2998-0.1524,5.08689c0.1026,0.45411,0.127,0.98631,0.22849,1.44141
			C73.04589,68.209,72.90039,69.126,72.6797,69.96781z M73.05859,58.80761c-0.6387-0.1201-1.2324-0.2842-1.8975-0.3789
			c0.0723-0.3335,0.7989-0.0102,0.9873-0.2275c0.3848-0.2227,0.295-0.9204,0.3037-1.5186
			c0.0323-0.34761,0.1143-0.6435,0.07619-1.0635c-0.40129-0.95111-1.7832-0.4209-2.8857-0.455
			c-0.22459,0.7177-0.4697,1.7998-0.3037,2.6567c0.1689,0.4897,1.0244,0.2925,1.5185,0.4561
			c-0.1396,0.3315-0.6885,0.05709-0.9873,0.0756c-0.2959-0.083-0.707-0.0517-0.98631-0.1513
			c-2.28519,0.0776-4.28419,0.0039-6.5293,0.1513c0.1172-1.24751,0.06351-2.4648-0.0762-3.64451h3.1123
			c-0.3437,0.36431-0.9121,0.50681-1.29,0.835c-0.4404,0.24411-0.8613,0.50531-1.1387,0.91111
			c0.249,0.1338,0.5352-0.24511,0.7588-0.3789c0.3555-0.07421,0.4795-0.3809,0.835-0.4551
			c0.4228-0.4385,1.0957-0.6255,1.6699-0.91211c0.3779-0.02249,0.6973,0.01321,0.9873,0.07671
			c1.2832,0.00729,2.456,0.1264,3.7959,0.0757c0.61421,0.145,1.45021,0.0693,1.9736,0.3037
			c0.1074,0.2978,0.2315,0.5791,0.3047,0.9111C73.29689,57.07131,73.1396,57.90141,73.05859,58.80761z M67.21389,55.08841
			C67.3242,55.04051,67.20509,54.99611,67.21389,55.08841L67.21389,55.08841z M67.21389,55.08841
			c-0.5293,0.1538-1.0186,0.3481-1.3672,0.6821C66.33109,55.57231,66.9063,55.46441,67.21389,55.08841z M68.27639,55.69531
			C68.3867,55.64791,68.26859,55.60351,68.27639,55.69531L68.27639,55.69531z M66.5303,56.606
			c0.72649-0.15779,1.1806-0.59089,1.74609-0.91069c-0.4366,0.0186-0.5918,0.3198-0.9873,0.3789
			C67.0742,56.29051,66.68949,56.33451,66.5303,56.606z M65.84669,55.77051C65.73629,55.81791,65.85349,55.86281,65.84669,55.77051
			L65.84669,55.77051z M65.16409,56.37791C65.27439,56.332,65.1563,56.28611,65.16409,56.37791L65.16409,56.37791z
			 M65.08889,56.45411c0.0634,0.0142,0.0703-0.0303,0.0752-0.0762C65.09959,56.36431,65.09179,56.40821,65.08889,56.45411z
			 M65.0117,56.53031c0.0645,0.0136,0.0723-0.0298,0.07719-0.0762C65.02249,56.44091,65.01659,56.48341,65.0117,56.53031z
			 M64.1777,57.13771c0.3457-0.1338,0.6133-0.34771,0.834-0.6074C64.66409,56.66411,64.39749,56.87791,64.1777,57.13771z
			 M66.45409,58.125c0.5332-0.04879,0.749-0.416,1.2148-0.53129c0.2842-0.2983,0.7842-0.3808,0.9874-0.75971
			c-0.5596,0.02291-0.7657,0.39941-1.2159,0.53121C67.1563,57.66161,66.68949,57.77831,66.45409,58.125z M64.1777,57.13771
			C63.86129,57.06451,64.16209,57.36521,64.1777,57.13771L64.1777,57.13771z M63.64449,57.51711
			c0.02151,0.0215,0.1153-0.0366,0.0762-0.0767C63.70019,57.41991,63.60549,57.47751,63.64449,57.51711z M66.45409,58.125
			C66.3438,58.17191,66.46089,58.21631,66.45409,58.125L66.45409,58.125z M65.31449,59.94631
			c-0.2227-0.2315-0.6758-0.2334-0.9864-0.3789c-0.6972-0.0381-1.2226,0.0928-1.74609,0.2285
			c-0.30371,0.1509-0.60741,0.3037-0.91011,0.4536c-0.2656,0.16549-0.4444,0.41749-0.7598,0.5317
			c-0.20509,0.2247-0.3516,0.50979-0.6836,0.6075c-0.0039,0.2226-0.1728,0.2812-0.3037,0.3789
			c-0.0894,0.1152-0.0942,0.3115-0.227,0.3808c-0.0069,0.1202,0.0356,0.2901-0.0757,0.3028
			c0.1084,1.5117,0.291,2.9482,0.6831,4.1767c0.2866,0.62309,0.9751,0.8457,1.4419,1.29009
			c0.5888,0.29681,1.3281,0.44431,2.12591,0.53121c0.27739-0.0517,0.55279-0.1055,0.91119-0.07621
			c1.209-0.20889,2.0976-0.73629,2.8096-1.44139c0.09959-0.2812,0.2519-0.5078,0.45499-0.68361
			c-0.2539-0.67089,0.293-1.09759,0.4551-1.59569c0.002-1.3437-0.20119-2.4804-0.6074-3.415
			c-0.2559-0.5791-0.9199-0.7515-1.3662-1.1387c-0.0586-0.0175-0.15041-0.0029-0.15141-0.07661
			C66.11039,59.89161,65.64649,59.78911,65.31449,59.94631z M61.89939,64.27341c-0.1133-0.06341-0.10939-0.24409-0.1523-0.37889
			C62.00289,63.81641,61.86519,64.13091,61.89939,64.27341z M61.97459,64.57811c0.041-0.1172,0.0791-0.0058,0.0762,0.0752
			C62.01069,64.77051,61.97169,64.65821,61.97459,64.57811z M62.43069,62.52731c0.0146-0.0859,0.0752-0.0419,0.0752,0
			C62.49219,62.61431,62.43069,62.57031,62.43069,62.52731z M64.10059,60.40231c-0.2031,0.2579,0.041,0.5762,0.0771,0.836
			C63.873,61.19921,63.60449,60.35061,64.10059,60.40231z M64.48049,64.34961c-0.0401-0.0381,0.0547-0.0967,0.0761-0.0762
			C64.5957,64.31251,64.502,64.37111,64.48049,64.34961z M65.2393,67.23441c0.0341-0.10941,0.0664,0.0078,0.1523,0
			C65.373,67.33111,65.2412,67.31051,65.2393,67.23441z M67.44039,64.65331c-0.23339-0.0566-0.1445,0.208-0.3789,0.1524
			c0.0694-0.1592,0.1182-0.3379,0.22851-0.4551C67.42379,64.36911,67.46189,64.48051,67.44039,64.65331z M66.3027,60.85741
			c0.211,0.1192,0.4414,0.2168,0.6065,0.3809c0.0849,0.21869,0.2431,0.3633,0.3799,0.5293
			c0.0576,0.7783,0.1787,1.4922,0.1513,2.3535c-0.2568,0.0986-0.43839,0.2705-0.6826,0.38089
			c-0.7803-0.00589-1.3584-0.212-1.8974-0.45609c-0.1709-0.2588-0.3555-0.50491-0.5323-0.7588v-1.0625
			c0.16991-0.18461,0.3194-0.39061,0.4561-0.6074c0.2275-0.127,0.5078-0.20121,0.45409-0.6074
			c-0.03809-0.0616-0.07809-0.1241-0.0752-0.2286c0.1582,0.045,0.2451,0.1592,0.37891,0.2286
			C65.8652,61.02831,65.9521,60.81051,66.3027,60.85741z"/>
	</g>
</g>
</svg>
