<?xml version="1.0" encoding="utf-8"?>
<!-- Generator: Adobe Illustrator 21.0.0, SVG Export Plug-In . SVG Version: 6.00 Build 0)  -->
<svg version="1.1" id="Layer_1" xmlns="http://www.w3.org/2000/svg" xmlns:xlink="http://www.w3.org/1999/xlink" x="0px" y="0px"
	 viewBox="0 0 154 195" enable-background="new 0 0 154 195" xml:space="preserve">
<path d="M77.80444,0.46362l-0.8067-0.08398L0.30786,8.41962v140.56793l76.69189,45.63281l76.69238-45.63281V8.41962
	L77.80444,0.46362z M143.65991,143.28345l-66.66016,39.66309l-66.66022-39.66309V85.66821l66.37408,39.5058l0.11133,7.15924
	l-45.53418-27.09961l-0.06696,6.95117l45.71497,27.47461l0.11273,7.34961l-45.69965-27.18561l-0.06604,6.9502l45.71393,27.47461
	l46.15228-27.61517v-6.98242l-0.05762,0.03418v-2.3858v-2.8642V96.97925l20.56549-12.28082V143.28345z M143.60614,77.22437
	l-18.23633,10.7442l-8.41888,4.9599L76.80194,69.04462l-0.06592,6.95074l34.31641,20.40717l-0.30365,0.17969l-0.73926,0.43512
	l-4.87598,2.8725l-28.3316-16.85437l-0.06592,6.95105l22.3623,13.29791l-5.27631,3.5293l-0.12799,0.07715l-16.89209-9.95111
	l-0.06592,6.95007l11.08405,6.5274l-11.29102,6.7793L10.48462,77.93726l66.13916-39.75494v0.00745L143.60614,77.22437z
	 M143.65991,70.23267l-67.02008-39.5083v-0.0097l-0.0083,0.00476l-0.00775-0.00476v0.0097L10.33954,70.18622v-52.7309
	l66.66119-6.98877l66.65918,6.98877V70.23267z"/>
</svg>
