<?xml version="1.0" encoding="utf-8"?>
<!-- Generator: Adobe Illustrator 21.0.0, SVG Export Plug-In . SVG Version: 6.00 Build 0)  -->
<svg version="1.1" id="Layer_2" xmlns="http://www.w3.org/2000/svg" xmlns:xlink="http://www.w3.org/1999/xlink" x="0px" y="0px"
	 viewBox="0.41429 0.16626 24 24" enable-background="new 0.41429 0.16626 24 24" xml:space="preserve">
<g>
	<g id="UrwUhy_2_">
		<g>
			<path d="M17.15708,23.92644c-0.35872,0-0.71936,0-1.07807,0c-4.74014-0.56073-8.21302-2.76202-10.73948-5.57973
				c-2.53458-2.82534-4.53675-6.46197-4.92524-11.35125c0-0.43749,0-0.87557,0-1.31258
				C0.50216,4.79272,0.94014,4.18481,1.44558,3.6665c0.62821-0.64377,1.5755-1.4711,2.43782-1.50136
				c0.6372-0.02127,1.72088,0.43614,2.1575,1.03032c0.37515,0.5126,0.57533,1.53732,0.74942,2.29911
				C6.96877,6.26479,7.37002,7.37921,7.25905,8.1207c-0.17042,1.15589-1.70532,1.64626-2.15654,2.48586
				c1.49904,3.597,3.95243,6.24013,7.22232,8.06667c0.81844-0.44929,1.54158-1.80198,2.67426-1.82846
				c0.41352-0.01131,0.93927,0.20202,1.35936,0.32855c0.4606,0.13784,0.86088,0.31531,1.26676,0.46823
				c0.68157,0.25673,1.89178,0.60037,2.29863,1.17241c0.41816,0.58994,0.65788,1.55473,0.56161,2.15693
				C20.2986,22.16313,18.33318,23.48653,17.15708,23.92644z"/>
		</g>
	</g>
	<path d="M12.52502,1.88289c5.75064,0,10.41102,4.66135,10.41102,10.4115h1.47826c0-6.56531-5.32213-11.88831-11.88927-11.88831
		V1.88289z"/>
	<path d="M12.52502,9.42188v1.50001c0.7589,0,1.37348,0.61497,1.37348,1.37251h1.50088
		C15.39937,10.70758,14.11367,9.42188,12.52502,9.42188z"/>
	<path d="M12.52502,6.44371c3.23307,0,5.85348,2.61955,5.85348,5.85165h1.5349c0-4.07886-3.30769-7.38558-7.38838-7.38558V6.44371z"
		/>
</g>
</svg>
