<?xml version="1.0" encoding="utf-8"?>
<!-- Generator: Adobe Illustrator 21.0.0, SVG Export Plug-In . SVG Version: 6.00 Build 0)  -->
<svg version="1.1" id="Layer_1" xmlns="http://www.w3.org/2000/svg" xmlns:xlink="http://www.w3.org/1999/xlink" x="0px" y="0px"
	 viewBox="0 0 32 32" enable-background="new 0 0 32 32" xml:space="preserve">
<path id="mail" d="M28,5H4C1.791,5,0,6.792,0,9v13c0,2.209,1.791,4,4,4h24c2.209,0,4-1.791,4-4V9
	C32,6.792,30.209,5,28,5z M2,10.25l6.999,5.25L2,20.75V10.25z M30,22c0,1.10351-0.89841,2-2,2H4c-1.103,0-2-0.89649-2-2l7.832-5.875
	l4.36819,3.27731c0.5327,0.3975,1.166,0.59969,1.79981,0.59969c0.63279,0,1.26559-0.20119,1.79879-0.59969L22.168,16.125L30,22
	L30,22z M30,20.75l-7-5.25l7-5.25V20.75z M17.19919,18.60161C16.84959,18.86431,16.436,19.002,16,19.002
	c-0.436,0-0.85111-0.13869-1.20021-0.40039L10.665,15.5l-0.833-0.625L2,9.001V9c0-1.103,0.897-2,2-2h24c1.10159,0,2,0.897,2,2
	L17.19919,18.60161z"/>
</svg>
