<?xml version="1.0" encoding="utf-8"?>
<!-- Generator: Adobe Illustrator 21.0.0, SVG Export Plug-In . SVG Version: 6.00 Build 0)  -->
<svg version="1.1" id="Layer_2" xmlns="http://www.w3.org/2000/svg" xmlns:xlink="http://www.w3.org/1999/xlink" x="0px" y="0px"
	 viewBox="0 0 86 35" enable-background="new 0 0 86 35" xml:space="preserve">
<g>
	<path d="M4.38545,26.28369c-0.0136-3.4716-0.26169-6.93751-0.3564-10.4091c-0.0078-0.3399-0.0147-0.6807-0.0195-1.0206
		c0.0488,0.1221,0.0966,0.24319,0.1455,0.3643c0.54,1.3516,1.1025,2.6631,1.8388,3.91989
		c0.7315,1.24421,1.0987,2.58011,1.5205,3.93951c-0.1591,0.1816-0.2558,0.3896-0.1962,0.5957
		c-0.0332,0.1504,0.05861,0.2451,0.2119,0.3056c0.5371,0.46,1.5498,0.2315,2.1133-0.00781
		c0.2421-0.10149,0.4736-0.22069,0.6962-0.35539c0.2901-0.1807,0.74421-0.5723,0.6133-0.97661
		c-0.0244-0.07909-0.0488-0.15719-0.0722-0.23539c0.3964-1.0683,0.5976-2.1787,0.8134-3.30761
		c0.2305-1.206,0.6592-2.34469,1.0918-3.48529c0.043,0.5205,0.08791,1.0439,0.12891,1.5664
		c0.17389,2.1474,0.02839,4.2695,0.00789,6.42189c-0.00789,0.71291,0.0459,1.375,0.1835,2.07521
		c0.05861,0.2871,0.30961,1.5214,0.2354,1.58779c-0.5156,0.47561-0.3662,1.06061,0.32621,1.211
		c0.77149,0.16891,1.75289-0.08789,2.333-0.625c1.00879-0.93359,0.53119-2.39649,0.30369-3.57229
		c-0.3848-1.9726,0.0771-4.1806,0.0166-6.1894c-0.06929-2.2598-0.4297-4.503-0.3994-6.7686
		c0.0234-1.831,0.32811-3.7139-0.3028-5.47071c0.0391-0.20019,0.0801-0.39839,0.1172-0.59959
		c0.1631-0.8789-2.7539-0.4141-3.2119,0.39159c-0.29,0.23541-0.4375,0.51861-0.3135,0.80571
		c0.0313,0.07129,0.0567,0.1464,0.084,0.2187c-0.5517,2.6992-1.3213,5.3135-2.207,7.9297
		c-0.33889,1.001-0.7481,1.9766-1.0947,2.9775c-0.4903-0.93261-0.9864-1.8505-1.3838-2.84661
		C6.45385,11.8335,5.40995,8.9107,3.99876,6.1285c0.16019-1.2891-2.69771-1.1534-3.26121,0.0263
		c-0.6816,1.4258-0.5923,2.8662-0.3691,4.3926c0.25431,1.7207,0.2978,3.4111,0.3198,5.1475
		c0.0386,3.3466,0.3003,6.6894,0.3511,10.04c-0.2979,0.3311-0.3887,0.7412-0.0777,1.1582c0.1358,0.1816,0.3057,0.3213,0.4824,0.46
		C2.20095,27.96439,4.39035,27.44579,4.38545,26.28369z"/>
	<path d="M22.58176,7.91169c-0.08881-0.6133-3.416,0.0839-3.29981,0.8847c0.25881,1.7764,0.167,3.5606,0.13581,5.3516
		c-0.03131,1.7217,0.39349,3.28219,0.61519,4.9707c0.2256,1.7324-0.0713,3.5019,0.126,5.2353
		c0.08981,0.8116,0.63181,2.3116,0.0742,3.0176c-0.3545,0.4473,1.2373,0.2852,1.30961,0.2754
		c0.64649-0.1201,1.50879-0.331,1.93839-0.875c0.5518-0.6973,0.1651-2.042,0.045-2.8271c-0.2666-1.7344-0.0967-3.5371-0.1621-5.2862
		c-0.0606-1.6758-0.6436-3.2539-0.6504-4.9463C22.70385,11.76809,22.86595,9.84329,22.58176,7.91169z"/>
	<path d="M25.70485,14.55718c0.9101,2.51361,4.6484,1.32711,6.5508,1.47071c3.2382,0.2392,2.2724,4.6074,2.3134,6.6406
		c0.0225,1.085,0.9952,2.88869,0.17871,3.7978c-0.50191,0.5557-1.66891,0.58889-2.35151,0.6465
		c-0.68649,0.0567-1.85349,0.2608-2.31149-0.38961c-0.836-1.19439,0.07709-3.20019-0.10161-4.56839
		c-0.1025-0.7802-3.4238-0.0801-3.2988,0.8838c0.29,2.211-1.1787,5.1748,2.02241,5.5557
		c2.05859,0.2441,4.37209-0.1358,6.31739-0.7832c1.0078-0.334,1.9434-0.792,2.7315-1.5088c0.872-0.794,0.5849-1.9795,0.3515-2.9873
		c-0.5693-2.458,0.6162-5.2891-0.9873-7.4541c-1.7383-2.34471-4.9619-0.6572-7.21189-1.2969
		c-1.1611-0.3301-1.1748-1.9111-1.1699-2.8603c0.0019-1.2022-0.0977-2.3018-0.2315-3.4913
		c-0.0996-0.8867-0.0205-1.7871,0.628-2.44721c0.1191-0.12109,0.7226-0.28319,0.6806-0.28619
		c0.2989-0.0507,0.5723-0.0625,0.9004-0.0761c1.3037-0.05571,3.8848,0.19529,3.3858,2.0918
		c-0.22559,0.8506,3.0283,0.3632,3.26559-0.5371c1.0205-3.8741-6.1377-3.1309-8.15919-2.5928
		c-1.86331,0.4941-3.916,1.5547-4.02341,3.7041c-0.0518,1.02729,0.2295,2.0058,0.27441,3.0224
		C25.51145,12.26029,25.29365,13.42829,25.70485,14.55718z"/>
	<path d="M40.15995,16.42729c-0.0528,1.7988-0.2081,3.5928-0.2198,5.3926c-0.0058,0.9209,0.1455,1.8418,0.2784,2.75
		c0.122,0.8408,0.40721,1.9638,0.15231,2.7959c-0.1982,0.64639,3,0.2421,3.25391-0.587c0.458-1.497-0.18751-3.4023-0.34081-4.9179
		c-0.1475-1.4512-0.03219-2.9453,0.0722-4.4199c1.7081-0.1104,3.418-0.2491,5.1192-0.01081
		c0.07619,1.16311,0.16399,2.32131,0.27241,3.48341c0.08789,0.97559,0.15139,1.9483,0.16409,2.9287
		c0.0147,0.8555,0.1201,2.0987-0.18459,2.9131c-0.65131,1.7315,2.6553,1.5899,3.1358,0.3076
		c0.5918-1.5771,0.4228-3.5371,0.3232-5.1943c-0.12991-2.0586-0.4043-4.10651-0.4697-6.166
		c-0.1016-3.1826-0.5801-6.3291-0.59379-9.5156c-0.00681-1.6612-3.33781-1.0987-3.331,0.288
		c0.01169,3.04009,0.417,6.03709,0.57129,9.0684c0.0049,0.0605,0.0078,0.1211,0.00971,0.1846
		c-1.63961-0.0157-3.28121,0.1494-4.92871,0.207c0.1709-3.9023-0.5146-7.7715-0.3642-11.67191
		c0.0195-0.49219-3.2637-0.07709-3.2998,0.88281C39.63455,8.91749,40.27315,12.65779,40.15995,16.42729z"/>
	<path d="M54.23995,21.79839c-0.2539,0.25879-0.1591,0.414,0.045,0.50579c0.0009,1.47371-0.0498,2.94931-0.1778,4.42391
		c-0.3965,0.6298,0.3897,0.9599,0.9121,0.9599c0.0284,0,0.0547,0,0.0821,0c0.62199,0,2.2089-0.2929,2.28899-1.1484
		c0.1621-1.7686,0.21101-3.5352,0.1963-5.2988c1.3369-1.4463,2.4336-3.0567,3.416-4.7481
		c0.6397,1.2481,1.24711,2.5049,1.6758,3.8613c0.7246,2.3096,1.9375,4.4307,2.63671,6.75c0.459,1.5215,3.75389,0.6211,3.2979-0.8847
		c-0.7012-2.3194-1.85651-4.4619-2.63771-6.75c-0.79099-2.3223-1.99809-4.3614-3.04589-6.5684
		c0.8447-1.6406,1.6992-3.2832,2.46971-4.9599c0.6983-1.5245,1.2188-3.2159,2.5938-4.2891
		c0.48341-0.376,0.46382-0.7549-0.2159-0.8008c-0.73729-0.0537-1.73819,0.1592-2.33389,0.625
		c-1.25,0.9736-2.042,2.1582-2.69439,3.5947c-0.78421,1.7256-1.59761,3.4209-2.45511,5.1172
		c-0.0605,0.1231-0.125,0.2481-0.1875,0.3731c-0.4121,0.2636-0.6601,0.6416-0.539,1.0644c-0.666,1.3164-1.3467,2.627-2.1045,3.8848
		c-0.252-4.66111-0.8027-9.3174-0.9688-13.9834c-0.03609-1.0684-3.3447-0.4033-3.2968,0.8857
		c0.2041,5.7852,1.0244,11.5567,1.083,17.3399C54.26735,21.76909,54.25265,21.78469,54.23995,21.79839z"/>
	<path d="M85.77415,15.56689c-0.1767-0.7011-1.1553-0.7158-1.914-0.6484c-0.00981-0.28131-0.0166-0.5664-0.0293-0.8486
		c-0.10651-2.2412-0.1387-4.5303-0.32909-6.76471c-0.17581-2.06929-1.33501-2.81149-3.34572-2.73439
		c-2.0352,0.0772-4.40428,0.44339-6.3018,1.1827c-2.1973,0.8525-3.42091,2.47069-3.84081,4.7841
		c-0.4639,2.5391,0.2011,5.2383,0.3134,7.7891c0.12991,2.9512,0.05569,5.9092,0.0538,8.8594c0,0.4843,3.2968,0.0273,3.2968-0.8838
		c0.00389-2.3379,0.03709-4.6758,0-7.0137c-0.0107-0.6885-0.04291-1.374-0.0849-2.0566c1.15521-0.4991,3.1064,0.0097,4.2549,0.1181
		c0.9326,0.0889,1.8261-0.1377,2.73239-0.2441c0.0166,1.9463,0.08981,3.9053,0.16991,5.8506
		c0.04201,0.9971,0.4023,2.97459-0.29691,3.7988c-0.36809,0.4356,1.24899,0.2881,1.3096,0.2803
		c0.668-0.124,1.48239-0.3379,1.93939-0.877c0.79991-0.9424,0.3838-3.1924,0.33792-4.3164
		c-0.06541-1.6113-0.08591-3.2226-0.12111-4.834C84.89134,16.87749,85.95584,16.28179,85.77415,15.56689z M79.11205,15.40479
		c-1.9277-0.0459-3.82809-0.34861-5.6514,0.0362c-0.08589-1.05081-0.1826-2.0977-0.25479-3.1543
		c-0.1338-1.962,0.09859-4.7022,1.92769-5.89551c0.49222-0.31839,1.4131-0.26369,1.98441-0.36819
		c0.81931-0.1475,1.6474-0.3281,2.3838,0.1601c1.01749,0.6758,0.76849,3.08009,0.76559,4.1006
		c-0.002,1.69049,0.1767,3.3701,0.2617,5.0586C80.06425,15.38818,79.59155,15.41459,79.11205,15.40479z"/>
	<path d="M18.90605,4.08839c-0.0479,0.1797,0.0126,0.3565,0.1191,0.4971c0,0.0391,0.0019,0.0752,0.0019,0.1142
		c0.004,0.0938,0.0088,0.18749,0.01271,0.2823c0.06159,0.1943,0.18169,0.3427,0.36229,0.4463
		c0.3252,0.1963,0.7373,0.2324,1.1084,0.1963c0.4395-0.0411,0.8819-0.1915,1.2452-0.4395c0.0722-0.0615,0.1425-0.1221,0.2158-0.1826
		c0.4385-0.2822,0.81831-0.69731,0.61231-1.1465c-0.42381-0.9316-0.35841-1.8799-0.34961-2.875
		c0.0049-0.8076-0.8115-1.05081-1.501-0.9893c-0.60839,0.0537-1.8271,0.4893-1.8311,1.2793
		c-0.0068,0.836-0.0615,1.6983,0.0918,2.5225C18.95285,3.88529,18.92945,3.99169,18.90605,4.08839z"/>
	<path d="M80.48315,33.27199c-1.5576-0.5849-3.2832-0.6152-4.8506-0.7871c-1.60251-0.1699-3.2451-0.4102-4.88379-0.5625
		c-1.63672,0.0527-3.30951,0.0273-4.97171,0.1289l-4.8798,0.2676c-6.4873,0.289-12.9991,0.2529-19.5166,0.1074
		c-6.5166-0.123-13.045-0.4766-19.62989-0.45311c-3.28811,0.00781-6.56551,0.09861-9.86231,0.25
		c-1.6319,0.28321-3.2393,0.501-4.9043,0.91311c-1.6153,0.3994-3.1446,0.9072-4.794,1.0478
		c1.6231,0.3623,3.3409,0.292,4.9619,0.2969c1.5791,0.0098,3.2432,0.1426,4.8721,0.2314c3.2285-0.1718,6.4873-0.2461,9.7334-0.2578
		c6.4873-0.02441,13.0147,0.3291,19.5654,0.4512c6.5479,0.1465,13.1143,0.1855,19.6827-0.1104l4.90719-0.2685
		c1.60251-0.0713,3.1982-0.127,4.8291-0.0674c1.6279-0.1484,3.2529-0.3301,4.918-0.5322c1.664-0.2383,3.21971-0.627,4.8544-0.5088
		l0.07431,0.0059l0.0058-0.0547c0.0215-0.1778-0.04001-0.3233-0.04001-0.47951
		C80.51924,33.01809,80.51434,33.15479,80.48315,33.27199z"/>
</g>
</svg>
