<?xml version="1.0" encoding="utf-8"?>
<!-- Generator: Adobe Illustrator 21.0.0, SVG Export Plug-In . SVG Version: 6.00 Build 0)  -->
<svg version="1.1" id="Layer_1" xmlns="http://www.w3.org/2000/svg" xmlns:xlink="http://www.w3.org/1999/xlink" x="0px" y="0px"
	 viewBox="0 0 20 18" enable-background="new 0 0 20 18" xml:space="preserve">
<path fill="#231F20" d="M18.89299,6.92174h-2.9818l-3.2244-6.44827c-0.17516-0.35034-0.60024-0.4922-0.95238-0.31751
	C11.3837,0.33161,11.24184,0.75765,11.417,1.10837l2.90651,5.81337h-8.6474L8.583,1.10837
	c0.17516-0.35072,0.0333-0.77676-0.31739-0.95241c-0.34979-0.1747-0.77676-0.03284-0.95241,0.31751L4.0893,6.92174H1.10701
	c-0.39179,0-0.70976,0.31797-0.70976,0.70976c0,0.39187,0.31797,0.70976,0.70976,0.70976h0.14885l0.80904,2.8307
	c-0.17649,0.12944-0.29897,0.32808-0.29897,0.56333c0,0.37428,0.29253,0.6723,0.65942,0.69956l1.56694,5.48394h12.01542
	l1.56694-5.48394c0.36738-0.02631,0.66037-0.32528,0.66037-0.69956c0-0.23572-0.12248-0.43436-0.29954-0.56371l0.80867-2.83033
	h0.14885c0.39179,0,0.70975-0.31788,0.70975-0.70976C19.60275,7.23971,19.28478,6.92174,18.89299,6.92174z M14.93663,16.49928
	H5.06337l-1.15841-4.05424h12.19008L14.93663,16.49928z M16.50075,11.02554H3.49925L2.73263,8.34125h14.53523L16.50075,11.02554z"/>
</svg>
