<?xml version="1.0" encoding="utf-8"?>
<!-- Generator: Adobe Illustrator 21.0.0, SVG Export Plug-In . SVG Version: 6.00 Build 0)  -->
<svg version="1.1" id="Layer_1" xmlns="http://www.w3.org/2000/svg" xmlns:xlink="http://www.w3.org/1999/xlink" x="0px" y="0px"
	 viewBox="0 0 18 18" enable-background="new 0 0 18 18" xml:space="preserve">
<path fill="#231F20" d="M17.4697,15.93015l-3.415-3.4151c0.9648-1.289,1.5449-2.88081,1.5449-4.6162
	c0-4.2529-3.4473-7.6982-7.7002-7.6982s-7.6992,3.4453-7.6992,7.6982c0,4.253,3.4453,7.7002,7.6982,7.7002
	c1.73441,0,3.3262-0.5801,4.6133-1.5459l3.417,3.416c0.20311,0.2022,0.418,0.33009,0.7715,0.33009
	c0.6064,0,1.09961-0.49219,1.09961-1.09959C17.79981,16.45946,17.7383,16.20065,17.4697,15.93015z M2.3984,7.89885
	c0-3.0381,2.4619-5.5,5.5-5.5s5.5,2.4619,5.5,5.5s-2.4619,5.5-5.5,5.5S2.3984,10.93795,2.3984,7.89885z"/>
</svg>
