<?xml version="1.0" encoding="utf-8"?>
<!-- Generator: Adobe Illustrator 21.0.0, SVG Export Plug-In . SVG Version: 6.00 Build 0)  -->
<svg version="1.1" id="Layer_1" xmlns="http://www.w3.org/2000/svg" xmlns:xlink="http://www.w3.org/1999/xlink" x="0px" y="0px"
	 viewBox="264.20529 370.96152 20.2945 18.84899" enable-background="new 264.20529 370.96152 20.2945 18.84899"
	 xml:space="preserve">
<path fill="#231F20" d="M283.74979,378.18991h-3.15088l-3.40723-6.8139c-0.18509-0.37021-0.63428-0.52011-1.00638-0.33551
	c-0.37061,0.18561-0.52051,0.6358-0.33542,1.00641l3.07132,6.14301h-9.13773l3.07172-6.14301
	c0.18509-0.37061,0.03519-0.8208-0.33539-1.00641c-0.36963-0.1846-0.8208-0.0347-1.00641,0.33551l-3.40671,6.8139h-3.1514
	c-0.414,0-0.75,0.336-0.75,0.75c0,0.41409,0.336,0.75,0.75,0.75h0.15729l0.85492,2.99121
	c-0.18649,0.13678-0.31592,0.34668-0.31592,0.59528c0,0.39551,0.30911,0.71042,0.69681,0.73923l1.65579,5.79489h12.69672
	l1.65579-5.79489c0.38821-0.0278,0.69781-0.34372,0.69781-0.73923c0-0.24908-0.12943-0.45898-0.31653-0.59567l0.85452-2.99081
	h0.15729c0.414,0,0.75-0.33591,0.75-0.75C284.49979,378.52591,284.16379,378.18991,283.74979,378.18991z M279.56909,388.31052
	h-10.43311l-1.22409-4.28412h12.88129L279.56909,388.31052z M281.22189,382.5264h-13.73871l-0.81009-2.83649h15.35941
	L281.22189,382.5264z"/>
</svg>
