<?xml version="1.0" encoding="utf-8"?>
<!-- Generator: Adobe Illustrator 21.0.0, SVG Export Plug-In . SVG Version: 6.00 Build 0)  -->
<svg version="1.1" id="Layer_1" xmlns="http://www.w3.org/2000/svg" xmlns:xlink="http://www.w3.org/1999/xlink" x="0px" y="0px"
	 viewBox="226.00073 225.99976 59.99951 60" enable-background="new 226.00073 225.99976 59.99951 60" xml:space="preserve">
<path d="M226.83458,269.48578l26.6763,15.491v-22.6972l-26.6763-15.49722V269.48578z M276.75397,239.10957v2.38498
	c0,1.76642-3.36194,3.19812-7.51575,3.19812c-4.14713,0-7.51196-1.4317-7.51196-3.19812v-3.94586h0.0238
	c0.2525,1.66667,3.50339,2.98735,7.48816,2.98735c4.15381,0,7.51477-1.43315,7.51477-3.19336
	c0-1.76886-3.36096-3.19727-7.51477-3.19727c-0.3295,0-0.65607,0.00993-0.97409,0.02898l-4.83649-2.80797v3.00018
	c0,1.76643-3.35815,3.19823-7.50809,3.19823c-2.60809,0-4.90477-0.56633-6.25392-1.42654
	c-0.19084-0.19746-0.42729-0.38977-0.71205-0.56963c-0.35272-0.3708-0.5493-0.77478-0.5493-1.20206v-2.90335l-4.67357,2.71396
	c-0.33707-0.01614-0.67696-0.0318-1.02443-0.0318c-4.14809,0-7.51245,1.42841-7.51245,3.19727
	c0,1.76021,3.36436,3.19336,7.51245,3.19336c3.98523,0,7.23897-1.32068,7.49057-2.98735h0.0213v3.94586
	c0,1.76642-3.35902,3.19812-7.51187,3.19812c-4.14809,0-7.51245-1.4317-7.51245-3.19812v-2.35316l-5.78629,3.35571
	l26.76643,15.54233l26.59085-15.44121L276.75397,239.10957z M263.48938,248.99368c0,1.76643-3.3638,3.1953-7.51189,3.1953
	c-4.15001,0-7.5143-1.42886-7.5143-3.1953v-3.94635h0.02324c0.25258,1.66718,3.50291,2.99026,7.49106,2.99026
	c3.98659,0,7.23653-1.32309,7.49098-2.99026h0.0209V248.99368L263.48938,248.99368z M258.48679,262.4808v22.50073l26.68011-15.49576
	v-22.5007L258.48679,262.4808z M255.91907,233.4077c4.15042,0,7.50858-1.42886,7.50858-3.19432
	c0-1.7641-3.35815-3.1954-7.50858-3.1954c-4.15089,0-7.51479,1.4313-7.51479,3.1954
	C248.40428,231.97884,251.76817,233.4077,255.91907,233.4077"/>
</svg>
