<?xml version="1.0" encoding="utf-8"?>
<!-- Generator: Adobe Illustrator 21.0.0, SVG Export Plug-In . SVG Version: 6.00 Build 0)  -->
<svg version="1.1" id="svg4488" xmlns="http://www.w3.org/2000/svg" xmlns:xlink="http://www.w3.org/1999/xlink" x="0px" y="0px"
	 viewBox="-260.29471 -20.46924 42 64" enable-background="new -260.29471 -20.46924 42 64" xml:space="preserve">
<g>
	<path d="M-244.31139,18.39929c-0.29051,0.98239-0.24881,2.22907,0.02736,3.70125c0.50259,2.67999,1.71548,6.14485,2.39894,9.83613
		h5.14902c0.70827-3.70318,1.98271-7.171,2.51317-9.84905c0.29204-1.47015,0.33527-2.70594,0.0412-3.67939
		c-0.27962-0.91485-0.9054-1.6455-2.05624-2.34227h-6.09959C-243.43071,16.75631-244.04062,17.48046-244.31139,18.39929z"/>
	<path d="M-232.2764,38.73812h-14.03651c-1.31523,0-2.33893,0.99237-2.33893,2.26783v2.26681h2.33893h14.03651h2.33882v-2.26681
		C-229.93758,39.7305-230.96127,38.73812-232.2764,38.73812z"/>
	<path d="M-225.02098-17.94392h-11.93408c0-1.26549-1.03265-2.26732-2.33984-2.26732c-1.30527,0-2.33934,1.00183-2.33934,2.26732
		h-11.93857L-259.75,8.01133c0.80753-0.46933,1.61621-1.00926,2.67703-1.00926c1.38226,0,2.28125,0.83196,2.97417,1.39915
		c0.69383,0.56668,1.18156,0.86319,1.47208,0.86319c0.29651,0.00153,0.78181-0.29204,1.47565-0.85027
		c0.6929-0.55773,1.59088-1.38124,2.96521-1.38124c1.37178,0,2.27525,0.81955,2.96907,1.37677
		c0.69536,0.55823,1.18056,0.85475,1.47615,0.85475c0.14902,0,0.34422-0.07396,0.58957-0.21798
		c0.24585-0.14353,0.53931-0.35866,0.88647-0.63727c0.5211-0.41766,1.15828-0.98393,2.024-1.23914
		c0.28909-0.08646,0.603-0.13813,0.94569-0.13813c1.37025,0,2.27626,0.81904,2.97009,1.37728
		c0.69434,0.55783,1.17862,0.85474,1.47615,0.85474c0.29202-0.00244,0.77927-0.30139,1.47014-0.8642
		c0.69586-0.56322,1.59781-1.39019,2.97508-1.39019c1.37971,0,2.27769,0.83145,2.96959,1.39466
		c0.34767,0.28116,0.64226,0.49772,0.88658,0.64227c0.24432,0.14546,0.43861,0.21747,0.58458,0.21747
		c0.29254,0,0.7748-0.29844,1.46719-0.86868c0.69189-0.56861,1.59435-1.40749,2.97905-1.40749
		c1.06235,0,1.87102,0.54186,2.67705,1.01362L-225.02098-17.94392z"/>
	<path d="M-235.82222,34.20349h-6.98169c-0.66809,0-1.16968,0.48774-1.16968,1.13437c0,0.64571,0.50159,1.13244,1.16968,1.13244
		h7.01851c0.66646,0,1.16966-0.48672,1.16966-1.13244c0-0.64663-0.5032-1.13437-1.16966-1.13437H-235.82222z"/>
	<path d="M-239.29491,9.29869c-0.14851,0-0.34372,0.07548-0.58957,0.21707c-0.15939,0.09541-0.37646,0.26518-0.57959,0.41674
		v3.79504h2.33882V9.9325C-238.64035,9.54709-239.05008,9.29869-239.29491,9.29869z"/>
</g>
</svg>
