<?xml version="1.0" encoding="utf-8"?>
<!-- Generator: Adobe Illustrator 21.0.0, SVG Export Plug-In . SVG Version: 6.00 Build 0)  -->
<svg version="1.1" id="Layer_1" xmlns="http://www.w3.org/2000/svg" xmlns:xlink="http://www.w3.org/1999/xlink" x="0px" y="0px"
	 viewBox="0 0 32 22" enable-background="new 0 0 32 22" xml:space="preserve">
<path transform="translate(0 192)" d="M26-182l6-4v16l-6-4V-182z M24-182v8c0,2.209-1.791,4-4,4H4c-2.209,0-4-1.791-4-4v-8
	c0-2.209,1.791-4,4-4h10c0-1.105,0.895-2,2-2v-2H5c-0.55321,0-1-0.4473-1-1c0-0.55269,0.44679-1,1-1h12c0.55269,0,1,0.44731,1,1v3
	c1.10549,0,2,0.895,2,2C22.209-186,24-184.209,24-182z M12-182H4v8h8V-182z M20-181c0-0.55269-0.44731-1-1-1h-4
	c-0.55321,0-1,0.44731-1,1c0,0.5527,0.44679,1,1,1h4C19.55269-180,20-180.4473,20-181z"/>
</svg>
