<?xml version="1.0" encoding="utf-8"?>
<!-- Generator: Adobe Illustrator 21.0.0, SVG Export Plug-In . SVG Version: 6.00 Build 0)  -->
<svg version="1.1" id="Laag_1" xmlns="http://www.w3.org/2000/svg" xmlns:xlink="http://www.w3.org/1999/xlink" x="0px" y="0px"
	 viewBox="0.3391 0.44557 100 76" enable-background="new 0.3391 0.44557 100 76" xml:space="preserve">
<g>
	<g>
		<g>
			<path fill="#63D1BB" d="M95.71641,18.68899c0,0-0.89545-6.82142-3.68444-9.81006
				c-3.53529-3.93352-7.46979-3.95825-9.28734-4.18262C69.77295,3.70013,50.32766,3.70013,50.32766,3.70013h-0.04945
				c0,0-19.44714,0-32.41891,0.99618c-1.81744,0.2234-5.75106,0.24909-9.28627,4.18262
				c-2.76427,3.01336-3.6854,9.81006-3.6854,9.81006s-0.87167,7.99252-0.87167,15.98513v7.49443
				c0,7.99155,0.922,15.98416,0.922,15.98416s0.89641,6.82239,3.68453,9.81007c3.53521,3.93354,8.14087,3.80901,10.2074,4.23298
				c7.41938,0.74715,31.49593,0.99527,31.49593,0.99527s19.4709-0.02472,32.44169-1.02
				c1.81754-0.22433,5.75106-0.24999,9.28627-4.18449c2.76524-2.98672,3.6855-9.80911,3.6855-9.80911
				s0.92103-7.99164,0.92103-15.98513v-7.49345C96.63753,26.68151,95.71641,18.68899,95.71641,18.68899z"/>
			<path fill="#FFFFFF" d="M50.3153,75.86789h-0.01518c-0.98771-0.01046-24.28282-0.25951-31.73636-1.00953l-0.13696-0.01331
				l-0.13306-0.02757c-0.26428-0.05418-0.65012-0.10456-1.09594-0.16255c-2.43643-0.31939-6.9688-0.91351-10.55064-4.88602
				c-3.26528-3.51908-4.26059-10.48402-4.36416-11.26732l-0.00477-0.04186C2.24016,58.12604,1.3391,50.22094,1.3391,42.16855
				v-7.49443c0-8.04586,0.85173-15.9424,0.88783-16.27511l0.00857-0.06931c0.10552-0.78047,1.12448-7.71695,4.35462-11.24933
				c3.88982-4.32133,8.3043-4.76909,10.427-4.9849c0.18728-0.01995,0.36026-0.03611,0.51522-0.05704l0.12265-0.01236
				C30.57916,1.03369,50.08149,1.0223,50.27821,1.0223h0.04945c0.19585,0,19.69721,0.01236,32.62235,1.00377l0.12265,0.01236
				c0.15487,0.02093,0.32794,0.03709,0.51522,0.05704c2.12076,0.21483,6.53146,0.66357,10.41843,4.97536
				c3.26528,3.52012,4.26147,10.48502,4.36416,11.26929l0.00477,0.04186c0.03796,0.33358,0.93914,8.23392,0.96387,16.30733v7.50299
				c0,8.05336-0.90118,15.95944-0.93914,16.29118l-0.0067,0.0514c-0.10554,0.78417-1.12547,7.74156-4.35941,11.25495
				c-3.88787,4.31662-8.29963,4.7653-10.42223,4.98108c-0.18728,0.01901-0.36123,0.03613-0.51619,0.05514l-0.12265,0.01235
				c-12.92233,0.99337-32.44646,1.0295-32.6423,1.03044L50.3153,75.86789L50.3153,75.86789z M19.22158,69.54362
				c7.27765,0.70914,30.38557,0.96294,31.11747,0.97055c0.63982-0.00095,19.59928-0.04753,32.16797-1.00858
				c0.17297-0.0209,0.36123-0.03992,0.56467-0.06084c1.78707-0.1806,4.48486-0.45533,6.99439-3.24626l0.0257-0.02757
				c1.77665-1.92207,2.77663-6.74441,2.99341-8.32522c0.05704-0.50004,0.90118-8.13522,0.90118-15.65145v-7.49453
				c-0.02287-7.55332-0.87266-15.21128-0.9259-15.68085c-0.31178-2.31855-1.39547-6.60853-2.98387-8.31199l-0.03426-0.03709
				c-2.50856-2.79192-5.20917-3.06564-6.99536-3.24718c-0.20345-0.02093-0.39071-0.03991-0.56467-0.06084
				C69.76439,6.3912,50.52254,6.37787,50.32863,6.37787h-0.04945c-0.19293,0-19.43673,0.01334-32.15463,0.98392
				c-0.1721,0.02093-0.36122,0.03991-0.56466,0.06084c-1.78611,0.18154-4.48487,0.45526-6.99538,3.24718l-0.01811,0.02093
				c-1.77948,1.93921-2.77946,6.73965-3.00003,8.32435c-0.05986,0.57509-0.85173,8.17601-0.85173,15.66089v7.49443
				c0,7.543,0.84794,15.18285,0.90118,15.65525c0.31179,2.31758,1.39547,6.60853,2.98484,8.312l0.03426,0.03802
				c2.25946,2.51526,5.16168,2.89549,7.2796,3.17211C18.36313,69.40768,18.80895,69.46567,19.22158,69.54362z"/>
		</g>
	</g>
	<g>
		<polygon fill="#FFFFFF" points="38.75048,21.05407 38.75048,55.81236 67.70632,38.4337 		"/>
	</g>
</g>
</svg>
