<?xml version="1.0" encoding="utf-8"?>
<!-- Generator: Adobe Illustrator 21.0.0, SVG Export Plug-In . SVG Version: 6.00 Build 0)  -->
<svg version="1.1" id="Layer_1" xmlns="http://www.w3.org/2000/svg" xmlns:xlink="http://www.w3.org/1999/xlink" x="0px" y="0px"
	 viewBox="0 5 32 22" enable-background="new 0 5 32 22" xml:space="preserve">
<g transform="translate(0 192)">
	<path d="M26-177l6-4v16l-6-4V-177z M24-177v8c0,2.209-1.791,4-4,4H4c-2.209,0-4-1.791-4-4v-8c0-2.209,1.791-4,4-4h10
		c0-1.105,0.895-2,2-2v-2H5c-0.55321,0-1-0.4473-1-1c0-0.55269,0.44679-1,1-1h12c0.55269,0,1,0.44731,1,1v3c1.10549,0,2,0.895,2,2
		C22.209-181,24-179.209,24-177z M12-177H4v8h8V-177z M20-176c0-0.55269-0.44731-1-1-1h-4c-0.55321,0-1,0.44731-1,1
		c0,0.5527,0.44679,1,1,1h4C19.55269-175,20-175.4473,20-176z"/>
</g>
</svg>
