<svg xmlns="http://www.w3.org/2000/svg" style="width:0; height:0; visibility:hidden;">
    <symbol id="icon_about-banknote" viewBox="48.94528 56.47091 46.10945 27.05817">
       <path d="M91.18848,56.47091H52.81054c-2.13463,0-3.86526,1.731-3.86526,3.86575v19.32618c0,2.13473,1.73063,3.86624,3.86526,3.86624
	h38.37794c2.13474,0,3.86625-1.73151,3.86625-3.86624V60.33667C95.05473,58.20192,93.32321,56.47091,91.18848,56.47091z
	 M51.93854,81.17111V59.16055h39.80008v22.01057H51.93854z"/> <path d="M55.8037,77.30585h32.07065V63.0263H55.8037V77.30585z M72,64.90472c2.90664,0,5.26185,2.3561,5.26185,5.26134
	c0,2.90615-2.35521,5.26126-5.26185,5.26126s-5.26125-2.35511-5.26125-5.26126C66.73875,67.26083,69.09386,64.90472,72,64.90472z"/> 
    </symbol>
    <symbol id="icon_about-flower" viewBox="6.51395 5.8496 31.9721 37.3008">
       <path d="M22.49976,42.96389c8.73882,0,15.82643-7.0876,15.82643-15.82644
	C29.58637,27.13746,22.49976,34.22408,22.49976,42.96389z M11.25444,22.302c0,2.42619,1.96941,4.39649,4.396,4.39649
	c0.92288,0,1.78527-0.29096,2.48807-0.77438l-0.03524,0.33353c0,2.42669,1.9698,4.39699,4.3965,4.39699
	c2.42668,0,4.39599-1.9703,4.39599-4.39699l-0.03574-0.33353c0.71152,0.49203,1.56618,0.77438,2.48857,0.77438
	c2.42658,0,4.39599-1.9703,4.39599-4.39649c0-1.74992-1.02772-3.25324-2.5146-3.95663
	c1.47718-0.70329,2.5146-2.20671,2.5146-3.95663c0-2.42619-1.96941-4.396-4.39599-4.396c-0.92239,0-1.78478,0.29007-2.48857,0.77339
	l0.03574-0.33404c0-2.42608-1.96931-4.39598-4.39599-4.39598c-2.42669,0-4.3965,1.9699-4.3965,4.39598l0.03524,0.33404
	c-0.71201-0.49203-1.56519-0.77339-2.48807-0.77339c-2.42659,0-4.396,1.9698-4.396,4.396c0,1.74992,1.02871,3.25334,2.5142,3.95663
	C12.28315,19.04876,11.25444,20.55208,11.25444,22.302z M22.49976,13.94937c2.42668,0,4.39599,1.9693,4.39599,4.396
	c0,2.42619-1.96931,4.396-4.39599,4.396c-2.42669,0-4.3965-1.9698-4.3965-4.396
	C18.10326,15.91867,20.07306,13.94937,22.49976,13.94937z M6.67381,27.13746c0,8.73883,7.08662,15.82644,15.82595,15.82644
	C22.49976,34.22408,15.41313,27.13746,6.67381,27.13746z"/> 
    </symbol>
    <symbol id="icon_about-gift" viewBox="238.50002 600.50293 32.666 32.4863">
       <path d="M241.52899,632.82678h12.37886v-13.77106h-12.37886V632.82678z M269.42975,609.44287h-7.26163
	c0.51627-0.26392,0.97455-0.54327,1.38254-0.83624c1.57202-1.12158,2.39954-2.54468,2.39569-3.95911
	c0.00198-1.15717-0.55005-2.18005-1.3457-2.87225c-0.79666-0.69708-1.85052-1.10803-2.98557-1.10992
	c-1.20749-0.00098-2.32797,0.41669-3.28708,1.05859c-1.44443,0.96875-2.58034,2.4267-3.38957,4.02673
	c-0.0387,0.07831-0.07732,0.15564-0.11404,0.23395c-0.29591-0.61676-0.64102-1.21332-1.03069-1.77405
	c-0.68449-0.97546-1.50816-1.84174-2.47203-2.4856c-0.9601-0.64008-2.08157-1.05872-3.28908-1.05872
	c-1.20076,0.00397-2.29997,0.50854-3.12375,1.28204c-0.81982,0.77539-1.396,1.86584-1.39798,3.10333
	c-0.00188,0.72321,0.20889,1.47931,0.64291,2.16565c0.54628,0.8634,1.40965,1.61169,2.60646,2.22559h-6.52191
	c-0.86922,0-1.57498,0.70483-1.57498,1.57391v5.83856h15.24252v-7.41345h1.85437v7.41345h15.24245v-5.83856
	C271.00467,610.14667,270.29987,609.44287,269.42975,609.44287 M247.29108,607.12738
	c-0.61588-0.38666-0.98999-0.77722-1.2076-1.12341c-0.2175-0.34998-0.29095-0.65552-0.29285-0.95319
	c-0.00395-0.4989,0.24553-1.03162,0.68449-1.44641c0.43213-0.41083,1.01802-0.66034,1.54688-0.66034h0.01257
	c0.67766,0,1.35254,0.22919,2.02544,0.67578c1.00732,0.66418,1.95485,1.83124,2.61806,3.15472
	c0.33838,0.66907,0.6033,1.37573,0.78111,2.06604C250.408,608.5235,248.43185,607.84961,247.29108,607.12738 M257.72284,605.51678
	c0.55099-0.78894,1.19778-1.45129,1.8678-1.89697c0.67291-0.44659,1.34869-0.67578,2.02643-0.67578h0.00574
	c0.56857,0,1.10605,0.21759,1.47928,0.54431c0.37314,0.33264,0.56558,0.73193,0.56747,1.15918
	c-0.00388,0.50671-0.26968,1.24622-1.45212,2.1106c-1.12634,0.81696-3.06961,1.65607-6.06564,2.24194
	C256.43887,607.81091,256.99002,606.5531,257.72284,605.51678 M255.76212,632.82678h12.38083v-13.77106h-12.38083V632.82678z"/> 
    </symbol>
    <symbol id="icon_about-heart" viewBox="50.1401 50.71059 32.7198 27.57882">
       <path d="M82.8599,59.35952c0-4.77695-3.87298-8.64894-8.64894-8.64894c-3.37125,0-6.28422,1.93169-7.7112,4.74546
	c-1.42699-2.81378-4.33997-4.74546-7.71072-4.74546c-4.77645,0-8.64894,3.87199-8.64894,8.64894
	c0,9.03573,14.51014,18.92989,16.35966,18.92989C68.35016,78.28941,82.8599,68.43871,82.8599,59.35952z"/> 
    </symbol>
    <symbol id="icon_about-loupe" viewBox="0 0 34.37273 34.37299">
       <g> <path d="M0.28627,14.06893c-0.3818,2.0728-0.3842,4.2109,0.0079,6.3008l4.1206-3.21L0.28627,14.06893z"/> <path d="M24.40347,1.58553c-4.7832-2.208-10.4443-2.144-15.2539,0.4067l7.5132,5.625L24.40347,1.58553z"/> <path d="M33.90157,13.17493l-4.8106,3.748l4.9356,3.6948C34.52267,18.17343,34.48946,15.63043,33.90157,13.17493z"/> <path d="M9.20917,32.41363c4.84421,2.5342,10.7236,2.6504,15.7305,0.1133l-8.0962-6.0615L9.20917,32.41363z"/> <path d="M7.91427,14.43323l-6.23289-4.6665c-0.31991,0.6694-0.59531,1.3559-0.82471,2.0561l5.3076,3.9736L7.91427,14.43323z"/> <path d="M18.59297,25.10213l8.3359,6.2422c0.2774-0.1914,0.5508-0.3906,0.8203-0.6006c0.3184-0.248,0.625-0.5049,0.92-0.7705
		l-8.3262-6.2344L18.59297,25.10213z"/> <path d="M11.41327,11.70713l-7.4111-5.5493c-0.4624,0.5517-0.8853,1.1274-1.2691,1.7231l6.9307,5.189L11.41327,11.70713z"/> <path d="M22.09297,22.37553l8.0918,6.0586c0.4707-0.5439,0.9043-1.1123,1.2969-1.7011l-7.6387-5.7207L22.09297,22.37553z"/> <path d="M14.91277,8.98053l-7.7163-5.7773c-0.1929,0.1377-0.3843,0.2793-0.5732,0.4262c-0.396,0.3086-0.774,0.6319-1.1358,0.9673
		l7.6758,5.7471L14.91277,8.98053z"/> <path d="M25.59196,19.64903l6.9717,5.2207c0.3301-0.6621,0.6152-1.3408,0.8555-2.0332l-6.0772-4.5503L25.59196,19.64903z"/> <path d="M26.44837,2.70563L0.88007,22.62653c0.2329,0.6983,0.5127,1.3858,0.83931,2.0586l26.52009-20.6626
		C27.66717,3.54113,27.06857,3.10213,26.44837,2.70563z"/> <path d="M30.74337,6.62363c-0.30081-0.3858-0.61431-0.7539-0.93951-1.1065l-27.0176,21.0498
		c0.2622,0.4024,0.5425,0.7969,0.8428,1.1827c0.1421,0.1826,0.2876,0.3593,0.4356,0.5341l27.0908-21.1074
		C31.02167,6.99033,30.88587,6.80573,30.74337,6.62363z"/> <path d="M32.29807,8.99863l-26.7461,20.8398c0.5439,0.501,1.1142,0.9619,1.7075,1.3819l25.9624-20.2281
		C32.95916,10.31453,32.65157,9.64853,32.29807,8.99863z"/> </g> 
    </symbol>
    <symbol id="icon_about-rocket" viewBox="613.69287 501.02435 53.61473 22.95127">
       <g> <path d="M653.60138,506.67874c-3.61102-0.961-7.76056-1.64984-12.23584-1.64896c-2.86169,0.00101-5.40253,0.2403-7.63287,0.61639
		l-6.71637-4.62183l-13.32147,0.00534l5.75244,6.12225h8.36279c-4.5343,1.58212-6.69122,3.47946-6.69122,3.47946l0.00201,3.73914
		c0,0,2.29028,1.89301,6.86127,3.48242l-8.53674-0.00482l-5.7525,6.12561l13.32056,0.00189l6.74823-4.64539
		c2.23822,0.39441,4.77411,0.64093,7.60388,0.64191c4.47717-0.00098,8.62482-0.69031,12.23669-1.65033
		c-1.164-1.75769-1.89581-3.70575-1.89868-5.81824C651.70642,510.38589,652.43433,508.4339,653.60138,506.67874z"/> <path d="M656.98993,507.70248c-1.27136,1.58896-1.94904,3.21701-1.94513,4.79153c-0.00684,1.58069,0.66992,3.20587,1.948,4.79822
		c6.33539-2.14056,10.31482-4.79248,10.31482-4.79248S663.32916,509.84732,656.98993,507.70248z"/> </g> 
    </symbol>
    <symbol id="icon_bg-zigzag-line" viewBox="0 0 1150 23">
       <g> <path fill="#E6E7E8" d="M1150,22.99996c-9.01697,0-13.72803-4.589-17.51404-8.276c-3.41199-3.323-5.87695-5.724-11.23401-5.724
		c-5.35803,0-7.823,2.401-11.23499,5.724c-3.78601,3.688-8.49695,8.276-17.51404,8.276s-13.72803-4.589-17.51404-8.276
		c-3.41199-3.323-5.87695-5.724-11.23401-5.724s-7.82202,2.401-11.23401,5.724c-3.78601,3.688-8.49695,8.276-17.51404,8.276
		s-13.729-4.589-17.51501-8.276c-3.4118-3.323-5.87683-5.724-11.2348-5.724c-5.35699,0-7.82202,2.401-11.23401,5.724
		c-3.78699,3.687-8.49799,8.276-17.51404,8.276s-13.72803-4.589-17.51398-8.276c-3.41199-3.323-5.87701-5.724-11.23401-5.724
		s-7.82202,2.401-11.23401,5.724c-3.78699,3.687-8.49896,8.276-17.51495,8.276s-13.729-4.589-17.51501-8.276
		c-3.41199-3.323-5.87701-5.724-11.23401-5.724s-7.82202,2.401-11.23401,5.724c-3.78699,3.687-8.49896,8.276-17.51501,8.276
		s-13.729-4.589-17.51501-8.276c-3.41199-3.323-5.87695-5.724-11.23499-5.724c-5.35498,0-7.82001,2.4-11.23102,5.723
		c-3.78595,3.688-8.49695,8.277-17.51196,8.277c-9.01703,0-13.729-4.589-17.51501-8.276
		c-3.41199-3.323-5.87695-5.724-11.23499-5.724c-5.35602,0-7.82098,2.401-11.23199,5.723c-3.78601,3.688-8.49701,8.277-17.513,8.277
		c-9.01703,0-13.729-4.589-17.51398-8.277c-3.41003-3.322-5.875-5.723-11.23303-5.723s-7.82098,2.401-11.23297,5.723
		c-3.78503,3.688-8.49701,8.277-17.51404,8.277c-9.01599,0-13.72699-4.589-17.51202-8.276
		c-3.41095-3.323-5.87494-5.724-11.23297-5.724s-7.82202,2.401-11.23401,5.724c-3.78595,3.687-8.49695,8.276-17.51398,8.276
		s-13.729-4.589-17.51501-8.276c-3.41199-3.323-5.87701-5.724-11.23596-5.724c-5.35699,0-7.82202,2.401-11.23401,5.724
		c-3.78601,3.687-8.49701,8.276-17.51404,8.276c-9.01599,0-13.72803-4.589-17.51398-8.276
		c-3.41101-3.323-5.87598-5.724-11.23401-5.724s-7.823,2.401-11.23401,5.724c-3.78601,3.687-8.49701,8.276-17.51398,8.276
		c-9.017,0-13.729-4.589-17.51401-8.276c-3.41101-3.323-5.87698-5.724-11.23401-5.724c-5.358,0-7.823,2.401-11.23499,5.724
		c-3.78702,3.687-8.49899,8.276-17.51501,8.276c-9.017,0-13.729-4.589-17.51599-8.276c-3.41199-3.323-5.87698-5.724-11.237-5.724
		c-5.358,0-7.823,2.401-11.23499,5.724c-3.78601,3.687-8.49802,8.276-17.51501,8.276s-13.729-4.589-17.51498-8.276
		c-3.41202-3.323-5.87701-5.724-11.23602-5.724c-5.358,0-7.823,2.401-11.23499,5.724c-3.78601,3.687-8.49802,8.276-17.51501,8.276
		s-13.729-4.589-17.51501-8.276c-3.41296-3.323-5.87799-5.724-11.23599-5.724s-7.82401,2.401-11.23599,5.724
		c-3.78598,3.687-8.49899,8.276-17.51599,8.276c-9.01801,0-13.729-4.589-17.51599-8.276c-3.41202-3.323-5.87802-5.724-11.237-5.724
		c-5.35699,0-7.82201,2.401-11.23399,5.724c-3.78502,3.687-8.49702,8.276-17.51302,8.276c-9.017,0-13.729-4.589-17.515-8.276
		c-3.412-3.323-5.877-5.724-11.235-5.724s-7.82401,2.401-11.23599,5.724c-3.78601,3.687-8.49802,8.276-17.51501,8.276
		c-9.01801,0-13.73-4.589-17.517-8.276c-3.412-3.323-5.877-5.724-11.237-5.724s-7.825,2.401-11.23801,5.724
		c-3.787,3.687-8.5,8.276-17.517,8.276c-9.018,0-13.73-4.589-17.517-8.276c-3.41299-3.323-5.87899-5.724-11.23899-5.724
		s-7.826,2.401-11.239,5.724c-3.785,3.687-8.498,8.276-17.516,8.276s-13.731-4.588-17.518-8.276
		c-3.414-3.323-5.88-5.724-11.241-5.724s-7.827,2.401-11.24,5.724c-3.787,3.687-8.5,8.276-17.519,8.276v-9
		c5.361,0,7.827-2.401,11.241-5.724c3.787-3.688,8.5-8.276,17.518-8.276s13.731,4.588,17.519,8.276
		c3.413,3.323,5.879,5.724,11.24,5.724c5.36,0,7.825-2.401,11.238-5.724c3.78699-3.687,8.49899-8.276,17.517-8.276
		s13.73,4.589,17.517,8.276c3.413,3.323,5.879,5.724,11.239,5.724s7.826-2.401,11.238-5.724c3.787-3.687,8.5-8.276,17.517-8.276
		s13.73,4.589,17.517,8.276c3.412,3.323,5.87801,5.724,11.237,5.724c5.358,0,7.82401-2.401,11.23599-5.724
		c3.78601-3.687,8.49802-8.276,17.51501-8.276s13.729,4.589,17.515,8.276c3.412,3.323,5.877,5.724,11.235,5.724
		c5.35699,0,7.82201-2.401,11.23399-5.724c3.78601-3.687,8.49701-8.276,17.51302-8.276c9.017,0,13.729,4.589,17.51599,8.276
		c3.41199,3.323,5.87799,5.724,11.237,5.724s7.82401-2.401,11.23599-5.724c3.78702-3.687,8.49899-8.276,17.51599-8.276
		s13.729,4.589,17.51498,8.276c3.41199,3.323,5.87701,5.724,11.23599,5.724c5.35901,0,7.82401-2.401,11.23599-5.724
		c3.78503-3.687,8.49704-8.276,17.51404-8.276s13.729,4.589,17.51599,8.276c3.41202,3.323,5.87701,5.724,11.23502,5.724
		s7.823-2.401,11.23499-5.724c3.78702-3.687,8.49902-8.276,17.51501-8.276c9.01801,0,13.729,4.589,17.51599,8.276
		c3.41199,3.323,5.87701,5.724,11.23599,5.724c5.358,0,7.823-2.401,11.23499-5.724c3.78702-3.687,8.49902-8.276,17.51602-8.276
		c9.01599,0,13.728,4.589,17.51401,8.276c3.41199,3.323,5.87701,5.724,11.23499,5.724c5.35699,0,7.82202-2.401,11.23401-5.724
		c3.78503-3.687,8.49603-8.276,17.513-8.276c9.01599,0,13.72803,4.589,17.51398,8.276c3.41101,3.323,5.87604,5.724,11.23401,5.724
		c5.35699,0,7.82202-2.401,11.23401-5.724c3.78699-3.687,8.49701-8.276,17.51404-8.276c9.01801,0,13.729,4.589,17.51599,8.276
		c3.41199,3.323,5.87701,5.724,11.23499,5.724c5.35699,0,7.82202-2.401,11.23401-5.724c3.78699-3.687,8.49799-8.276,17.51398-8.276
		s13.72803,4.589,17.513,8.277c3.41101,3.323,5.87604,5.723,11.23199,5.723c5.35699,0,7.82202-2.401,11.23401-5.724
		c3.78601-3.687,8.49799-8.276,17.513-8.276s13.72803,4.589,17.513,8.276c3.41199,3.323,5.87701,5.724,11.23401,5.724
		c5.35602,0,7.82098-2.401,11.23199-5.723c3.78601-3.688,8.49701-8.277,17.513-8.277c9.01703,0,13.729,4.589,17.51501,8.276
		c3.41199,3.323,5.87701,5.724,11.23499,5.724c5.35602,0,7.82098-2.401,11.23199-5.724c3.78503-3.687,8.49603-8.276,17.51099-8.276
		c9.01703,0,13.729,4.589,17.51501,8.276c3.41101,3.323,5.87604,5.724,11.23499,5.724s7.823-2.401,11.23499-5.724
		c3.78601-3.687,8.49805-8.276,17.51404-8.276c9.01703,0,13.72803,4.589,17.51398,8.276c3.41199,3.323,5.87701,5.724,11.23499,5.724
		s7.823-2.401,11.23499-5.724c3.78607-3.687,8.49707-8.276,17.51404-8.276s13.72803,4.589,17.51398,8.276
		c3.41199,3.323,5.87701,5.724,11.23401,5.724s7.82202-2.401,11.23401-5.724c3.78601-3.687,8.49701-8.276,17.51404-8.276
		s13.729,4.589,17.51501,8.276c3.41205,3.323,5.87701,5.724,11.23505,5.724c5.35706,0,7.82202-2.401,11.23401-5.724
		c3.78601-3.688,8.49695-8.276,17.51404-8.276s13.72803,4.589,17.51404,8.276c3.41199,3.323,5.87695,5.724,11.23401,5.724
		s7.82202-2.401,11.23401-5.724c3.78601-3.688,8.49805-8.276,17.51501-8.276s13.72803,4.589,17.51404,8.276
		c3.41174,3.323,5.87671,5.724,11.23376,5.724V22.99996z"/> </g> 
    </symbol>
    <symbol id="icon_contacts-flag" viewBox="0 0 47 82">
       <g id="miu"> <g id="Artboard-1" transform="translate(-755.000000, -443.000000)"> <g id="editor-flag-triangle-notification-glyph"> <path fill="#63D1BB" d="M762.93951,447.04492v38.90039l38.90027-19.4512L762.93951,447.04492z M755.16022,524.8457V443.1543
				h3.80457v81.69141H755.16022z"/> </g> </g> </g> <g> <rect fill="#231F20" width="3.96481" height="82"/> </g> 
    </symbol>
    <symbol id="icon_footer-facebook" viewBox="56.49954 49.85476 15 28">
       <g id="facebook"> <g> <path d="M68.18069,55.18851c1.02631,0.0293,1.9931-0.00051,2.6806-0.2998c0.39071-0.8179,0.55571-1.8545,0.6192-2.9893
			c-0.19049-0.0146-0.06249-0.3369-0.2071-0.3989c-0.0293-0.2022-0.2783-0.1948-0.3086-0.398
			c-0.2773-0.165-0.457-0.4223-0.7226-0.5981c-0.7266-0.1616-1.44041-0.335-2.1641-0.4985
			c-0.8486,0.0444-1.8945-0.1026-2.58009,0.0996c-2.61911-0.0401-3.997,1.1201-5.25921,2.3916
			c-0.023,0.0781-0.0034,0.1972-0.105,0.1992c-0.5742,1.5874-0.1245,3.6211-0.2041,5.581c0.0986,0.4361,0.1074,0.9585,0.2041,1.3946
			c-0.9981,0.2959-2.2119,0.3867-3.4024,0.499c-0.3168,0.3237-0.1777,1.0889-0.206,1.6934c0.085,0.583,0.2783,1.0595,0.4131,1.59469
			c0.2109,0.19331,0.5962,0.39651,0.8252,0.498c0.0649,0.02931,0.07131,0.08211,0.1025,0.09961
			c0.5059,0.2676,1.4512,0.0079,2.2676,0.0996c-0.1362,1.9776,0.2558,3.9151,0,5.6797c0.0068,0.3272,0.2949,0.3819,0.2075,0.7979
			c-0.001,0.9629-0.0669,1.99019,0.2075,2.6904c-0.2871,0.4551-0.4966,0.9824-0.415,1.794
			c0.1221,0.0156,0.1138,0.1572,0.105,0.29879c-0.0747,0.46971,0.643,0.17481,0.5151,0.69821
			c0.16211,0.4561-0.4277,0.18359-0.4126,0.4981v0.8965c0.5298,0.2851,1.4624,0.18159,2.2681,0.19919
			c0.9082-0.419,2.1875-0.47849,2.7851-1.19629c0.459,0.23529,0.916-0.01371,1.2383-0.1992
			c-0.0176-0.31551,0.27351-0.333,0.2051-0.6983c-0.00389-0.3281-0.17289-0.4961-0.1025-0.8965v-2.8886
			c-0.2061-2.293-0.0479-4.9385-0.30859-7.1758c0.8877-0.1055,1.917-0.0752,2.57809-0.3984
			c0.3574-0.4512,0.3769-1.2305,0.5156-1.8946c0.1768-0.2256,0.2207-0.583,0.2061-0.9961
			c0.19041-0.2129,0.0683-0.7295,0.1035-1.0957c-0.1406-0.5952-0.168-1.2998-0.8252-1.395
			c-0.8838-0.2353-2.043,0.5952-2.9912,0.2988c0.0488-1.1342-0.293-2.3422,0-3.3881
			C66.76069,55.60941,67.46089,55.39011,68.18069,55.18851z M64.36329,59.97121c0.1172,0.2539,0.25391,0.4863,0.414,0.6977
			c0.0791,0.0225,0.2032,0.003,0.2051,0.1006c1.1924,0.0557,2.1992-0.0693,3.0957-0.2993c0,0.9976-0.2705,1.7329-0.5176,2.4917
			c-0.6621,0.0449-1.4667,0.2998-1.958,0.1983c-0.2763,0.165-0.372,0.50579-0.6201,0.6982c-0.0488,0.4414,0.14161,0.4951,0,0.7969
			c-0.2011,0.13669-0.0547,0.6113-0.2051,0.7959v1.4961c0.085,0.2812-0.1455,0.2578-0.1035,0.49699v3.4883
			c-0.0849,0.2813,0.1465,0.2578,0.1035,0.4981v2.9892c0.0635,0.2705-0.1318,0.791,0.1026,0.8965
			c-0.0703,0.3643-0.4121-0.0205-0.8242,0.09959c-0.5284,0.12211-0.9258,0.36921-1.5479,0.40041
			c0.11721-0.3525,0.3203-0.6221,0.3106-1.09669c0.0488-0.38081-0.3653-0.3115-0.5157-0.498
			c0.1934-0.6436,0.5625-1.1172,0.7217-1.793c0.1973-0.5146,0.7139-1.2978,0.30961-1.7939
			c-0.52251-0.1055-0.52151,0.2929-0.82621,0.3984c-0.0224,0.0772-0.0019,0.1963-0.1025,0.1992
			c-0.0235,0.0772-0.003,0.1963-0.1026,0.1992c0.0098,0.1202-0.1513,0.0616,0,0c0.0225-0.0781,0.002-0.1972,0.1026-0.1992
			c0.0234-0.0771,0.0019-0.1972,0.1025-0.1992v-0.29881c0.36821-0.5752,0.6699-1.2139,0.82621-1.99319
			c0.19139-0.2803,0.28319-0.65621,0.41209-0.9971c0.1562-0.2617,0.3398-0.86911,0.1045-1.1953
			c-0.51659,0.03319-0.7959,0.2949-0.9297,0.6973c-0.3203-0.1895,0.16111-0.4336,0.1045-0.6973
			c0.1377-0.23141,0.1689-0.56641,0.30861-0.79681c0.20209-0.41309,0.56439-1.30379,0-1.59579
			c-0.43751-0.0234-0.61231,0.2071-0.72271,0.4981c-0.2138,0.1914-0.4297,0.3828-0.5156,0.6982
			c-0.373-0.0703-0.1426-0.72651-0.2061-1.0966c-0.0673-0.5196,0.1221-0.8995,0-1.1954c-0.5595-0.7988-2.0258-0.1054-3.1972-0.2988
			c-0.10839-0.3066-0.2217-0.9844-0.1035-1.1953c1.0449-0.0879,2.4785,0.2012,3.1972-0.1992
			c0.0244-0.0781,0.003-0.1973,0.1035-0.19921c0.0938-0.72319-0.2714-1-0.51459-1.39549c0.23239-0.8057,0.04-2.0201,0.10349-2.9893
			c0.2334-0.1406,0.3281-0.4141,0.5147-0.5977c0.1123-0.955,0.67281-1.47551,0.7216-2.4921
			c-0.2734,0.0014-0.6074-0.0547-0.6191,0.1992c-0.3018-0.1143-0.3818,0.4785-0.5146,0.1992
			c-0.1123-0.5405,0.246-0.626,0.3085-0.9971c0.5987-0.4179,1.212-0.8203,1.8565-1.1953c1.7412-0.2441,4.6484-0.4487,6.08591,0.1983
			c0.05079,0.6162-0.28711,0.854-0.207,1.496h-1.54591c-1.0918,0.24029-1.9873,0.6719-2.9912,0.9971
			c-0.2402,0.0664-0.2764,0.3311-0.5156,0.3985c-0.03619,0.3964-0.22459,0.6464-0.31059,0.9961
			C64.18159,57.42381,64.39359,58.58151,64.36329,59.97121z"/> </g> </g> 
    </symbol>
    <symbol id="icon_footer-htmlacademy" viewBox="0 0 154 195">
       <path d="M77.80444,0.46362l-0.8067-0.08398L0.30786,8.41962v140.56793l76.69189,45.63281l76.69238-45.63281V8.41962
	L77.80444,0.46362z M143.65991,143.28345l-66.66016,39.66309l-66.66022-39.66309V85.66821l66.37408,39.5058l0.11133,7.15924
	l-45.53418-27.09961l-0.06696,6.95117l45.71497,27.47461l0.11273,7.34961l-45.69965-27.18561l-0.06604,6.9502l45.71393,27.47461
	l46.15228-27.61517v-6.98242l-0.05762,0.03418v-2.3858v-2.8642V96.97925l20.56549-12.28082V143.28345z M143.60614,77.22437
	l-18.23633,10.7442l-8.41888,4.9599L76.80194,69.04462l-0.06592,6.95074l34.31641,20.40717l-0.30365,0.17969l-0.73926,0.43512
	l-4.87598,2.8725l-28.3316-16.85437l-0.06592,6.95105l22.3623,13.29791l-5.27631,3.5293l-0.12799,0.07715l-16.89209-9.95111
	l-0.06592,6.95007l11.08405,6.5274l-11.29102,6.7793L10.48462,77.93726l66.13916-39.75494v0.00745L143.60614,77.22437z
	 M143.65991,70.23267l-67.02008-39.5083v-0.0097l-0.0083,0.00476l-0.00775-0.00476v0.0097L10.33954,70.18622v-52.7309
	l66.66119-6.98877l66.65918,6.98877V70.23267z"/> 
    </symbol>
    <symbol id="icon_footer-instagram" viewBox="52.99949 52.85741 22 22">
       <g id="instagram"> <g> <path d="M74.88089,65.33591c-0.0127-2.3945-0.3438-4.788-0.3028-7.1347c-0.0234-0.7881-0.0859-1.53521-0.15231-2.2783
			c-0.1055-0.29991-0.1113-0.6993-0.1524-1.0625c-0.2597-0.1705-0.2216-0.6397-0.456-0.8355
			c-0.4229-0.2334-1.20119-0.1138-1.7442-0.227c-0.65719-0.0264-1.2539-0.1153-1.8994-0.15291
			c-1.9355-0.10109-3.9726-0.07569-5.99609-0.07569c-2.0009,0-3.95411-0.1445-5.6953-0.3789h-2.2016
			c-0.0967,0.0039-0.1055,0.0977-0.2271,0.0762c-0.5986,0.0337-1.0766,0.188-1.59469,0.3032
			c-0.21,0.1187-0.42141,0.2354-0.68311,0.30419c-0.1363,0.19241-0.5132,0.14461-0.607,0.37891
			c-0.186,0.2119,0.1846,0.4512,0,0.6075v0.9111c0.1734,0.1304,0.0274,0.5796,0.0752,0.8349v0.9873
			c-0.0166,1.2808,0.1338,2.3975,0.0762,3.7198c0.4673,2.7617,0.374,6.5371,0.0762,9.4131
			c0.1553,0.5791,0.3633,1.10539,0.4551,1.7461c0.2558,0.4785,0.3349,1.1328,0.6831,1.5195
			c0.5024,0.206,1.2329,0.1855,1.8979,0.2285c0.3828,0.0977,0.667,0.293,1.1397,0.3037c2.8432-0.2099,5.4961-0.1543,8.42671-0.22849
			c2.70409,0.2402,5.80179,0.1885,8.27539-0.2275c0.1953-0.1338,0.1279-0.5293,0.22761-0.7598
			c-0.05571-0.3848,0.207-0.4492,0.22749-0.7588C74.86229,70.15721,74.89449,67.76271,74.88089,65.33591z M61.89939,59.11131
			c0.7569-0.15331,1.4805-0.3408,2.4287-0.3042c0.71,0.0757,1.2871,0.2827,1.8975,0.4556c0.1162,0.1841-0.2432,0.5469,0.1533,0.6836
			v0.0762c0.0586,0.0166,0.1494,0.0019,0.15141,0.0761c0.4453,0.0352,0.7939,0.167,1.0635,0.3789
			c0.4501,0.0547,0.53609,0.4756,1.1376,0.3799c-0.0908,0.2129-0.0839,0.5244-0.0751,0.835
			c0.3242,1.18259,0.47459,2.80959,0.3027,4.2519c-0.16411,0.16309-0.2149,0.4424-0.3027,0.68269
			c-0.3106,0.32221-0.48151,0.78511-0.83601,1.06251c-0.0947,0.23631-0.25,0.4082-0.45409,0.5332
			c-0.1162,0.2128-0.206,0.4521-0.457,0.5302c-0.2979,0.16309-0.57719,0.0108-0.834-0.0761
			c-0.4463,0.1621-0.9043,0.3115-1.21481,0.6074c-0.8165-0.0957-1.6485-0.1748-2.4297-0.3037
			c-0.2422-0.13869-0.4873-0.27351-0.835-0.3047c-0.2266-0.2041-0.4961-0.3643-0.8359-0.4551
			c-0.1006-0.127-0.3369-0.1182-0.4551-0.2285c-0.1983-0.0293-0.2285-0.2266-0.4556-0.2285
			c-0.1181-0.4121-0.4428-0.6182-0.5317-1.0616c-0.2256-0.331-0.3081-0.8046-0.4551-1.2148
			c-0.043-1.4336,0.0913-2.6924,0.3794-3.7959c0.3462-0.5908,0.7788-1.0937,1.1382-1.6699
			c0.249,0.02049,0.3652-0.0899,0.3799-0.3042c0.3056,0.0532,0.4336-0.0718,0.6836-0.0752
			C61.69819,59.56841,61.71,59.251,61.89939,59.11131z M60.22849,56.37791c-0.1172-0.2627-0.0664-0.6914-0.0752-1.062
			c-0.0068-0.2847,0.2779-0.2788,0.30371-0.5317c-0.00291-0.0738-0.09271-0.0586-0.15181-0.07621
			c0.1264-0.14549,0.7007-0.09669,0.8344,0c0.1319,0.53711-0.3544,0.45511-0.5312,0.68361
			c0.0107,0.1675,0.3223,0.0322,0.4561,0.0762c0.0293,0.8535-0.0586,1.4961,0,2.2016h-0.4561
			c-0.0068,0.2344,0.2285,0.2261,0.4561,0.2281c-0.0586,0.2856,0.0918,0.3632,0.0751,0.6074
			c-0.2255,0.1528-0.7158,0.0425-1.062,0.0752C59.97459,57.98631,60.31349,57.20511,60.22849,56.37791z M59.54589,54.78421
			c0.0884-0.0127,0.1338,0.0161,0.1514,0.0762c0.1792,0.2529,0.00971,0.68259-0.0757,0.91059
			C59.44779,55.59231,59.59469,55.08941,59.54589,54.78421z M59.69779,56.606c-0.1324-0.06939-0.1685-0.23689-0.1519-0.45559
			C59.67819,56.22071,59.71339,56.38821,59.69779,56.606z M59.69779,57.97271c-0.0582,0.1386-0.0816-0.045-0.0757-0.1524
			C59.68019,57.68211,59.70309,57.86621,59.69779,57.97271z M59.54589,58.20121c0.1748-0.0244,0.084,0.2187,0.2275,0.227
			c-0.0088,0.1929-0.2832,0.1792-0.3798,0.0767C59.43309,58.39261,59.50679,58.31251,59.54589,58.20121z M57.19239,56.98541
			c0.0058-0.108,0.0127-0.21441-0.0762-0.2281c-0.0727-0.7329,0.1299-1.4145,0-1.9731c0.25-0.1548,0.7686-0.0415,1.1387-0.0767
			v1.1387c-0.08789,0.0644-0.2031,0.1011-0.37889,0.0767c-0.05421,0.2802,0.32369,0.1313,0.37889,0.3037
			c0.0078,0.8525-0.0557,1.7773,0.1523,2.4287c-0.5654-0.0586-0.90619,0.1069-1.4424,0.0761
			c0.0967-0.6123-0.0185-1.4345,0.5308-1.5937C57.48439,56.99661,57.23879,57.09081,57.19239,56.98541z M56.66109,56.98541
			c-0.20409,0.0209-0.2168-0.5342-0.0771-0.6075C56.91209,56.38431,56.833,56.87891,56.66109,56.98541z M56.50879,57.97271
			c0.0771-0.3116,0.0337-0.3038,0.07521-0.68271C56.81249,57.30271,56.84419,58.05961,56.50879,57.97271z M56.73679,55.92291
			c-0.2632,0.0537-0.2729-0.2662-0.15279-0.37991C56.84669,55.48971,56.856,55.80961,56.73679,55.92291z M56.73679,54.78421
			c0.0327,0.1587-0.0517,0.2007-0.0757,0.3042c-0.1757,0.0229-0.0844-0.2193-0.2285-0.2285
			C56.457,54.75681,56.623,54.79691,56.73679,54.78421z M56.50879,58.50491c0.1484-0.0308,0.1103,0.3447-0.0762,0.227
			C56.47269,58.67041,56.51169,58.60841,56.50879,58.50491z M55.82519,54.78421c0.02881,0.2593-0.4385,0.3203-0.3789,0H55.82519z
			 M54.83839,54.86041c-0.0337,0.2187-0.3257,0.1792-0.3789,0.3789C54.24509,55.06931,54.543,54.77151,54.83839,54.86041z
			 M54.38279,55.61911c0.2256-0.205,0.4507-0.41011,0.6836-0.6074c-0.0215-0.1225,0.0713-0.1308,0.0762-0.2275h0.2285
			c0.1016,0.38079-0.2607,0.2959-0.3047,0.5312c0.021,0.1221-0.0723,0.1309-0.0752,0.2271
			c0.0195,0.3354,0.1211,0.5879,0.0752,0.9878c-0.27,0.0078-0.2759,0.2802-0.60739,0.227
			C54.48239,56.32911,54.32519,56.083,54.38279,55.61911z M54.459,58.88381V57.29c0.19529-0.18449,0.396-0.36419,0.60739-0.53219
			c0.2949,0.4893,0.1787,1.3916,0.4551,1.8975C55.24609,58.81151,54.77049,58.76561,54.459,58.88381z M72.6797,69.96781
			c-0.10941,0.9541-0.1582,1.9677-0.37891,2.8086c-2.88969,0.12299-6.01949,0.0048-8.88279,0.1533
			c-0.19921,0.0449-0.27351-0.0313-0.22851-0.2285c-0.253,0-0.2579,0.247-0.5313,0.2285c0.2012-0.336,0.4375-0.8985,0.1514-1.291
			c-0.7969,0.0127-0.7969,0.82129-1.1377,1.291c-0.6856-0.05271-1.1367,0.1269-1.8228,0.0752
			c0.1802-0.7051,0.7495-1.0215,0.9107-1.7451c-0.3946-0.54981-0.9893,0.1377-1.2139,0.455
			c-0.2036,0.4805-0.5566,0.80959-0.7598,1.2901h-0.9863c0.2383-0.4688,0.4893-0.9258,0.7588-1.3662
			c0.1709-0.51171,0.625-0.7412,0.6826-1.3672c-0.15719-0.2803-0.4199-0.0293-0.6826,0c-0.1231,0.1816-0.2725,0.3349-0.3799,0.5312
			c-0.2324,0.376-0.501,0.7139-0.6836,1.1397c-0.1806,0.208-0.3349,0.0029-0.5303,0.22649
			c-0.3886,0.2715-0.5805,0.7364-0.9882,0.9873c-0.1739-0.0595,0.039-0.3564,0.1533-0.3798
			c0.0454-0.1807-0.0962-0.5498,0.0752-0.60751c0.0635-0.3662,0.21191-0.6474,0.37891-0.9101
			c0.11909-0.7422,0.52149-1.1992,0.68409-1.8984c-0.55909,0.09859-0.6743,0.64249-0.9878,0.9873
			c-0.2124,0.44529-0.542,0.7724-0.6826,1.291c-0.1744-0.1309-0.0284-0.5801-0.0762-0.836
			c0.1221-0.5859,0.2983-1.1191,0.3799-1.7461c0.1328-0.2197,0.1728-0.5351,0.228-0.8339c0.1685-0.209,0.0464-0.6104-0.0767-0.7608
			c-0.2256,0.0274-0.374,0.1328-0.455,0.3037c-0.1919-0.0322-0.1934,0.5059-0.3038,0.3037
			c-0.04489-2.58691-0.4511-4.8125-0.456-7.4384c0.0264-0.3306-0.1826-0.4244-0.2275-0.6846
			c1.6289,0.0283,3.121,0.0908,4.7832,0.2285c-0.0889,0.1387-0.1993,0.2568-0.3042,0.3789
			c-0.1441,0.07029-0.2256,0.1729-0.3785,0.3037c-0.6045,1.6533-0.9751,3.9844-0.6074,6.1504
			c0.22851,0.5801,0.5894,1.0293,0.9863,1.4414c0.9068,0.4854,1.6348,1.1494,2.5059,1.6709c1.7012,0.3613,3.8398,0.3692,5.541,0
			c0.23631-0.12011,0.4844-0.2256,0.68459-0.3799c1.3642-1.24221,2.75291-2.459,2.96091-4.8593v-1.3672
			c-0.1972-1.59771-0.6884-2.9053-1.747-3.6436c0.331-0.2197,1.09859,0.0435,1.6699,0.0762c0.2226,0.0132,0.4472,0.01369,0.6836,0
			c0.4082-0.0239,0.9277-0.0552,1.44331,0c0.14359,0.1865,0.11329,0.5439,0.22759,0.7598
			c-0.06159,1.6835-0.1924,3.2998-0.1524,5.08689c0.1026,0.45411,0.127,0.98631,0.22849,1.44141
			C73.04589,68.209,72.90039,69.126,72.6797,69.96781z M73.05859,58.80761c-0.6387-0.1201-1.2324-0.2842-1.8975-0.3789
			c0.0723-0.3335,0.7989-0.0102,0.9873-0.2275c0.3848-0.2227,0.295-0.9204,0.3037-1.5186
			c0.0323-0.34761,0.1143-0.6435,0.07619-1.0635c-0.40129-0.95111-1.7832-0.4209-2.8857-0.455
			c-0.22459,0.7177-0.4697,1.7998-0.3037,2.6567c0.1689,0.4897,1.0244,0.2925,1.5185,0.4561
			c-0.1396,0.3315-0.6885,0.05709-0.9873,0.0756c-0.2959-0.083-0.707-0.0517-0.98631-0.1513
			c-2.28519,0.0776-4.28419,0.0039-6.5293,0.1513c0.1172-1.24751,0.06351-2.4648-0.0762-3.64451h3.1123
			c-0.3437,0.36431-0.9121,0.50681-1.29,0.835c-0.4404,0.24411-0.8613,0.50531-1.1387,0.91111
			c0.249,0.1338,0.5352-0.24511,0.7588-0.3789c0.3555-0.07421,0.4795-0.3809,0.835-0.4551
			c0.4228-0.4385,1.0957-0.6255,1.6699-0.91211c0.3779-0.02249,0.6973,0.01321,0.9873,0.07671
			c1.2832,0.00729,2.456,0.1264,3.7959,0.0757c0.61421,0.145,1.45021,0.0693,1.9736,0.3037
			c0.1074,0.2978,0.2315,0.5791,0.3047,0.9111C73.29689,57.07131,73.1396,57.90141,73.05859,58.80761z M67.21389,55.08841
			C67.3242,55.04051,67.20509,54.99611,67.21389,55.08841L67.21389,55.08841z M67.21389,55.08841
			c-0.5293,0.1538-1.0186,0.3481-1.3672,0.6821C66.33109,55.57231,66.9063,55.46441,67.21389,55.08841z M68.27639,55.69531
			C68.3867,55.64791,68.26859,55.60351,68.27639,55.69531L68.27639,55.69531z M66.5303,56.606
			c0.72649-0.15779,1.1806-0.59089,1.74609-0.91069c-0.4366,0.0186-0.5918,0.3198-0.9873,0.3789
			C67.0742,56.29051,66.68949,56.33451,66.5303,56.606z M65.84669,55.77051C65.73629,55.81791,65.85349,55.86281,65.84669,55.77051
			L65.84669,55.77051z M65.16409,56.37791C65.27439,56.332,65.1563,56.28611,65.16409,56.37791L65.16409,56.37791z
			 M65.08889,56.45411c0.0634,0.0142,0.0703-0.0303,0.0752-0.0762C65.09959,56.36431,65.09179,56.40821,65.08889,56.45411z
			 M65.0117,56.53031c0.0645,0.0136,0.0723-0.0298,0.07719-0.0762C65.02249,56.44091,65.01659,56.48341,65.0117,56.53031z
			 M64.1777,57.13771c0.3457-0.1338,0.6133-0.34771,0.834-0.6074C64.66409,56.66411,64.39749,56.87791,64.1777,57.13771z
			 M66.45409,58.125c0.5332-0.04879,0.749-0.416,1.2148-0.53129c0.2842-0.2983,0.7842-0.3808,0.9874-0.75971
			c-0.5596,0.02291-0.7657,0.39941-1.2159,0.53121C67.1563,57.66161,66.68949,57.77831,66.45409,58.125z M64.1777,57.13771
			C63.86129,57.06451,64.16209,57.36521,64.1777,57.13771L64.1777,57.13771z M63.64449,57.51711
			c0.02151,0.0215,0.1153-0.0366,0.0762-0.0767C63.70019,57.41991,63.60549,57.47751,63.64449,57.51711z M66.45409,58.125
			C66.3438,58.17191,66.46089,58.21631,66.45409,58.125L66.45409,58.125z M65.31449,59.94631
			c-0.2227-0.2315-0.6758-0.2334-0.9864-0.3789c-0.6972-0.0381-1.2226,0.0928-1.74609,0.2285
			c-0.30371,0.1509-0.60741,0.3037-0.91011,0.4536c-0.2656,0.16549-0.4444,0.41749-0.7598,0.5317
			c-0.20509,0.2247-0.3516,0.50979-0.6836,0.6075c-0.0039,0.2226-0.1728,0.2812-0.3037,0.3789
			c-0.0894,0.1152-0.0942,0.3115-0.227,0.3808c-0.0069,0.1202,0.0356,0.2901-0.0757,0.3028
			c0.1084,1.5117,0.291,2.9482,0.6831,4.1767c0.2866,0.62309,0.9751,0.8457,1.4419,1.29009
			c0.5888,0.29681,1.3281,0.44431,2.12591,0.53121c0.27739-0.0517,0.55279-0.1055,0.91119-0.07621
			c1.209-0.20889,2.0976-0.73629,2.8096-1.44139c0.09959-0.2812,0.2519-0.5078,0.45499-0.68361
			c-0.2539-0.67089,0.293-1.09759,0.4551-1.59569c0.002-1.3437-0.20119-2.4804-0.6074-3.415
			c-0.2559-0.5791-0.9199-0.7515-1.3662-1.1387c-0.0586-0.0175-0.15041-0.0029-0.15141-0.07661
			C66.11039,59.89161,65.64649,59.78911,65.31449,59.94631z M61.89939,64.27341c-0.1133-0.06341-0.10939-0.24409-0.1523-0.37889
			C62.00289,63.81641,61.86519,64.13091,61.89939,64.27341z M61.97459,64.57811c0.041-0.1172,0.0791-0.0058,0.0762,0.0752
			C62.01069,64.77051,61.97169,64.65821,61.97459,64.57811z M62.43069,62.52731c0.0146-0.0859,0.0752-0.0419,0.0752,0
			C62.49219,62.61431,62.43069,62.57031,62.43069,62.52731z M64.10059,60.40231c-0.2031,0.2579,0.041,0.5762,0.0771,0.836
			C63.873,61.19921,63.60449,60.35061,64.10059,60.40231z M64.48049,64.34961c-0.0401-0.0381,0.0547-0.0967,0.0761-0.0762
			C64.5957,64.31251,64.502,64.37111,64.48049,64.34961z M65.2393,67.23441c0.0341-0.10941,0.0664,0.0078,0.1523,0
			C65.373,67.33111,65.2412,67.31051,65.2393,67.23441z M67.44039,64.65331c-0.23339-0.0566-0.1445,0.208-0.3789,0.1524
			c0.0694-0.1592,0.1182-0.3379,0.22851-0.4551C67.42379,64.36911,67.46189,64.48051,67.44039,64.65331z M66.3027,60.85741
			c0.211,0.1192,0.4414,0.2168,0.6065,0.3809c0.0849,0.21869,0.2431,0.3633,0.3799,0.5293
			c0.0576,0.7783,0.1787,1.4922,0.1513,2.3535c-0.2568,0.0986-0.43839,0.2705-0.6826,0.38089
			c-0.7803-0.00589-1.3584-0.212-1.8974-0.45609c-0.1709-0.2588-0.3555-0.50491-0.5323-0.7588v-1.0625
			c0.16991-0.18461,0.3194-0.39061,0.4561-0.6074c0.2275-0.127,0.5078-0.20121,0.45409-0.6074
			c-0.03809-0.0616-0.07809-0.1241-0.0752-0.2286c0.1582,0.045,0.2451,0.1592,0.37891,0.2286
			C65.8652,61.02831,65.9521,60.81051,66.3027,60.85741z"/> </g> </g> 
    </symbol>
    <symbol id="icon_footer-twitter" viewBox="51.99999 53.85551 24 20">
       <g id="twitter"> <g> <path d="M75.58471,57.91772c-0.22425-0.3624-0.89977-0.27452-1.39271-0.36725h-1.10076
			c0.14013-0.34895,0.33924-0.6398,0.51421-0.95342c0.05502-0.43346,0.25127-0.72628,0.22029-1.24672
			c0.12756-0.16478,0.17398-0.41218,0.29283-0.58656c0.10243-0.1426,0.23969-0.47215,0.07343-0.6596
			c-0.05026-0.2185-0.29184-0.24601-0.58656-0.21989c-0.08698,0.03572-0.16724,0.07779-0.2194,0.14637
			c-0.44365,0.42861-0.77023,1.00319-1.24773,1.3931c-0.00871,0.00821-0.06086-0.00041-0.07343,0
			c-0.086,0.00485-0.03285,0.04592-0.07442,0.07353c-0.14498,0.09659-0.25414,0.15071-0.36527,0.22029
			c-0.28126,0.17447-0.54123,0.44019-0.88136,0.51323c-0.52382-0.20921-1.14432-0.32232-1.83241-0.36626
			c-1.1452,0.10094-2.27882,0.21307-3.0066,0.73302c-0.90165,0.34597-1.46129,1.0312-2.12711,1.61349
			c-0.04829,0.31698-0.33826,0.39377-0.36626,0.73302c-0.00485,0.04492-0.01158,0.08699-0.07253,0.07343
			c0.04256,0.2382-0.05018,0.34113-0.07344,0.51322c-0.00099,0.13142,0.19714,0.42663,0,0.51411
			c-0.81377-0.11836-1.4699-0.62338-2.12711-0.95392c-0.71036-0.35655-1.45308-0.59723-2.05269-1.09927
			c-0.70838-0.31896-1.24673-0.80793-1.75986-1.32017c-0.20584-0.30827-0.53638-0.49046-0.66058-0.88087
			c-0.37497-0.16241-0.17348-0.90274-0.73302-0.87949c-0.31223-0.04255-0.34122,0.19714-0.43979,0.36626
			c-0.06956,0.22425-0.35755,0.22999-0.36725,0.51322c-0.00386,0.04541-0.01059,0.08738-0.07342,0.07432
			c-0.16815,1.07761-0.52184,1.97105-0.51313,3.22599c0.12756,0.41081,0.34598,0.73066,0.58656,1.02685
			c-0.41357,0.05027-0.70838,0.2199-0.88037,0.51372c-0.05898,1.06207,0.37398,1.63032,0.73401,2.27299
			c0.13291,0.37982,0.34785,0.6775,0.58665,0.95292c0.01682,0.22712,0.20386,0.28511,0.29273,0.44068
			c0.01841,0.10441,0.12133,0.1237,0.14745,0.22039c-0.03968,0.10441,0.28551,0.17783,0.07244,0.21841
			c-0.40881,0.12953-1.00555,0.06957-1.24624,0.36725c-0.10817,0.27641-0.10817,0.82436,0,1.09978
			c0.03335,0.23484,0.27937,0.25899,0.29333,0.51322c0.49393,0.41267,1.07038,0.73926,1.61399,1.10077
			c0.56824,0.16428,1.19884,0.26769,1.83279,0.36626c-0.10094,0.33924-0.3344,0.54508-0.58655,0.73351
			c-0.77172,0.37695-1.82953,0.46869-2.71377,0.73252c-0.54943,0.0377-0.94569,0.22811-1.53957,0.22039
			c-0.32904,0.12559-0.84464,0.07442-1.10027,0.22029c-0.12034,0.0677-0.10055,0.0948-0.2199,0.21851
			c-0.13281,0.40784,0.10975,0.73254,0.4393,0.88039c-0.00485,0.25027,0.21643,0.27352,0.36725,0.36725
			c0.08788,0.18071,0.25127,0.28699,0.44019,0.36626c0.53875,0.46295,1.25446,0.75093,1.90682,1.10077
			c0.8209,0.1807,1.63131,0.3721,2.49337,0.51322c0.88671,0.11499,1.88119,0.12271,2.7867,0.2194h0.95292
			c0.50541,0.13043,1.21774,0.05315,1.83329,0.07343c0.09381-0.10056,0.31895-0.07254,0.51322-0.07343
			c0.51698-0.26582,1.18389-0.38081,1.61389-0.73262c0.56834-0.2387,0.97904-0.63495,1.54057-0.88038
			c0.85721-0.75677,1.91641-1.31057,2.49238-2.3475c0.20297-0.18754,0.34696-0.43395,0.44078-0.73253
			c0.26186-0.15468,0.38071-0.44939,0.58656-0.66008c0.40011-0.40596,0.69878-0.91432,1.02634-1.39361
			c0.31609-0.49094,0.57022-1.04276,0.88047-1.53956c-0.0097-0.40111,0.30244-0.47938,0.29284-0.88038
			c0.19129-0.22326,0.17487-0.65533,0.36725-0.87949c-0.03285-0.25225,0.029-0.41079,0.07343-0.58763
			c0.04641-1.26793-0.04642-2.39669-0.29382-3.37188c0.5818-0.15318,1.16846-0.29866,1.61399-0.58714
			C75.29961,58.98128,75.7673,58.5884,75.58471,57.91772z M72.21185,61.95067c-0.15181,0.85038-0.60892,1.39548-1.02734,1.98015
			c0.05799,0.37497-0.10243,0.53252-0.07254,0.87948c-0.15656,0.30927-0.28413,0.64564-0.36726,1.02635
			c-0.20099,0.26382-0.32855,0.60021-0.51312,0.88047c-0.3624,0.54212-0.76934,1.03991-1.17331,1.54046
			c-0.37398,0.5538-0.90264,0.9549-1.32017,1.46614c-0.41554,0.48798-0.93252,0.87553-1.39261,1.32007
			c-0.46869,0.16824-0.88037,0.39239-1.24664,0.66009c-0.23009,0.08895-0.4581,0.17783-0.66008,0.29282
			c-0.17497,0.144-0.49393,0.14311-0.66108,0.29383c-1.07464,0.14597-2.27596,0.16814-3.51834,0.14687
			c-1.02001-0.10431-2.09277-0.15746-3.00749-0.36726c-0.91283-0.18743-1.49563-0.70451-2.27308-1.02634
			c0.15121-0.2396,0.62772-0.1527,0.95341-0.2193c0.03038-0.16438,0.38942-0.00298,0.4392-0.14796
			c0.25463,0.05899,0.28224-0.10815,0.51412-0.07243c0.55765-0.19912,1.21773-0.29868,1.68692-0.58667
			c0.27888-0.13626,0.40159-0.42909,0.65959-0.58654c0.03286-0.18754,0.10243-0.33736,0.2194-0.43979
			c0.04691-0.27254,0.19912-0.43683,0.14686-0.80695c0.11024-0.20782,0.2963-0.33925,0.29333-0.66009
			c-0.07343-0.14598-0.12707-0.31312-0.29333-0.36725c-0.02553-0.19427-0.37349-0.06671-0.43969-0.21941
			c-0.25225,0.03196-0.41169-0.02899-0.58665-0.07442c-0.1522-0.04246-0.48175,0.09085-0.51312-0.07244
			c-0.83307-0.02316-1.28632-0.42525-1.83379-0.73253c0.42614-0.25908,1.0215-0.34894,1.31967-0.7345
			c0.51075-0.07541,1.04663-0.12757,1.10077-0.65909c0-0.70937-0.76301-0.65434-1.31968-0.80704
			c-0.76548-0.65326-1.18201-1.65456-1.76035-2.49338c0.23573-0.15557,0.55855-0.22326,0.73302-0.43969
			c0.44939,0.057,0.5344-0.24839,0.66008-0.51422c0.01831-0.48273-0.32915-0.59911-0.58664-0.80644
			c-0.25613-0.20832-0.47018-0.45761-0.66008-0.73302c-0.00288-0.80993-0.02129-1.63477,0.07342-2.34701
			c0.06235-0.01356,0.06957,0.0285,0.07294,0.07342c0.22425,0.43684,0.55331,0.76688,0.80704,1.17322
			c0.52618,0.35378,0.9157,0.84426,1.53996,1.10037c0.44751,0.40831,1.09691,0.61466,1.54056,1.02683
			c0.59437,0.26038,1.14619,0.5639,1.68643,0.87989c0.66196,0.19238,1.04465,0.66591,1.98025,0.58665
			c0.19614-0.09669,0.38942-0.19713,0.58656-0.29383c0.25512-0.45127-0.058-1.06741,0.14597-1.61348
			c0.25226-0.65178,0.78864-1.02001,1.24673-1.46604c0.28699-0.1532,0.54885-0.33202,0.80695-0.51362
			c0.34311-0.09669,0.6678-0.21366,0.9538-0.36676c0.3721-0.0189,0.70551-0.0764,1.02645-0.14647h1.24664
			c0.24167,0.05166,0.46969,0.11787,0.73262,0.14647c0.20673,0.13578,0.37586,0.30966,0.6591,0.36676
			c0.78082,0.68611,1.25732,1.6782,1.39459,3.00699C72.09003,60.96391,72.26302,61.34947,72.21185,61.95067z M72.50468,56.37717
			c-0.12766,0.33687-0.22811,0.69977-0.58665,0.80704c-0.01643-0.10441-0.12084-0.12371-0.14598-0.2199
			c-0.01157-0.20733,0.20683-0.18367,0.29283-0.29333C72.2263,56.58736,72.30745,56.42556,72.50468,56.37717
			C72.49786,56.28879,72.61186,56.33174,72.50468,56.37717z M67.07814,59.38376c0.16131,0.1334,0.28115,0.30639,0.51312,0.36724
			c0.09956,0.21843,0.31124,0.32382,0.58765,0.36628c0.04631-0.14884,0.34211-0.04829,0.36626-0.21981
			c0.172-0.02276,0.16428-0.22662,0.29283-0.29381c-0.01742-0.5441-0.12756-0.99596-0.36626-1.31968
			C67.72169,57.86547,66.81332,58.32308,67.07814,59.38376z"/> </g> </g> 
    </symbol>
    <symbol id="icon_form-email" viewBox="0 0 32 32">
       <path id="mail" d="M28,5H4C1.791,5,0,6.792,0,9v13c0,2.209,1.791,4,4,4h24c2.209,0,4-1.791,4-4V9
	C32,6.792,30.209,5,28,5z M2,10.25l6.999,5.25L2,20.75V10.25z M30,22c0,1.10351-0.89841,2-2,2H4c-1.103,0-2-0.89649-2-2l7.832-5.875
	l4.36819,3.27731c0.5327,0.3975,1.166,0.59969,1.79981,0.59969c0.63279,0,1.26559-0.20119,1.79879-0.59969L22.168,16.125L30,22
	L30,22z M30,20.75l-7-5.25l7-5.25V20.75z M17.19919,18.60161C16.84959,18.86431,16.436,19.002,16,19.002
	c-0.436,0-0.85111-0.13869-1.20021-0.40039L10.665,15.5l-0.833-0.625L2,9.001V9c0-1.103,0.897-2,2-2h24c1.10159,0,2,0.897,2,2
	L17.19919,18.60161z"/> 
    </symbol>
    <symbol id="icon_form-tel" viewBox="0.41429 0.16626 24 24">
       <g> <g id="UrwUhy_2_"> <g> <path d="M17.15708,23.92644c-0.35872,0-0.71936,0-1.07807,0c-4.74014-0.56073-8.21302-2.76202-10.73948-5.57973
				c-2.53458-2.82534-4.53675-6.46197-4.92524-11.35125c0-0.43749,0-0.87557,0-1.31258
				C0.50216,4.79272,0.94014,4.18481,1.44558,3.6665c0.62821-0.64377,1.5755-1.4711,2.43782-1.50136
				c0.6372-0.02127,1.72088,0.43614,2.1575,1.03032c0.37515,0.5126,0.57533,1.53732,0.74942,2.29911
				C6.96877,6.26479,7.37002,7.37921,7.25905,8.1207c-0.17042,1.15589-1.70532,1.64626-2.15654,2.48586
				c1.49904,3.597,3.95243,6.24013,7.22232,8.06667c0.81844-0.44929,1.54158-1.80198,2.67426-1.82846
				c0.41352-0.01131,0.93927,0.20202,1.35936,0.32855c0.4606,0.13784,0.86088,0.31531,1.26676,0.46823
				c0.68157,0.25673,1.89178,0.60037,2.29863,1.17241c0.41816,0.58994,0.65788,1.55473,0.56161,2.15693
				C20.2986,22.16313,18.33318,23.48653,17.15708,23.92644z"/> </g> </g> <path d="M12.52502,1.88289c5.75064,0,10.41102,4.66135,10.41102,10.4115h1.47826c0-6.56531-5.32213-11.88831-11.88927-11.88831
		V1.88289z"/> <path d="M12.52502,9.42188v1.50001c0.7589,0,1.37348,0.61497,1.37348,1.37251h1.50088
		C15.39937,10.70758,14.11367,9.42188,12.52502,9.42188z"/> <path d="M12.52502,6.44371c3.23307,0,5.85348,2.61955,5.85348,5.85165h1.5349c0-4.07886-3.30769-7.38558-7.38838-7.38558V6.44371z"/> </g> 
    </symbol>
    <symbol id="icon_logo-desktop" viewBox="0 0 150 74">
       <g id="Layer_2"> <g> <path d="M144.1395,32.04346c-1.481,1.055-3.05299,1.942-4.657,2.777c0.037-1.747-0.119-3.465-0.591-5.127
			c0.05099-0.333,0.10201-0.667,0.145-1.002c0.375-3.005,0.657-7.122-2.00301-9.224c-0.33501-0.265-1.24899-0.035-1.922,0.274
			c-0.157-0.151-0.32201-0.289-0.496-0.415c-0.082-0.242-0.159-0.487-0.229-0.735c-0.035-0.12-0.168-0.188-0.36-0.215
			c0.285-0.383,0.263-0.818-0.41901-1.092c-0.37801-0.152-0.759-0.287-1.14301-0.413c-0.067-0.072-0.12601-0.096-0.172-0.058
			c-0.00101,0.001-0.004,0.002-0.006,0.003c-0.938-0.3-1.89301-0.533-2.85899-0.705c0.138-0.331,0.396-0.813,0.552-1
			c0.132-0.157,0.27901-0.3,0.429-0.439c0.062-0.057,0.125-0.111,0.188-0.165c0.032-0.027,0.05299-0.046,0.069-0.061
			c0.02-0.014,0.04601-0.034,0.084-0.062c0.38-0.288,0.84599-0.865,0.22099-1.202c-0.57001-0.307-1.507-0.142-2.007,0.238
			c-0.86299,0.655-1.626,1.379-2.092,2.361c-2.01-0.169-4.05-0.155-6.079-0.078c0.062-0.076,0.112-0.158,0.141-0.25
			c0.184-0.585-0.908-0.525-1.188-0.488c-1.562,0.205-3.125,0.407-4.688,0.604c1.367-3.773,3.083-8.578,1.001-12.264
			c-1.19-2.106-3.906-2.579-6.098-2.652c-2.436-0.081-4.898,0.461-7.036,1.636c-4.762,2.618-7.11,7.71-8.21,13.138
			c-0.497-0.657-2.301-0.425-2.645,0.468c-0.124,0.32-0.229,0.645-0.327,0.972c-0.16,0.174-0.282,0.386-0.345,0.637
			c-0.015,0.056-0.027,0.111-0.041,0.167c-0.065,0.002-0.131,0.005-0.196,0.007c0.02-0.104,0.041-0.207,0.064-0.31
			c0.146-0.109,0.247-0.232,0.28-0.366c0.574-2.296,1.156-4.588,1.948-6.82c0.269-0.756-2.511-0.399-2.804,0.426
			c-0.424,1.193-0.786,2.403-1.12,3.622c-0.165,0.078-0.356,0.187-0.425,0.326c-0.017,0.034-0.031,0.07-0.047,0.104
			c-0.107-0.093-0.271-0.151-0.466-0.178c0-0.319,0-0.639,0-0.959c0-0.432-2.823-0.034-2.823,0.757c0,0.522,0,1.046,0,1.568
			c-0.167,0.072-0.327,0.158-0.472,0.266c-0.063,0.057-0.127,0.114-0.19,0.172c-0.073,0.071-0.113,0.152-0.12,0.245
			c-0.007,0.026-0.013,0.053-0.023,0.078c-0.017,0.022-0.032,0.046-0.052,0.066c-0.126,0.128-0.184,0.335-0.027,0.467
			c0.19,0.16,0.508,0.167,0.738,0.159c0.048-0.002,0.097-0.007,0.146-0.011c0,0.156,0,0.312,0,0.468
			c-0.226-0.001-0.45-0.003-0.675-0.006l-0.411-0.051c-0.021-0.385-0.676-0.452-1.351-0.328c0.006-0.049,0.007-0.098-0.001-0.148
			c-0.101-0.595-0.174-1.192-0.229-1.79c0.237-0.079,0.471-0.18,0.68-0.313c0.159-0.102,0.328-0.224,0.328-0.43
			c0-0.064,0-0.13,0-0.194c0-0.18-0.412-0.204-0.499-0.208c-0.195-0.009-0.394,0.009-0.589,0.041
			c-0.075-1.305-0.081-2.615-0.081-3.925c0-0.84-2.824-0.315-2.823,0.757c0,1.786,0.009,3.57,0.193,5.343
			c-0.087-0.002-0.178,0.001-0.27,0.009c0-0.511,0-1.021,0-1.532c0-1.045-1.297-1.22-2.147-0.809
			c0.313-0.262,0.489-0.622,0.37-1.039c-0.403-1.414-0.778-2.827-0.974-4.287c-0.188-1.394-3.017-0.677-2.824,0.756
			c0.196,1.46,0.57,2.873,0.975,4.287c0.235,0.828,1.338,0.889,2.104,0.51c-0.227,0.196-0.373,0.452-0.373,0.76
			c0,0.21,0,0.42,0,0.63c-0.189-0.098-0.439-0.16-0.77-0.16c-1.057,0-1.671,0.885-1.4,1.477c-0.164-0.027-0.327-0.054-0.491-0.083
			c-0.382-1.248-0.686-2.514-0.714-3.83c-0.02-0.942-1.27-1.049-2.108-0.672c-0.008-0.056-0.022-0.111-0.049-0.168
			c-0.385-0.804-0.567-1.674-0.78-2.533c-0.332-1.35-3.158-0.601-2.823,0.756c0.157,0.638,0.3,1.281,0.519,1.898
			c-0.018,0.005-0.039,0.009-0.056,0.014c-0.3,0.081-0.601,0.205-0.854,0.387c-0.832,0.079-1.828,0.565-1.752,1.208
			c0.058,0.478,0.131,0.953,0.209,1.427c-0.546,0.091-1.092,0.177-1.639,0.26c-0.289-0.787-0.499-1.601-0.618-2.443
			c-0.131-0.924-1.555-0.854-2.332-0.26c-0.774-2.062-1.796-4.019-3.122-5.761c-2.621-3.439-7.097-4.613-11.242-3.794
			c-1.9,0.376-3.735,1.184-5.043,2.646c-1.21,1.353-1.352,3.089-1.17,4.805c0.158,1.493,0.61,4.005,1.584,5.976
			c-0.35-0.012-0.709,0.041-0.949,0.139c-0.283,0.117-0.561,0.248-0.833,0.388c-1.939,0.029-3.877,0.019-5.803-0.07
			c-4.179-0.194-8.301-0.86-12.497-0.742c-0.923,0.026-1.534,0.719-1.465,1.262c-1.046,0.502-1.733,1.315-2.143,2.287
			c-1.732-1.15-3.479-2.266-5.335-3.211c-0.689-0.351-3.3,0.707-2.285,1.224c1.84,0.938,3.561,2.072,5.278,3.216
			c0.512,0.341,1.32,0.133,1.842-0.07c0.03-0.012,0.09-0.039,0.165-0.077c-0.306,1.44-0.157,3.067,0.241,4.493
			c0.03,0.11,0.093,0.198,0.172,0.27c-0.021,0.338-0.023,0.677-0.007,1.015c-0.001,0.055-0.001,0.109-0.002,0.165
			c-0.4,0.189-0.712,0.48-0.76,0.839c-0.188,1.411-0.278,2.82-0.305,4.229c-0.272,0.199-0.462,0.469-0.485,0.798
			c-0.233,3.345,0.037,6.652,0.467,9.95c0.185,2.694,0.69,5.344,1.172,7.999c0.058,0.416,0.113,0.832,0.167,1.249
			c-0.265,1.133-0.398,2.395-0.237,3.482c-0.881,0.171-1.729,0.866-1.233,1.617c0.765,1.158,1.644,2.018,2.606,2.649
			c-0.633-0.103-1.42,0.11-1.871,0.555c-0.818,0.809-1.715,1.531-2.533,2.339c-0.429,0.424-0.314,0.935,0.289,1.078
			c0.651,0.155,1.516-0.06,1.997-0.535c0.817-0.808,1.715-1.531,2.533-2.339c0.248-0.245,0.308-0.517,0.204-0.731
			c3.21,1.735,7.235,1.27,11.114,0.943c-0.882,1.589-1.542,3.273-2.17,4.997c-0.262,0.719,2.507,0.373,2.801-0.436
			c0.61-1.675,1.237-3.343,2.103-4.895c3.741,0.117,7.479,0.122,11.215,0.051c0.149,0.182,0.416,0.305,0.746,0.336
			c3.27,0.311,6.489-0.096,9.688-0.699c4.789-0.229,9.577-0.525,14.366-0.809c7.527-0.186,15.056-0.346,22.587-0.32
			c0.1,0.109,0.204,0.215,0.314,0.318c0.272,0.256,0.621,0.345,0.979,0.33c0.062,0.009,0.128,0.016,0.199,0.019
			c0.714,0.036,1.428,0.087,2.141,0.145c0.156,0.04,0.341,0.059,0.559,0.046c0.002,0,0.004,0,0.005,0
			c0.782,0.067,1.563,0.14,2.346,0.208c0.171,0.214,0.497,0.342,0.792,0.361c3.804,0.25,7.612,0.522,11.423,0.703
			c0.14,0.229,0.536,0.34,0.82,0.343c7.067,0.06,15.27799,2.804,21.55801-1.736c0.50101-0.362,0.27299-0.877-0.26401-0.984
			c-0.108-0.021-0.217-0.031-0.326-0.034c0.008-0.016,0.01801-0.03,0.02299-0.045c1.19501-2.769,2.174-5.633,2.94501-8.552
			c0.36501-0.198,0.632-0.494,0.646-0.86c0.049-1.189,0.188-2.406,0.371-3.639c0.166-0.884,0.313-1.771,0.44099-2.66
			c0.38699-2.169,0.806-4.367,1.01801-6.541c2.28-1.147,4.53799-2.335,6.62199-3.819
			C147.5365,32.06346,145.1875,31.29746,144.1395,32.04346z M88.8095,16.99746c-0.049,0.039-0.094,0.079-0.134,0.123
			c0.073-0.312,0.149-0.623,0.228-0.934c0.036,0.001,0.073,0.001,0.111,0C88.9465,16.45646,88.8765,16.72746,88.8095,16.99746z"/> <path d="M64.2355,13.27246c0.127,0.196,0.562,0.217,0.753,0.217c0.377,0.001,0.759-0.083,1.106-0.225
			c0.404-0.166,1.101-0.559,0.77-1.07c-0.363-0.562-0.609-1.19-0.975-1.754c-0.127-0.196-0.562-0.217-0.754-0.217
			c-0.376-0.001-0.758,0.083-1.105,0.226c-0.404,0.165-1.101,0.558-0.77,1.069C63.6235,12.08046,63.8705,12.70946,64.2355,13.27246z
			"/> <path d="M21.6575,11.55346c0.216,0.647,1.111,0.647,1.648,0.504c0.472-0.127,1.39-0.616,1.175-1.26
			c-0.208-0.624-0.433-1.293-0.893-1.78c-0.479-0.507-1.324-0.417-1.902-0.151c-0.412,0.19-1.177,0.838-0.695,1.349
			C21.3725,10.62046,21.4685,10.98746,21.6575,11.55346z"/> <path d="M31.6345,14.54146c0.843,0,3.073-1.276,1.186-1.276C31.9775,13.26546,29.7465,14.54146,31.6345,14.54146z"/> <path d="M123.5365,12.92046c0.346,0.072,0.717,0.032,1.055-0.059c0.321-0.086,0.7-0.234,0.941-0.477
			c0.355-0.355,0.728-0.729,0.962-1.178c0.104-0.198,0.174-0.399-0.005-0.587c-0.188-0.197-0.507-0.245-0.763-0.251
			c-0.376-0.01-0.761,0.074-1.106,0.22c-0.252,0.106-0.621,0.294-0.756,0.553c-0.098,0.186-0.218,0.353-0.351,0.513
			c-0.008,0.009-0.016,0.018-0.023,0.027c-0.011,0.012-0.021,0.023-0.028,0.032c-0.064,0.067-0.13,0.133-0.195,0.199
			c-0.158,0.158-0.346,0.365-0.279,0.614C123.05151,12.76746,123.3215,12.87546,123.5365,12.92046z"/> <path d="M136.83549,18.33846c0.631-0.061,1.395-0.246,1.894-0.662c1.319-1.102,2.603-2.248,3.623-3.642
			c0.28799-0.393-1.049-0.243-1.118-0.23c-0.534,0.099-1.31599,0.276-1.661,0.746c-0.94901,1.296-2.164,2.349-3.39101,3.374
			C135.68451,18.33946,136.6235,18.35846,136.83549,18.33846z"/> <path d="M147.71451,45.41546c-1.62399,0-3.248,0-4.87199,0c-0.616,0-1.47501,0.468-1.556,1.139
			c-0.09,0.739,0.754,0.922,1.304,0.922c1.62399,0,3.248,0,4.871,0c0.617,0,1.47501-0.468,1.55701-1.139
			C149.10851,45.59846,148.2645,45.41546,147.71451,45.41546z"/> <path d="M57.9955,61.43046c-0.498,0.08-1.412,0.296-1.639,0.831c-0.538,1.272-0.981,2.571-1.364,3.897
			c-0.211,0.733,2.571,0.333,2.798-0.451c0.383-1.327,0.825-2.625,1.363-3.897C59.3755,61.28346,58.1875,61.39846,57.9955,61.43046z
			"/> <path d="M62.5765,64.02146c-0.347-0.003-0.696,0.063-1.029,0.152s-0.67,0.207-0.968,0.383c-0.141,0.084-0.338,0.2-0.338,0.39001
			c-0.001,0.116-0.007,0.231-0.021,0.346c-0.025,0.103-0.06,0.2-0.125,0.286c0.004-0.004,0.008-0.009,0.012-0.014
			c-0.064,0.082-0.108,0.179,0.018,0.253c0.196,0.114,0.502,0.083,0.712,0.062c0.374-0.037,0.745-0.127,1.099-0.252
			c0.243-0.085,0.613-0.207,0.795-0.407c0.149-0.164,0.241-0.286,0.284-0.501c0.035-0.177,0.05-0.349,0.05-0.529
			C63.0645,64.02446,62.6435,64.02246,62.5765,64.02146z"/> <path d="M117.6265,67.69746c-0.354-0.686-3.043,0.331-2.823,0.757c0.844,1.638,1.939,3.122,2.923,4.677
			c0.436,0.689,3.04-0.414,2.823-0.757C119.5675,70.82047,118.4705,69.33546,117.6265,67.69746z"/> <path d="M121.71851,65.35946c-0.294-0.588-1.067-0.563-1.624-0.414c-0.35,0.094-1.485,0.598-1.199,1.17
			c0.39,0.78,0.779,1.559,1.169,2.339c0.294,0.588,1.068,0.562,1.624,0.414c0.35-0.094,1.486-0.598,1.199-1.171
			C122.49751,66.91847,122.10851,66.13946,121.71851,65.35946z"/> <path d="M6.6425,43.75146c-1.486,0.359-3.006,0.571-4.481,0.975c-0.537,0.146-1.342,0.641-1.16,1.318
			c0.181,0.675,1.128,0.709,1.664,0.562c1.476-0.403,2.995-0.615,4.482-0.975c0.541-0.13,1.338-0.651,1.16-1.318
			C8.1225,43.62846,7.1835,43.62146,6.6425,43.75146z"/> </g> </g> <g id="Layer_1_1_"> <g> <path fill="#FFFFFF" d="M44.7265,40.75246c-0.083-2.707-0.514-5.396-0.479-8.108c0.028-2.194,0.393-4.45-0.363-6.554
			c0.047-0.239,0.097-0.477,0.141-0.717c0.195-1.055-3.3-0.497-3.849,0.468c-0.346,0.283-0.523,0.621-0.377,0.965
			c0.037,0.087,0.069,0.175,0.102,0.263c-0.662,3.233-1.584,6.364-2.645,9.498c-0.406,1.199-0.896,2.37-1.31,3.565
			c-0.587-1.114-1.181-2.214-1.658-3.408c-1.386-3.464-2.636-6.965-4.326-10.299c0.192-1.543-3.232-1.381-3.907,0.032
			c-0.816,1.709-0.711,3.434-0.442,5.262c0.303,2.061,0.356,4.086,0.381,6.167c0.048,4.012,0.361,8.016,0.421,12.027
			c-0.357,0.397-0.466,0.889-0.092,1.388c0.163,0.217,0.365,0.385,0.576,0.554c0.913,0.73,3.533,0.108,3.528-1.283
			c-0.014-4.16-0.314-8.312-0.424-12.471c-0.011-0.407-0.018-0.814-0.024-1.222c0.058,0.146,0.115,0.293,0.173,0.438
			c0.646,1.618,1.322,3.191,2.205,4.696c0.876,1.491,1.315,3.092,1.819,4.719c-0.19,0.219-0.305,0.467-0.234,0.715
			c-0.04,0.181,0.071,0.294,0.253,0.363c0.645,0.552,1.858,0.277,2.532-0.007c0.29-0.122,0.566-0.263,0.834-0.427
			c0.348-0.215,0.891-0.686,0.735-1.17c-0.03-0.093-0.059-0.187-0.088-0.281c0.475-1.281,0.716-2.612,0.975-3.965
			c0.275-1.441,0.789-2.805,1.307-4.171c0.053,0.625,0.107,1.249,0.157,1.872c0.206,2.577,0.033,5.118,0.008,7.696
			c-0.009,0.854,0.054,1.648,0.221,2.484c0.068,0.345,0.37,1.824,0.283,1.904c-0.617,0.57-0.438,1.268,0.389,1.45
			c0.923,0.203,2.1-0.106,2.795-0.749c1.209-1.117,0.638-2.871,0.364-4.28C44.2475,45.80446,44.8005,43.15846,44.7265,40.75246z"/> <path fill="#FFFFFF" d="M53.1665,41.43446c-0.074-2.007-0.771-3.897-0.781-5.925c-0.011-2.327,0.183-4.635-0.156-6.949
			c-0.107-0.732-4.093,0.101-3.953,1.059c0.312,2.129,0.199,4.268,0.161,6.412c-0.037,2.063,0.472,3.934,0.737,5.958
			c0.271,2.073-0.085,4.195,0.15,6.271c0.11,0.971,0.758,2.768,0.09,3.612c-0.424,0.537,1.482,0.345,1.568,0.33
			c0.775-0.143,1.809-0.395,2.324-1.048c0.659-0.835,0.198-2.448,0.054-3.387C53.0405,45.68746,53.2455,43.53146,53.1665,41.43446z"/> <path fill="#FFFFFF" d="M69.6455,38.08446c-2.081-2.809-5.943-0.787-8.64-1.554c-1.39-0.396-1.407-2.292-1.403-3.428
			c0.004-1.439-0.115-2.757-0.276-4.184c-0.119-1.061-0.024-2.14,0.753-2.93c0.143-0.146,0.866-0.339,0.817-0.342
			c0.356-0.062,0.683-0.077,1.077-0.094c1.562-0.067,4.654,0.234,4.056,2.506c-0.269,1.019,3.629,0.435,3.913-0.643
			c1.224-4.64-7.352-3.749-9.774-3.106c-2.231,0.592-4.692,1.862-4.819,4.438c-0.062,1.23,0.274,2.401,0.328,3.62
			c0.061,1.403-0.2,2.802,0.291,4.155c1.092,3.01,5.57,1.59,7.849,1.761c3.88,0.29,2.722,5.519,2.772,7.955
			c0.027,1.3,1.192,3.461,0.213,4.549c-0.601,0.668-2,0.706-2.817,0.774c-0.821,0.069-2.221,0.315-2.768-0.465
			c-1.002-1.431,0.093-3.834-0.121-5.474c-0.122-0.933-4.104-0.096-3.953,1.059c0.346,2.651-1.412,6.2,2.424,6.655
			c2.464,0.293,5.238-0.162,7.568-0.936c1.207-0.4,2.328-0.951,3.272-1.81c1.045-0.949,0.701-2.369,0.421-3.579
			C70.1465,44.06846,71.5675,40.67846,69.6455,38.08446z"/> <path fill="#FFFFFF" d="M87.1295,37.89446c-0.122-3.812-0.696-7.582-0.711-11.4c-0.009-1.989-4-1.317-3.993,0.346
			c0.015,3.641,0.501,7.232,0.688,10.862c0.003,0.074,0.008,0.148,0.012,0.223c-1.967-0.018-3.934,0.179-5.905,0.248
			c0.203-4.675-0.617-9.311-0.438-13.983c0.022-0.587-3.909-0.091-3.953,1.059c-0.172,4.516,0.593,8.997,0.457,13.514
			c-0.064,2.155-0.247,4.303-0.262,6.46c-0.008,1.105,0.173,2.204,0.332,3.293c0.147,1.008,0.488,2.352,0.183,3.349
			c-0.238,0.779,3.594,0.293,3.897-0.701c0.55-1.794-0.224-4.076-0.408-5.892c-0.177-1.74-0.04-3.53,0.084-5.296
			c2.048-0.131,4.096-0.3,6.135-0.012c0.091,1.391,0.197,2.779,0.325,4.172c0.106,1.168,0.181,2.334,0.198,3.507
			c0.016,1.028,0.143,2.519-0.223,3.492c-0.78,2.075,3.179,1.906,3.757,0.368c0.71-1.887,0.507-4.237,0.386-6.22
			C87.53951,42.81546,87.2095,40.36346,87.1295,37.89446z"/> <path fill="#FFFFFF" d="M104.2165,42.40846c-0.948-2.783-2.395-5.224-3.649-7.868c1.01-1.967,2.036-3.935,2.959-5.942
			c0.838-1.824,1.459-3.854,3.107-5.139c0.579-0.451,0.555-0.904-0.258-0.96c-0.883-0.061-2.083,0.194-2.795,0.749
			c-1.498,1.168-2.448,2.587-3.229,4.307c-0.94,2.069-1.914,4.101-2.94,6.13c-0.074,0.149-0.15,0.298-0.226,0.448
			c-0.494,0.318-0.792,0.769-0.645,1.277c-0.798,1.578-1.614,3.146-2.521,4.653c-0.302-5.584-0.963-11.162-1.161-16.751
			c-0.045-1.281-4.007-0.484-3.953,1.059c0.246,6.93,1.23,13.845,1.299,20.775c-0.017,0.017-0.032,0.034-0.049,0.051
			c-0.303,0.311-0.191,0.498,0.053,0.606c0.002,1.767-0.06,3.534-0.211,5.303c-0.477,0.752,0.467,1.149,1.094,1.149
			c0.033,0,0.065,0,0.098,0c0.746,0,2.649-0.353,2.742-1.376c0.193-2.119,0.254-4.234,0.234-6.349
			c1.605-1.731,2.916-3.663,4.093-5.687c0.766,1.494,1.495,3,2.007,4.625c0.868,2.766,2.32,5.308,3.159,8.087
			c0.55,1.822,4.497,0.745,3.952-1.059C106.53751,47.71846,105.1515,45.15146,104.2165,42.40846z"/> <path fill="#FFFFFF" d="M127.9345,37.73146c-0.212-0.84-1.385-0.857-2.292-0.777c-0.013-0.338-0.021-0.677-0.036-1.016
			c-0.127-2.686-0.168-5.428-0.396-8.105c-0.211-2.479-1.599-3.368-4.008-3.276c-2.438,0.093-5.277,0.532-7.55,1.416
			c-2.632,1.023-4.096,2.961-4.601,5.733c-0.555,3.041,0.242,6.275,0.377,9.331c0.155,3.535,0.066,7.078,0.062,10.614
			c0,0.579,3.952,0.031,3.953-1.059c0.003-2.801,0.043-5.602,0-8.402c-0.014-0.826-0.052-1.647-0.104-2.466
			c1.382-0.599,3.721,0.013,5.097,0.143c1.117,0.105,2.188-0.167,3.273-0.294c0.021,2.333,0.108,4.678,0.204,7.008
			c0.049,1.194,0.481,3.563-0.356,4.552c-0.44,0.521,1.493,0.347,1.568,0.333c0.801-0.147,1.777-0.404,2.324-1.05
			c0.958-1.13,0.46-3.824,0.405-5.173c-0.079-1.928-0.103-3.859-0.143-5.789C126.8775,39.30246,128.1515,38.58946,127.9345,37.73146
			z M113.1825,37.57946c-0.104-1.257-0.219-2.513-0.306-3.777c-0.161-2.352,0.118-5.634,2.31-7.062
			c0.587-0.383,1.691-0.317,2.377-0.442c0.979-0.177,1.974-0.393,2.855,0.192c1.221,0.81,0.92,3.69,0.918,4.913
			c-0.002,2.024,0.21,4.038,0.313,6.058c-0.558,0.056-1.122,0.09-1.698,0.077
			C117.6445,37.48346,115.3675,37.12046,113.1825,37.57946z"/> <path fill="#FFFFFF" d="M49.7455,25.82246c0.526-0.051,1.055-0.229,1.49-0.529c0.087-0.073,0.173-0.146,0.26-0.219
			c0.524-0.338,0.979-0.834,0.734-1.373c-0.509-1.115-0.428-2.251-0.42-3.445c0.007-0.966-0.972-1.257-1.797-1.185
			c-0.729,0.064-2.188,0.586-2.194,1.534c-0.007,1.002-0.072,2.034,0.11,3.02c-0.049,0.113-0.075,0.241-0.105,0.358
			c-0.056,0.214,0.016,0.424,0.144,0.595c0,0.045,0.002,0.09,0.002,0.135c0.005,0.113,0.011,0.226,0.015,0.338
			c0.074,0.235,0.218,0.413,0.433,0.535C48.8075,25.82246,49.3015,25.86546,49.7455,25.82246z"/> </g> </g> 
    </symbol>
    <symbol id="icon_logo-footer" viewBox="0 0 102 34">
       <g> <path d="M19.3275,21.46696c-0.083-2.683-0.51-5.347-0.475-8.035c0.028-2.174,0.389-4.41-0.36-6.495
		c0.047-0.237,0.096-0.473,0.14-0.711c0.193-1.045-3.271-0.492-3.813,0.464c-0.343,0.28-0.519,0.615-0.375,0.957
		c0.037,0.086,0.069,0.174,0.102,0.261c-0.656,3.204-1.57,6.306-2.621,9.412c-0.402,1.188-0.888,2.349-1.298,3.533
		c-0.582-1.104-1.169-2.194-1.643-3.377c-1.374-3.433-2.612-6.902-4.287-10.206c0.19-1.528-3.204-1.368-3.873,0.032
		c-0.809,1.694-0.705,3.403-0.438,5.214c0.3,2.042,0.353,4.05,0.377,6.111c0.047,3.976,0.358,7.943,0.417,11.919
		c-0.354,0.395-0.461,0.881-0.091,1.375c0.162,0.216,0.361,0.382,0.571,0.549c0.904,0.724,3.5,0.107,3.496-1.271
		c-0.014-4.123-0.312-8.238-0.42-12.358c-0.011-0.404-0.018-0.807-0.024-1.21c0.057,0.145,0.114,0.29,0.171,0.434
		c0.64,1.604,1.31,3.163,2.185,4.654c0.868,1.478,1.303,3.064,1.803,4.677c-0.189,0.217-0.303,0.462-0.233,0.708
		c-0.039,0.18,0.07,0.292,0.251,0.36c0.639,0.548,1.841,0.274,2.509-0.007c0.287-0.121,0.561-0.261,0.826-0.424
		c0.345-0.212,0.883-0.679,0.729-1.159c-0.03-0.093-0.058-0.186-0.087-0.279c0.47-1.27,0.709-2.589,0.965-3.93
		c0.272-1.428,0.782-2.78,1.295-4.133c0.052,0.619,0.106,1.238,0.156,1.855c0.204,2.554,0.033,5.072,0.007,7.626
		c-0.008,0.847,0.054,1.633,0.219,2.461c0.068,0.343,0.367,1.808,0.281,1.887c-0.611,0.564-0.433,1.257,0.385,1.437
		c0.915,0.201,2.081-0.105,2.77-0.742c1.198-1.106,0.632-2.845,0.361-4.241C18.8535,26.47296,19.4005,23.85096,19.3275,21.46696z"/> <path d="M27.6915,22.14196c-0.074-1.988-0.765-3.862-0.774-5.872c-0.011-2.305,0.181-4.593-0.155-6.886
		c-0.106-0.725-4.056,0.1-3.917,1.05c0.309,2.11,0.197,4.229,0.159,6.354c-0.037,2.044,0.468,3.898,0.73,5.904
		c0.269,2.054-0.084,4.157,0.149,6.213c0.109,0.962,0.75,2.743,0.089,3.58c-0.42,0.532,1.469,0.342,1.553,0.326
		c0.769-0.142,1.793-0.392,2.304-1.038c0.653-0.828,0.196-2.426,0.053-3.357C27.5665,26.35696,27.7685,24.22096,27.6915,22.14196z"/> <path d="M44.0205,18.82296c-2.062-2.784-5.889-0.78-8.561-1.54c-1.377-0.392-1.395-2.271-1.392-3.396
		c0.004-1.426-0.114-2.732-0.273-4.146c-0.119-1.052-0.024-2.121,0.746-2.904c0.142-0.144,0.859-0.336,0.81-0.339
		c0.354-0.061,0.676-0.076,1.067-0.093c1.549-0.066,4.613,0.232,4.019,2.483c-0.266,1.01,3.596,0.431,3.877-0.637
		c1.213-4.598-7.284-3.714-9.686-3.078c-2.21,0.588-4.648,1.846-4.775,4.399c-0.061,1.219,0.273,2.379,0.325,3.587
		c0.061,1.39-0.198,2.776,0.289,4.118c1.082,2.982,5.52,1.576,7.778,1.745c3.845,0.287,2.697,5.469,2.748,7.883
		c0.027,1.288,1.181,3.429,0.211,4.507c-0.595,0.662-1.982,0.699-2.792,0.768c-0.813,0.068-2.201,0.312-2.742-0.461
		c-0.993-1.418,0.091-3.799-0.121-5.425c-0.121-0.924-4.066-0.095-3.917,1.05c0.342,2.627-1.399,6.145,2.402,6.596
		c2.441,0.289,5.191-0.161,7.5-0.928c1.196-0.396,2.307-0.942,3.243-1.793c1.035-0.941,0.694-2.348,0.417-3.547
		C44.5165,24.75396,45.9245,21.39296,44.0205,18.82296z"/> <path d="M61.3475,18.63396c-0.122-3.777-0.69-7.513-0.706-11.297c-0.008-1.971-3.963-1.305-3.957,0.343
		c0.015,3.608,0.497,7.167,0.682,10.764c0.004,0.074,0.008,0.147,0.013,0.221c-1.949-0.018-3.899,0.177-5.853,0.246
		c0.201-4.633-0.611-9.227-0.435-13.857c0.022-0.582-3.874-0.09-3.917,1.049c-0.171,4.475,0.587,8.915,0.453,13.392
		c-0.064,2.136-0.245,4.264-0.259,6.402c-0.007,1.095,0.171,2.183,0.329,3.263c0.146,0.999,0.484,2.331,0.182,3.318
		c-0.237,0.772,3.561,0.29,3.862-0.694c0.544-1.778-0.222-4.039-0.405-5.839c-0.175-1.725-0.039-3.499,0.083-5.248
		c2.03-0.13,4.059-0.297,6.08-0.012c0.09,1.378,0.196,2.754,0.322,4.134c0.105,1.157,0.179,2.313,0.196,3.475
		c0.015,1.019,0.142,2.496-0.221,3.461c-0.773,2.057,3.15,1.889,3.723,0.364c0.703-1.87,0.502-4.199,0.383-6.164
		C61.7545,23.51196,61.4255,21.08096,61.3475,18.63396z"/> <path d="M78.2795,23.10796c-0.939-2.758-2.373-5.177-3.616-7.797c1.00101-1.949,2.01801-3.898,2.93201-5.888
		c0.83099-1.808,1.446-3.819,3.08-5.092c0.57399-0.447,0.55-0.896-0.255-0.951c-0.875-0.061-2.064,0.192-2.76999,0.742
		c-1.485,1.158-2.427,2.563-3.201,4.268c-0.93199,2.051-1.896,4.063-2.914,6.075c-0.07399,0.147-0.149,0.295-0.224,0.443
		c-0.48999,0.315-0.785,0.762-0.63899,1.266c-0.79201,1.563-1.60001,3.117-2.49901,4.61c-0.299-5.534-0.955-11.061-1.14999-16.6
		c-0.045-1.27-3.971-0.479-3.917,1.049c0.243,6.868,1.21901,13.719,1.28601,20.587c-0.01601,0.017-0.03101,0.034-0.047,0.051
		c-0.301,0.308-0.19,0.494,0.05099,0.602c0.002,1.75-0.05899,3.501-0.209,5.254c-0.472,0.745,0.463,1.139,1.084,1.139
		c0.032,0,0.06401,0,0.09601,0c0.739,0,2.62599-0.35,2.718-1.364c0.19099-2.1,0.25099-4.196,0.23199-6.291
		c1.59-1.715,2.89-3.63,4.05501-5.635c0.759,1.48,1.48199,2.972,1.989,4.582c0.86099,2.741,2.299,5.261,3.131,8.014
		c0.54399,1.806,4.457,0.738,3.91699-1.049C80.58051,28.36996,79.20551,25.82596,78.2795,23.10796z"/> <path d="M101.7825,18.47296c-0.21001-0.832-1.37201-0.849-2.271-0.77c-0.01201-0.335-0.02-0.671-0.03601-1.006
		c-0.125-2.661-0.16499-5.379-0.392-8.032c-0.209-2.458-1.58499-3.337-3.972-3.247c-2.416,0.092-5.22899,0.527-7.48199,1.403
		c-2.60701,1.014-4.058,2.935-4.55901,5.681c-0.549,3.014,0.24001,6.219,0.373,9.246c0.15401,3.503,0.06601,7.014,0.062,10.519
		c0,0.573,3.916,0.031,3.91701-1.049c0.00299-2.776,0.04199-5.551,0-8.327c-0.013-0.818-0.05101-1.632-0.10201-2.444
		c1.369-0.593,3.687,0.012,5.05,0.141c1.10701,0.104,2.16901-0.166,3.244-0.292c0.02101,2.312,0.10701,4.635,0.20201,6.944
		c0.049,1.184,0.47699,3.53-0.354,4.511c-0.437,0.516,1.48001,0.343,1.55501,0.33c0.793-0.146,1.761-0.401,2.30299-1.041
		c0.94901-1.12,0.45601-3.79,0.401-5.126c-0.078-1.91-0.10199-3.824-0.14099-5.737
		C100.7345,20.02996,101.9975,19.32296,101.7825,18.47296z M87.16451,18.32296c-0.103-1.245-0.21701-2.49-0.30301-3.743
		c-0.16-2.331,0.117-5.583,2.29001-6.999c0.58-0.379,1.675-0.315,2.354-0.438c0.97-0.176,1.95599-0.389,2.82899,0.19
		c1.21001,0.802,0.912,3.657,0.91101,4.869c-0.00301,2.005,0.207,4.001,0.31,6.003c-0.552,0.055-1.11101,0.089-1.683,0.076
		C91.5865,18.22796,89.32851,17.86796,87.16451,18.32296z"/> <path d="M24.3005,6.67196c0.521-0.05,1.045-0.226,1.477-0.524c0.085-0.072,0.171-0.144,0.256-0.216
		c0.52-0.335,0.972-0.827,0.728-1.361c-0.504-1.105-0.423-2.231-0.416-3.414c0.006-0.958-0.963-1.246-1.781-1.174
		c-0.723,0.063-2.168,0.581-2.175,1.52c-0.006,0.993-0.071,2.016,0.109,2.992c-0.047,0.113-0.074,0.239-0.104,0.355
		c-0.055,0.212,0.016,0.42,0.142,0.59c0,0.045,0.002,0.089,0.002,0.134c0.005,0.112,0.01,0.224,0.015,0.335
		c0.073,0.232,0.216,0.409,0.429,0.53C23.3705,6.67196,23.8605,6.71396,24.3005,6.67196z"/> </g> 
    </symbol>
    <symbol id="icon_logo-mobile" viewBox="0 0 86 35">
       <g> <path d="M4.38545,26.28369c-0.0136-3.4716-0.26169-6.93751-0.3564-10.4091c-0.0078-0.3399-0.0147-0.6807-0.0195-1.0206
		c0.0488,0.1221,0.0966,0.24319,0.1455,0.3643c0.54,1.3516,1.1025,2.6631,1.8388,3.91989
		c0.7315,1.24421,1.0987,2.58011,1.5205,3.93951c-0.1591,0.1816-0.2558,0.3896-0.1962,0.5957
		c-0.0332,0.1504,0.05861,0.2451,0.2119,0.3056c0.5371,0.46,1.5498,0.2315,2.1133-0.00781
		c0.2421-0.10149,0.4736-0.22069,0.6962-0.35539c0.2901-0.1807,0.74421-0.5723,0.6133-0.97661
		c-0.0244-0.07909-0.0488-0.15719-0.0722-0.23539c0.3964-1.0683,0.5976-2.1787,0.8134-3.30761
		c0.2305-1.206,0.6592-2.34469,1.0918-3.48529c0.043,0.5205,0.08791,1.0439,0.12891,1.5664
		c0.17389,2.1474,0.02839,4.2695,0.00789,6.42189c-0.00789,0.71291,0.0459,1.375,0.1835,2.07521
		c0.05861,0.2871,0.30961,1.5214,0.2354,1.58779c-0.5156,0.47561-0.3662,1.06061,0.32621,1.211
		c0.77149,0.16891,1.75289-0.08789,2.333-0.625c1.00879-0.93359,0.53119-2.39649,0.30369-3.57229
		c-0.3848-1.9726,0.0771-4.1806,0.0166-6.1894c-0.06929-2.2598-0.4297-4.503-0.3994-6.7686
		c0.0234-1.831,0.32811-3.7139-0.3028-5.47071c0.0391-0.20019,0.0801-0.39839,0.1172-0.59959
		c0.1631-0.8789-2.7539-0.4141-3.2119,0.39159c-0.29,0.23541-0.4375,0.51861-0.3135,0.80571
		c0.0313,0.07129,0.0567,0.1464,0.084,0.2187c-0.5517,2.6992-1.3213,5.3135-2.207,7.9297
		c-0.33889,1.001-0.7481,1.9766-1.0947,2.9775c-0.4903-0.93261-0.9864-1.8505-1.3838-2.84661
		C6.45385,11.8335,5.40995,8.9107,3.99876,6.1285c0.16019-1.2891-2.69771-1.1534-3.26121,0.0263
		c-0.6816,1.4258-0.5923,2.8662-0.3691,4.3926c0.25431,1.7207,0.2978,3.4111,0.3198,5.1475
		c0.0386,3.3466,0.3003,6.6894,0.3511,10.04c-0.2979,0.3311-0.3887,0.7412-0.0777,1.1582c0.1358,0.1816,0.3057,0.3213,0.4824,0.46
		C2.20095,27.96439,4.39035,27.44579,4.38545,26.28369z"/> <path d="M22.58176,7.91169c-0.08881-0.6133-3.416,0.0839-3.29981,0.8847c0.25881,1.7764,0.167,3.5606,0.13581,5.3516
		c-0.03131,1.7217,0.39349,3.28219,0.61519,4.9707c0.2256,1.7324-0.0713,3.5019,0.126,5.2353
		c0.08981,0.8116,0.63181,2.3116,0.0742,3.0176c-0.3545,0.4473,1.2373,0.2852,1.30961,0.2754
		c0.64649-0.1201,1.50879-0.331,1.93839-0.875c0.5518-0.6973,0.1651-2.042,0.045-2.8271c-0.2666-1.7344-0.0967-3.5371-0.1621-5.2862
		c-0.0606-1.6758-0.6436-3.2539-0.6504-4.9463C22.70385,11.76809,22.86595,9.84329,22.58176,7.91169z"/> <path d="M25.70485,14.55718c0.9101,2.51361,4.6484,1.32711,6.5508,1.47071c3.2382,0.2392,2.2724,4.6074,2.3134,6.6406
		c0.0225,1.085,0.9952,2.88869,0.17871,3.7978c-0.50191,0.5557-1.66891,0.58889-2.35151,0.6465
		c-0.68649,0.0567-1.85349,0.2608-2.31149-0.38961c-0.836-1.19439,0.07709-3.20019-0.10161-4.56839
		c-0.1025-0.7802-3.4238-0.0801-3.2988,0.8838c0.29,2.211-1.1787,5.1748,2.02241,5.5557
		c2.05859,0.2441,4.37209-0.1358,6.31739-0.7832c1.0078-0.334,1.9434-0.792,2.7315-1.5088c0.872-0.794,0.5849-1.9795,0.3515-2.9873
		c-0.5693-2.458,0.6162-5.2891-0.9873-7.4541c-1.7383-2.34471-4.9619-0.6572-7.21189-1.2969
		c-1.1611-0.3301-1.1748-1.9111-1.1699-2.8603c0.0019-1.2022-0.0977-2.3018-0.2315-3.4913
		c-0.0996-0.8867-0.0205-1.7871,0.628-2.44721c0.1191-0.12109,0.7226-0.28319,0.6806-0.28619
		c0.2989-0.0507,0.5723-0.0625,0.9004-0.0761c1.3037-0.05571,3.8848,0.19529,3.3858,2.0918
		c-0.22559,0.8506,3.0283,0.3632,3.26559-0.5371c1.0205-3.8741-6.1377-3.1309-8.15919-2.5928
		c-1.86331,0.4941-3.916,1.5547-4.02341,3.7041c-0.0518,1.02729,0.2295,2.0058,0.27441,3.0224
		C25.51145,12.26029,25.29365,13.42829,25.70485,14.55718z"/> <path d="M40.15995,16.42729c-0.0528,1.7988-0.2081,3.5928-0.2198,5.3926c-0.0058,0.9209,0.1455,1.8418,0.2784,2.75
		c0.122,0.8408,0.40721,1.9638,0.15231,2.7959c-0.1982,0.64639,3,0.2421,3.25391-0.587c0.458-1.497-0.18751-3.4023-0.34081-4.9179
		c-0.1475-1.4512-0.03219-2.9453,0.0722-4.4199c1.7081-0.1104,3.418-0.2491,5.1192-0.01081
		c0.07619,1.16311,0.16399,2.32131,0.27241,3.48341c0.08789,0.97559,0.15139,1.9483,0.16409,2.9287
		c0.0147,0.8555,0.1201,2.0987-0.18459,2.9131c-0.65131,1.7315,2.6553,1.5899,3.1358,0.3076
		c0.5918-1.5771,0.4228-3.5371,0.3232-5.1943c-0.12991-2.0586-0.4043-4.10651-0.4697-6.166
		c-0.1016-3.1826-0.5801-6.3291-0.59379-9.5156c-0.00681-1.6612-3.33781-1.0987-3.331,0.288
		c0.01169,3.04009,0.417,6.03709,0.57129,9.0684c0.0049,0.0605,0.0078,0.1211,0.00971,0.1846
		c-1.63961-0.0157-3.28121,0.1494-4.92871,0.207c0.1709-3.9023-0.5146-7.7715-0.3642-11.67191
		c0.0195-0.49219-3.2637-0.07709-3.2998,0.88281C39.63455,8.91749,40.27315,12.65779,40.15995,16.42729z"/> <path d="M54.23995,21.79839c-0.2539,0.25879-0.1591,0.414,0.045,0.50579c0.0009,1.47371-0.0498,2.94931-0.1778,4.42391
		c-0.3965,0.6298,0.3897,0.9599,0.9121,0.9599c0.0284,0,0.0547,0,0.0821,0c0.62199,0,2.2089-0.2929,2.28899-1.1484
		c0.1621-1.7686,0.21101-3.5352,0.1963-5.2988c1.3369-1.4463,2.4336-3.0567,3.416-4.7481
		c0.6397,1.2481,1.24711,2.5049,1.6758,3.8613c0.7246,2.3096,1.9375,4.4307,2.63671,6.75c0.459,1.5215,3.75389,0.6211,3.2979-0.8847
		c-0.7012-2.3194-1.85651-4.4619-2.63771-6.75c-0.79099-2.3223-1.99809-4.3614-3.04589-6.5684
		c0.8447-1.6406,1.6992-3.2832,2.46971-4.9599c0.6983-1.5245,1.2188-3.2159,2.5938-4.2891
		c0.48341-0.376,0.46382-0.7549-0.2159-0.8008c-0.73729-0.0537-1.73819,0.1592-2.33389,0.625
		c-1.25,0.9736-2.042,2.1582-2.69439,3.5947c-0.78421,1.7256-1.59761,3.4209-2.45511,5.1172
		c-0.0605,0.1231-0.125,0.2481-0.1875,0.3731c-0.4121,0.2636-0.6601,0.6416-0.539,1.0644c-0.666,1.3164-1.3467,2.627-2.1045,3.8848
		c-0.252-4.66111-0.8027-9.3174-0.9688-13.9834c-0.03609-1.0684-3.3447-0.4033-3.2968,0.8857
		c0.2041,5.7852,1.0244,11.5567,1.083,17.3399C54.26735,21.76909,54.25265,21.78469,54.23995,21.79839z"/> <path d="M85.77415,15.56689c-0.1767-0.7011-1.1553-0.7158-1.914-0.6484c-0.00981-0.28131-0.0166-0.5664-0.0293-0.8486
		c-0.10651-2.2412-0.1387-4.5303-0.32909-6.76471c-0.17581-2.06929-1.33501-2.81149-3.34572-2.73439
		c-2.0352,0.0772-4.40428,0.44339-6.3018,1.1827c-2.1973,0.8525-3.42091,2.47069-3.84081,4.7841
		c-0.4639,2.5391,0.2011,5.2383,0.3134,7.7891c0.12991,2.9512,0.05569,5.9092,0.0538,8.8594c0,0.4843,3.2968,0.0273,3.2968-0.8838
		c0.00389-2.3379,0.03709-4.6758,0-7.0137c-0.0107-0.6885-0.04291-1.374-0.0849-2.0566c1.15521-0.4991,3.1064,0.0097,4.2549,0.1181
		c0.9326,0.0889,1.8261-0.1377,2.73239-0.2441c0.0166,1.9463,0.08981,3.9053,0.16991,5.8506
		c0.04201,0.9971,0.4023,2.97459-0.29691,3.7988c-0.36809,0.4356,1.24899,0.2881,1.3096,0.2803
		c0.668-0.124,1.48239-0.3379,1.93939-0.877c0.79991-0.9424,0.3838-3.1924,0.33792-4.3164
		c-0.06541-1.6113-0.08591-3.2226-0.12111-4.834C84.89134,16.87749,85.95584,16.28179,85.77415,15.56689z M79.11205,15.40479
		c-1.9277-0.0459-3.82809-0.34861-5.6514,0.0362c-0.08589-1.05081-0.1826-2.0977-0.25479-3.1543
		c-0.1338-1.962,0.09859-4.7022,1.92769-5.89551c0.49222-0.31839,1.4131-0.26369,1.98441-0.36819
		c0.81931-0.1475,1.6474-0.3281,2.3838,0.1601c1.01749,0.6758,0.76849,3.08009,0.76559,4.1006
		c-0.002,1.69049,0.1767,3.3701,0.2617,5.0586C80.06425,15.38818,79.59155,15.41459,79.11205,15.40479z"/> <path d="M18.90605,4.08839c-0.0479,0.1797,0.0126,0.3565,0.1191,0.4971c0,0.0391,0.0019,0.0752,0.0019,0.1142
		c0.004,0.0938,0.0088,0.18749,0.01271,0.2823c0.06159,0.1943,0.18169,0.3427,0.36229,0.4463
		c0.3252,0.1963,0.7373,0.2324,1.1084,0.1963c0.4395-0.0411,0.8819-0.1915,1.2452-0.4395c0.0722-0.0615,0.1425-0.1221,0.2158-0.1826
		c0.4385-0.2822,0.81831-0.69731,0.61231-1.1465c-0.42381-0.9316-0.35841-1.8799-0.34961-2.875
		c0.0049-0.8076-0.8115-1.05081-1.501-0.9893c-0.60839,0.0537-1.8271,0.4893-1.8311,1.2793
		c-0.0068,0.836-0.0615,1.6983,0.0918,2.5225C18.95285,3.88529,18.92945,3.99169,18.90605,4.08839z"/> <path d="M80.48315,33.27199c-1.5576-0.5849-3.2832-0.6152-4.8506-0.7871c-1.60251-0.1699-3.2451-0.4102-4.88379-0.5625
		c-1.63672,0.0527-3.30951,0.0273-4.97171,0.1289l-4.8798,0.2676c-6.4873,0.289-12.9991,0.2529-19.5166,0.1074
		c-6.5166-0.123-13.045-0.4766-19.62989-0.45311c-3.28811,0.00781-6.56551,0.09861-9.86231,0.25
		c-1.6319,0.28321-3.2393,0.501-4.9043,0.91311c-1.6153,0.3994-3.1446,0.9072-4.794,1.0478
		c1.6231,0.3623,3.3409,0.292,4.9619,0.2969c1.5791,0.0098,3.2432,0.1426,4.8721,0.2314c3.2285-0.1718,6.4873-0.2461,9.7334-0.2578
		c6.4873-0.02441,13.0147,0.3291,19.5654,0.4512c6.5479,0.1465,13.1143,0.1855,19.6827-0.1104l4.90719-0.2685
		c1.60251-0.0713,3.1982-0.127,4.8291-0.0674c1.6279-0.1484,3.2529-0.3301,4.918-0.5322c1.664-0.2383,3.21971-0.627,4.8544-0.5088
		l0.07431,0.0059l0.0058-0.0547c0.0215-0.1778-0.04001-0.3233-0.04001-0.47951
		C80.51924,33.01809,80.51434,33.15479,80.48315,33.27199z"/> </g> 
    </symbol>
    <symbol id="icon_logo-tablet" viewBox="0 0 114 48">
       <g> <g id="Layer_2"> <g> <path d="M111.03323,42.83715c4.394,0.868,0.843-35.858,0.147-38.311c-1.96-6.569-26.677-2.144-32.18-1.717
				c-12.723,0.987-25.189-0.96-37.611-0.376c-6.205,0.292-34.854-1.813-37.519,1.986c-5.048,7.208-2.652,25.797-1.278,35.076
				c-4.043,0.779,2.309,4.154,3.138,4.897c6.314,2.192,16.358-0.219,23.007,0.396c15.434,1.472,31.797-2.194,47.276-0.955
				c4.496,1.144,9.604,1.019,14.224,1.239C93.65124,50.64416,109.90123,42.61116,111.03323,42.83715
				C110.93324,42.81716,111.54024,42.93716,111.03323,42.83715z"/> </g> </g> <g id="Layer_1_1_"> <g> <path fill="#FFFFFF" d="M26.94394,25.36616c-0.079-2.546-0.484-5.074-0.451-7.624c0.026-2.063,0.37-4.185-0.341-6.164
				c0.043-0.225,0.091-0.449,0.132-0.675c0.184-0.992-3.103-0.467-3.62,0.44c-0.325,0.266-0.492,0.584-0.354,0.908
				c0.035,0.082,0.065,0.165,0.096,0.247c-0.623,3.041-1.49,5.985-2.487,8.932c-0.382,1.128-0.843,2.229-1.232,3.354
				c-0.553-1.049-1.111-2.083-1.56-3.206c-1.303-3.257-2.479-6.55-4.068-9.685c0.181-1.452-3.039-1.299-3.674,0.03
				c-0.767,1.607-0.668,3.229-0.416,4.948c0.285,1.938,0.334,3.842,0.358,5.8c0.045,3.771,0.339,7.537,0.396,11.311
				c-0.335,0.372-0.438,0.835-0.087,1.305c0.153,0.203,0.344,0.362,0.542,0.521c0.858,0.687,3.323,0.101,3.318-1.207
				c-0.013-3.911-0.295-7.815-0.399-11.727c-0.01-0.383-0.017-0.766-0.022-1.149c0.055,0.137,0.108,0.275,0.163,0.411
				c0.607,1.522,1.243,3.001,2.073,4.416c0.824,1.401,1.237,2.908,1.711,4.438c-0.179,0.206-0.288,0.439-0.221,0.674
				c-0.038,0.169,0.067,0.275,0.238,0.342c0.606,0.519,1.747,0.261,2.381-0.008c0.273-0.114,0.532-0.247,0.784-0.401
				c0.327-0.202,0.838-0.645,0.691-1.1c-0.028-0.089-0.056-0.176-0.083-0.265c0.447-1.204,0.674-2.456,0.917-3.728
				c0.259-1.356,0.742-2.64,1.229-3.924c0.049,0.587,0.1,1.176,0.147,1.762c0.194,2.422,0.031,4.812,0.008,7.236
				c-0.009,0.803,0.05,1.55,0.208,2.337c0.064,0.324,0.348,1.714,0.266,1.79c-0.581,0.535-0.412,1.192,0.366,1.363
				c0.868,0.19,1.975-0.101,2.628-0.705c1.137-1.05,0.6-2.699,0.342-4.024C26.49394,30.11816,27.01394,27.63016,26.94394,25.36616z"/> <path fill="#FFFFFF" d="M34.88094,26.00916c-0.069-1.888-0.725-3.666-0.734-5.573c-0.01-2.188,0.172-4.358-0.146-6.535
				c-0.101-0.688-3.849,0.095-3.717,0.996c0.293,2.002,0.187,4.014,0.151,6.029c-0.035,1.941,0.444,3.699,0.694,5.603
				c0.254,1.95-0.081,3.945,0.141,5.897c0.103,0.913,0.712,2.603,0.084,3.398c-0.398,0.505,1.394,0.322,1.474,0.31
				c0.729-0.136,1.702-0.372,2.186-0.987c0.62-0.784,0.186-2.3,0.051-3.185C34.76294,30.00716,34.95494,27.97916,34.88094,26.00916z
				"/> <path fill="#FFFFFF" d="M50.37794,22.85616c-1.957-2.641-5.589-0.739-8.125-1.46c-1.308-0.372-1.323-2.155-1.319-3.224
				c0.003-1.353-0.108-2.592-0.25999-3.935c-0.112-0.998-0.022-2.013,0.708-2.755c0.13499-0.137,0.81499-0.318,0.768-0.322
				c0.335-0.058,0.64301-0.072,1.013-0.088c1.469-0.063,4.376,0.22,3.814,2.356c-0.253,0.958,3.413,0.409,3.68-0.604
				c1.15-4.364-6.914-3.526-9.192-2.921c-2.098,0.557-4.41199,1.751-4.531,4.174c-0.059,1.156,0.257,2.258,0.309,3.404
				c0.057,1.319-0.188,2.635,0.273,3.907c1.027,2.831,5.238,1.495,7.38,1.656c3.65,0.271,2.561,5.19,2.608,7.48
				c0.025,1.224,1.121,3.255,0.2,4.278c-0.565,0.627-1.881,0.664-2.64899,0.729c-0.772,0.064-2.089,0.296-2.604-0.438
				c-0.942-1.345,0.08701-3.605-0.114-5.146c-0.115-0.879-3.859-0.091-3.717,0.995c0.325,2.492-1.328,5.83,2.279,6.258
				c2.318,0.275,4.92599-0.152,7.118-0.881c1.135-0.376,2.188-0.894,3.077-1.701c0.982-0.892,0.659-2.228,0.396-3.365
				C50.84894,28.48416,52.18494,25.29716,50.37794,22.85616z"/> <path fill="#FFFFFF" d="M66.81893,22.67816c-0.114-3.584-0.653-7.129-0.669-10.719c-0.007-1.871-3.762-1.239-3.754,0.325
				c0.014,3.424,0.472,6.801,0.646,10.215c0.004,0.068,0.008,0.138,0.012,0.209c-1.85-0.017-3.699,0.169-5.553,0.233
				c0.191-4.396-0.58-8.756-0.411-13.149c0.021-0.553-3.677-0.085-3.718,0.995c-0.162,4.248,0.558,8.461,0.43,12.709
				c-0.061,2.026-0.232,4.046-0.247,6.074c-0.007,1.039,0.164,2.074,0.312,3.098c0.138,0.947,0.458,2.212,0.172,3.149
				c-0.224,0.731,3.379,0.275,3.666-0.659c0.516-1.687-0.211-3.834-0.383-5.541c-0.167-1.636-0.039-3.319,0.078-4.98
				c1.925-0.123,3.852-0.281,5.77-0.011c0.084,1.308,0.186,2.613,0.305,3.924c0.101,1.099,0.171,2.194,0.187,3.298
				c0.016,0.966,0.135,2.367-0.21,3.282c-0.733,1.953,2.98999,1.792,3.53299,0.347c0.667-1.775,0.477-3.984,0.363-5.85
				C67.20393,27.30716,66.89394,25.00016,66.81893,22.67816z"/> <path fill="#FFFFFF" d="M82.88793,26.92416c-0.892-2.617-2.252-4.913-3.431-7.399c0.95-1.85,1.915-3.7,2.782-5.588
				c0.788-1.715,1.373-3.624,2.922-4.833c0.545-0.424,0.522-0.85-0.243-0.902c-0.83-0.058-1.958,0.182-2.629,0.704
				c-1.408,1.099-2.301,2.433-3.035,4.05c-0.885,1.946-1.801,3.856-2.765,5.765c-0.069,0.14-0.141,0.28-0.213,0.421
				c-0.465,0.3-0.744,0.723-0.606,1.201c-0.75,1.484-1.518,2.959-2.371,4.375c-0.283-5.25-0.905-10.496-1.093-15.752
				c-0.041-1.205-3.768-0.455-3.715,0.996c0.23,6.517,1.155,13.021,1.221,19.536c-0.017,0.017-0.031,0.033-0.047,0.048
				c-0.285,0.293-0.179,0.469,0.051,0.571c0.002,1.66-0.057,3.322-0.199,4.985c-0.448,0.709,0.439,1.081,1.029,1.081
				c0.031,0,0.061,0,0.092,0c0.701,0,2.49-0.331,2.579-1.294c0.182-1.992,0.237-3.981,0.221-5.971
				c1.508-1.627,2.741-3.444,3.849-5.348c0.72,1.405,1.405,2.821,1.887,4.35c0.816,2.602,2.182,4.991,2.971,7.604
				c0.518,1.713,4.229,0.701,3.717-0.996C85.06993,31.91716,83.76894,29.50416,82.88793,26.92416z"/> <path fill="#FFFFFF" d="M105.19193,22.52616c-0.199-0.791-1.302-0.807-2.156-0.731c-0.012-0.318-0.02-0.637-0.033-0.956
				c-0.12-2.525-0.158-5.104-0.371-7.622c-0.198-2.331-1.505-3.167-3.77-3.08c-2.293,0.087-4.962,0.5-7.101,1.332
				c-2.475,0.962-3.852,2.784-4.326,5.391c-0.522,2.86,0.227,5.901,0.354,8.775c0.146,3.324,0.062,6.655,0.059,9.98
				c0,0.545,3.717,0.03,3.717-0.996c0.004-2.633,0.041-5.268,0-7.9c-0.013-0.777-0.049-1.549-0.097-2.318
				c1.3-0.563,3.499,0.011,4.792,0.133c1.052,0.1,2.059-0.155,3.079-0.275c0.02,2.193,0.101,4.4,0.191,6.591
				c0.047,1.122,0.453,3.351-0.335,4.279c-0.414,0.491,1.405,0.326,1.475,0.314c0.753-0.139,1.671-0.381,2.186-0.988
				c0.901-1.062,0.433-3.597,0.381-4.863c-0.074-1.814-0.097-3.63-0.135-5.443
				C104.19693,24.00416,105.39594,23.33316,105.19193,22.52616z M91.31993,22.38316c-0.099-1.183-0.207-2.364-0.288-3.552
				c-0.15-2.212,0.111-5.298,2.172-6.642c0.553-0.36,1.59-0.298,2.235-0.416c0.922-0.166,1.856-0.369,2.685,0.181
				c1.148,0.762,0.865,3.47,0.863,4.62c-0.002,1.904,0.198,3.797,0.295,5.698c-0.524,0.052-1.056,0.084-1.597,0.073
				C95.51593,22.29216,93.37393,21.95116,91.31993,22.38316z"/> <path fill="#FFFFFF" d="M31.66394,11.32616c0.495-0.047,0.992-0.215,1.401-0.497c0.082-0.068,0.162-0.138,0.244-0.206
				c0.493-0.318,0.92-0.785,0.68999-1.291c-0.479-1.049-0.403-2.117-0.395-3.241c0.006-0.908-0.914-1.182-1.689-1.114
				c-0.686,0.061-2.058,0.551-2.063,1.443c-0.007,0.942-0.068,1.913,0.104,2.84c-0.046,0.106-0.071,0.226-0.099,0.336
				c-0.053,0.201,0.015,0.399,0.135,0.56c0,0.042,0.002,0.085,0.002,0.127c0.004,0.106,0.01,0.212,0.014,0.318
				c0.07,0.221,0.205,0.388,0.407,0.503C30.78194,11.32616,31.24694,11.36716,31.66394,11.32616z"/> </g> </g> </g> 
    </symbol>
    <symbol id="icon_nav-cart" viewBox="0 0 20 18">
       <path d="M18.89299,6.92174h-2.9818l-3.2244-6.44827c-0.17516-0.35034-0.60024-0.4922-0.95238-0.31751
	C11.3837,0.33161,11.24184,0.75765,11.417,1.10837l2.90651,5.81337h-8.6474L8.583,1.10837
	c0.17516-0.35072,0.0333-0.77676-0.31739-0.95241C7.91582-0.01874,7.48885,0.12312,7.3132,0.47347L4.0893,6.92174H1.10701
	c-0.39179,0-0.70976,0.31797-0.70976,0.70976c0,0.39187,0.31797,0.70976,0.70976,0.70976h0.14885l0.80904,2.8307
	c-0.17649,0.12944-0.29897,0.32808-0.29897,0.56333c0,0.37428,0.29253,0.6723,0.65942,0.69956l1.56694,5.48394h12.01542
	l1.56694-5.48394c0.36738-0.02631,0.66037-0.32528,0.66037-0.69956c0-0.23572-0.12248-0.43436-0.29954-0.56371l0.80867-2.83033
	H18.893c0.39179,0,0.70975-0.31788,0.70975-0.70976C19.60275,7.23971,19.28478,6.92174,18.89299,6.92174z M14.93663,16.49928
	H5.06337l-1.15841-4.05424h12.19008L14.93663,16.49928z M16.50075,11.02554H3.49925L2.73263,8.34125h14.53523L16.50075,11.02554z"/> 
    </symbol>
    <symbol id="icon_nav-search" viewBox="0 0 18 18">
       <path d="M17.4697,15.93015l-3.415-3.4151c0.9648-1.289,1.5449-2.88081,1.5449-4.6162c0-4.2529-3.4473-7.6982-7.7002-7.6982
	s-7.6992,3.4453-7.6992,7.6982c0,4.253,3.4453,7.7002,7.6982,7.7002c1.73441,0,3.3262-0.5801,4.6133-1.5459l3.417,3.416
	c0.20311,0.2022,0.418,0.33009,0.7715,0.33009c0.6064,0,1.09961-0.49219,1.09961-1.09959
	C17.79981,16.45946,17.7383,16.20065,17.4697,15.93015z M2.3984,7.89885c0-3.0381,2.4619-5.5,5.5-5.5s5.5,2.4619,5.5,5.5
	s-2.4619,5.5-5.5,5.5S2.3984,10.93795,2.3984,7.89885z"/> 
    </symbol>
    <symbol id="icon_page-header-interior" viewBox="-260.29471 -20.46924 42 64">
       <g> <path d="M-244.31139,18.39929c-0.29051,0.98239-0.24881,2.22907,0.02736,3.70125c0.50259,2.67999,1.71548,6.14485,2.39894,9.83613
		h5.14902c0.70827-3.70318,1.98271-7.171,2.51317-9.84905c0.29204-1.47015,0.33527-2.70594,0.0412-3.67939
		c-0.27962-0.91485-0.9054-1.6455-2.05624-2.34227h-6.09959C-243.43071,16.75631-244.04062,17.48046-244.31139,18.39929z"/> <path d="M-232.2764,38.73812h-14.03651c-1.31523,0-2.33893,0.99237-2.33893,2.26783v2.26681h2.33893h14.03651h2.33882v-2.26681
		C-229.93758,39.7305-230.96127,38.73812-232.2764,38.73812z"/> <path d="M-225.02098-17.94392h-11.93408c0-1.26549-1.03265-2.26732-2.33984-2.26732c-1.30527,0-2.33934,1.00183-2.33934,2.26732
		h-11.93857L-259.75,8.01133c0.80753-0.46933,1.61621-1.00926,2.67703-1.00926c1.38226,0,2.28125,0.83196,2.97417,1.39915
		c0.69383,0.56668,1.18156,0.86319,1.47208,0.86319c0.29651,0.00153,0.78181-0.29204,1.47565-0.85027
		c0.6929-0.55773,1.59088-1.38124,2.96521-1.38124c1.37178,0,2.27525,0.81955,2.96907,1.37677
		c0.69536,0.55823,1.18056,0.85475,1.47615,0.85475c0.14902,0,0.34422-0.07396,0.58957-0.21798
		c0.24585-0.14353,0.53931-0.35866,0.88647-0.63727c0.5211-0.41766,1.15828-0.98393,2.024-1.23914
		c0.28909-0.08646,0.603-0.13813,0.94569-0.13813c1.37025,0,2.27626,0.81904,2.97009,1.37728
		c0.69434,0.55783,1.17862,0.85474,1.47615,0.85474c0.29202-0.00244,0.77927-0.30139,1.47014-0.8642
		c0.69586-0.56322,1.59781-1.39019,2.97508-1.39019c1.37971,0,2.27769,0.83145,2.96959,1.39466
		c0.34767,0.28116,0.64226,0.49772,0.88658,0.64227c0.24432,0.14546,0.43861,0.21747,0.58458,0.21747
		c0.29254,0,0.7748-0.29844,1.46719-0.86868c0.69189-0.56861,1.59435-1.40749,2.97905-1.40749
		c1.06235,0,1.87102,0.54186,2.67705,1.01362L-225.02098-17.94392z"/> <path d="M-235.82222,34.20349h-6.98169c-0.66809,0-1.16968,0.48774-1.16968,1.13437c0,0.64571,0.50159,1.13244,1.16968,1.13244
		h7.01851c0.66646,0,1.16966-0.48672,1.16966-1.13244c0-0.64663-0.5032-1.13437-1.16966-1.13437H-235.82222z"/> <path d="M-239.29491,9.29869c-0.14851,0-0.34372,0.07548-0.58957,0.21707c-0.15939,0.09541-0.37646,0.26518-0.57959,0.41674
		v3.79504h2.33882V9.9325C-238.64035,9.54709-239.05008,9.29869-239.29491,9.29869z"/> </g> 
    </symbol>
    <symbol id="icon_page-header-toy" viewBox="226.00073 225.99976 59.99951 60">
       <path d="M226.83458,269.48578l26.6763,15.491v-22.6972l-26.6763-15.49722V269.48578z M276.75397,239.10957v2.38498
	c0,1.76642-3.36194,3.19812-7.51575,3.19812c-4.14713,0-7.51196-1.4317-7.51196-3.19812v-3.94586h0.0238
	c0.2525,1.66667,3.50339,2.98735,7.48816,2.98735c4.15381,0,7.51477-1.43315,7.51477-3.19336
	c0-1.76886-3.36096-3.19727-7.51477-3.19727c-0.3295,0-0.65607,0.00993-0.97409,0.02898l-4.83649-2.80797v3.00018
	c0,1.76643-3.35815,3.19823-7.50809,3.19823c-2.60809,0-4.90477-0.56633-6.25392-1.42654
	c-0.19084-0.19746-0.42729-0.38977-0.71205-0.56963c-0.35272-0.3708-0.5493-0.77478-0.5493-1.20206v-2.90335l-4.67357,2.71396
	c-0.33707-0.01614-0.67696-0.0318-1.02443-0.0318c-4.14809,0-7.51245,1.42841-7.51245,3.19727
	c0,1.76021,3.36436,3.19336,7.51245,3.19336c3.98523,0,7.23897-1.32068,7.49057-2.98735h0.0213v3.94586
	c0,1.76642-3.35902,3.19812-7.51187,3.19812c-4.14809,0-7.51245-1.4317-7.51245-3.19812v-2.35316l-5.78629,3.35571
	l26.76643,15.54233l26.59085-15.44121L276.75397,239.10957z M263.48938,248.99368c0,1.76643-3.3638,3.1953-7.51189,3.1953
	c-4.15001,0-7.5143-1.42886-7.5143-3.1953v-3.94635h0.02324c0.25258,1.66718,3.50291,2.99026,7.49106,2.99026
	c3.98659,0,7.23653-1.32309,7.49098-2.99026h0.0209V248.99368L263.48938,248.99368z M258.48679,262.4808v22.50073l26.68011-15.49576
	v-22.5007L258.48679,262.4808z M255.91907,233.4077c4.15042,0,7.50858-1.42886,7.50858-3.19432
	c0-1.7641-3.35815-3.1954-7.50858-3.1954c-4.15089,0-7.51479,1.4313-7.51479,3.1954
	C248.40428,231.97884,251.76817,233.4077,255.91907,233.4077"/> 
    </symbol>
    <symbol id="icon_production-process-play" viewBox="0.3391 0.44557 100 76">
       <g> <g> <g> <path fill="#63D1BB" d="M95.71641,18.68899c0,0-0.89545-6.82142-3.68444-9.81006
				c-3.53529-3.93352-7.46979-3.95825-9.28734-4.18262C69.77295,3.70013,50.32766,3.70013,50.32766,3.70013h-0.04945
				c0,0-19.44714,0-32.41891,0.99618c-1.81744,0.2234-5.75106,0.24909-9.28627,4.18262
				c-2.76427,3.01336-3.6854,9.81006-3.6854,9.81006s-0.87167,7.99252-0.87167,15.98513v7.49443
				c0,7.99155,0.922,15.98416,0.922,15.98416s0.89641,6.82239,3.68453,9.81007c3.53521,3.93354,8.14087,3.80901,10.2074,4.23298
				c7.41938,0.74715,31.49593,0.99527,31.49593,0.99527s19.4709-0.02472,32.44169-1.02
				c1.81754-0.22433,5.75106-0.24999,9.28627-4.18449c2.76524-2.98672,3.6855-9.80911,3.6855-9.80911
				s0.92103-7.99164,0.92103-15.98513v-7.49345C96.63753,26.68151,95.71641,18.68899,95.71641,18.68899z"/> <path fill="#FFFFFF" d="M50.3153,75.86789h-0.01518c-0.98771-0.01046-24.28282-0.25951-31.73636-1.00953l-0.13696-0.01331
				l-0.13306-0.02757c-0.26428-0.05418-0.65012-0.10456-1.09594-0.16255c-2.43643-0.31939-6.9688-0.91351-10.55064-4.88602
				c-3.26528-3.51908-4.26059-10.48402-4.36416-11.26732l-0.00477-0.04186C2.24016,58.12604,1.3391,50.22094,1.3391,42.16855
				v-7.49443c0-8.04586,0.85173-15.9424,0.88783-16.27511l0.00857-0.06931c0.10552-0.78047,1.12448-7.71695,4.35462-11.24933
				c3.88982-4.32133,8.3043-4.76909,10.427-4.9849c0.18728-0.01995,0.36026-0.03611,0.51522-0.05704l0.12265-0.01236
				C30.57916,1.03369,50.08149,1.0223,50.27821,1.0223h0.04945c0.19585,0,19.69721,0.01236,32.62235,1.00377l0.12265,0.01236
				c0.15487,0.02093,0.32794,0.03709,0.51522,0.05704c2.12076,0.21483,6.53146,0.66357,10.41843,4.97536
				c3.26528,3.52012,4.26147,10.48502,4.36416,11.26929l0.00477,0.04186c0.03796,0.33358,0.93914,8.23392,0.96387,16.30733v7.50299
				c0,8.05336-0.90118,15.95944-0.93914,16.29118l-0.0067,0.0514c-0.10554,0.78417-1.12547,7.74156-4.35941,11.25495
				c-3.88787,4.31662-8.29963,4.7653-10.42223,4.98108c-0.18728,0.01901-0.36123,0.03613-0.51619,0.05514l-0.12265,0.01235
				c-12.92233,0.99337-32.44646,1.0295-32.6423,1.03044L50.3153,75.86789L50.3153,75.86789z M19.22158,69.54362
				c7.27765,0.70914,30.38557,0.96294,31.11747,0.97055c0.63982-0.00095,19.59928-0.04753,32.16797-1.00858
				c0.17297-0.0209,0.36123-0.03992,0.56467-0.06084c1.78707-0.1806,4.48486-0.45533,6.99439-3.24626l0.0257-0.02757
				c1.77665-1.92207,2.77663-6.74441,2.99341-8.32522c0.05704-0.50004,0.90118-8.13522,0.90118-15.65145v-7.49453
				c-0.02287-7.55332-0.87266-15.21128-0.9259-15.68085c-0.31178-2.31855-1.39547-6.60853-2.98387-8.31199l-0.03426-0.03709
				c-2.50856-2.79192-5.20917-3.06564-6.99536-3.24718c-0.20345-0.02093-0.39071-0.03991-0.56467-0.06084
				C69.76439,6.3912,50.52254,6.37787,50.32863,6.37787h-0.04945c-0.19293,0-19.43673,0.01334-32.15463,0.98392
				c-0.1721,0.02093-0.36122,0.03991-0.56466,0.06084c-1.78611,0.18154-4.48487,0.45526-6.99538,3.24718l-0.01811,0.02093
				c-1.77948,1.93921-2.77946,6.73965-3.00003,8.32435c-0.05986,0.57509-0.85173,8.17601-0.85173,15.66089v7.49443
				c0,7.543,0.84794,15.18285,0.90118,15.65525c0.31179,2.31758,1.39547,6.60853,2.98484,8.312l0.03426,0.03802
				c2.25946,2.51526,5.16168,2.89549,7.2796,3.17211C18.36313,69.40768,18.80895,69.46567,19.22158,69.54362z"/> </g> </g> <g> <polygon fill="#FFFFFF" points="38.75048,21.05407 38.75048,55.81236 67.70632,38.4337 		"/> </g> </g> 
    </symbol>
    <symbol id="icon_production-process-video" viewBox="0 0 32 22">
       <path transform="translate(0 192)" d="M26-182l6-4v16l-6-4V-182z M24-182v8c0,2.209-1.791,4-4,4H4c-2.209,0-4-1.791-4-4v-8
	c0-2.209,1.791-4,4-4h10c0-1.105,0.895-2,2-2v-2H5c-0.55321,0-1-0.4473-1-1c0-0.55269,0.44679-1,1-1h12c0.55269,0,1,0.44731,1,1v3
	c1.10549,0,2,0.895,2,2C22.209-186,24-184.209,24-182z M12-182H4v8h8V-182z M20-181c0-0.55269-0.44731-1-1-1h-4
	c-0.55321,0-1,0.44731-1,1c0,0.5527,0.44679,1,1,1h4C19.55269-180,20-180.4473,20-181z"/> 
    </symbol>
    <symbol id="icon_responses-arrow" viewBox="0 -0.00002 50 26.00349">
       <polygon points="0,11.00198 42.34079,11.00198 34.167,2.82818 36.99509,-0.00002 50,12.99808 49.99709,13.00098 50,13.00488 
	36.99509,26.00347 34.167,23.17528 42.33889,15.00146 0,15.00146 "/> 
    </symbol></svg>