<?xml version="1.0" encoding="utf-8"?>
<!-- Generator: Adobe Illustrator 21.0.0, SVG Export Plug-In . SVG Version: 6.00 Build 0)  -->
<svg version="1.1" id="Layer_2" xmlns="http://www.w3.org/2000/svg" xmlns:xlink="http://www.w3.org/1999/xlink" x="0px" y="0px"
	 viewBox="0 0 1150 23" enable-background="new 0 0 1150 23" xml:space="preserve">
<g>
	<path fill="#E6E7E8" d="M1150,23c-9.0166,0-13.72754-4.5889-17.51367-8.2764C1129.07422,11.4009,1126.60938,9,1121.25195,9
		c-5.3584,0-7.82324,2.4009-11.23535,5.7236c-3.78613,3.6875-8.49707,8.2764-17.51367,8.2764s-13.72754-4.5889-17.51367-8.2764
		C1071.57703,11.4009,1069.1123,9,1063.75488,9s-7.82227,2.4009-11.23438,5.7236c-3.78613,3.6875-8.49707,8.2764-17.51367,8.2764
		s-13.72858-4.5889-17.51465-8.2764C1014.08008,11.4009,1011.61517,9,1006.25677,9c-5.35742,0-7.8222,2.4009-11.23431,5.7236
		C991.23627,18.4111,986.52539,23,977.50879,23s-13.72748-4.5889-17.51373-8.2764C956.58301,11.4009,954.11816,9,948.76068,9
		c-5.35742,0-7.8222,2.4009-11.23431,5.7236C933.74017,18.4111,929.02826,23,920.01166,23s-13.72845-4.5889-17.51459-8.2764
		C899.08502,11.4009,896.62006,9,891.2627,9c-5.35742,0-7.82233,2.4009-11.23444,5.7236
		C876.24219,18.4111,871.53027,23,862.51367,23s-13.72852-4.5889-17.51465-8.2764C841.58691,11.4009,839.12207,9,833.76367,9
		c-5.35547,0-7.82031,2.4004-11.23151,5.7231C818.74707,18.4106,814.03607,23,805.02051,23
		c-9.0166,0-13.72852-4.5889-17.51465-8.2764C784.09381,11.4009,781.62891,9,776.27051,9c-5.35645,0-7.82135,2.4009-11.23242,5.7231
		C761.25287,18.4111,756.54199,23,747.52637,23c-9.0166,0-13.72845-4.5889-17.51367-8.2769
		C726.60156,11.4009,724.13672,9,718.7793,9s-7.82129,2.4009-11.2334,5.7231C703.76068,18.4111,699.04877,23,690.03217,23
		c-9.01556,0-13.7265-4.5889-17.51166-8.2764C669.10938,11.4009,666.64447,9,661.28711,9c-5.35742,0-7.82233,2.4009-11.23444,5.7236
		C646.2666,18.4111,641.55566,23,632.53906,23s-13.72858-4.5889-17.51465-8.2759C611.6123,11.4009,609.14752,9,603.78809,9
		c-5.35742,0-7.82227,2.4009-11.23438,5.7236C588.76758,18.4111,584.05658,23,575.03998,23
		c-9.01611,0-13.72797-4.5889-17.51361-8.2764C554.11469,11.4009,551.6499,9,546.29199,9s-7.82281,2.4009-11.23438,5.7236
		C531.27197,18.4111,526.56049,23,517.54437,23c-9.01657,0-13.72849-4.5889-17.51407-8.2764
		C496.61868,11.4009,494.15329,9,488.7959,9c-5.3584,0-7.82321,2.4009-11.23541,5.7236C473.77438,18.4111,469.0625,23,460.0459,23
		c-9.01709,0-13.729-4.5889-17.51559-8.2759C439.11819,11.4009,436.6528,9,431.29349,9c-5.3584,0-7.8233,2.4009-11.23538,5.7236
		C416.272,18.4111,411.56009,23,402.54349,23s-13.729-4.5889-17.5152-8.2764C381.61621,11.4009,379.15091,9,373.79199,9
		c-5.3584,0-7.82318,2.4009-11.23538,5.7236C358.77051,18.4111,354.05859,23,345.0415,23s-13.729-4.5889-17.51511-8.2764
		C324.11429,11.4009,321.6489,9,316.2905,9s-7.8237,2.4009-11.23581,5.7236C301.26859,18.4111,296.55621,23,287.53909,23
		c-9.01761,0-13.72952-4.5889-17.51614-8.2764C266.61081,11.4009,264.14499,9,258.7861,9c-5.35741,0-7.8222,2.4009-11.2339,5.7236
		C243.7666,18.4111,239.05521,23,230.03909,23c-9.01659,0-13.72859-4.5889-17.51469-8.2764
		C209.1123,11.4009,206.64751,9,201.28909,9c-5.3584,0-7.82379,2.4009-11.23589,5.7236C186.26711,18.4111,181.55521,23,172.5381,23
		c-9.01761,0-13.73-4.5889-17.5166-8.2759C151.60941,11.4009,149.1436,9,143.78419,9c-5.35989,0-7.8252,2.4009-11.23779,5.7241
		C128.7598,18.4111,124.0469,23,115.0293,23c-9.0181,0-13.7305-4.5889-17.5171-8.2759C94.0991,11.4009,91.6333,9,86.2734,9
		c-5.3598,0-7.8256,2.4009-11.2387,5.7241C71.2485,18.4111,66.5356,23,57.5181,23c-9.0186,0-13.7315-4.5884-17.5186-8.2759
		C36.5864,11.4009,34.1201,9,28.7593,9c-5.3609,0-7.8272,2.4009-11.2403,5.7241C13.7319,18.4111,9.0186,23,0,23v-9
		c5.3613,0,7.8271-2.4009,11.2407-5.7241C15.0278,4.5884,19.7407,0,28.7593,0c9.0185,0,13.7314,4.5884,17.5185,8.2759
		C49.6909,11.5991,52.1572,14,57.5181,14c5.3598,0,7.8252-2.4009,11.2382-5.7241C72.543,4.5889,77.2554,0,86.2734,0
		c9.0181,0,13.7305,4.5889,17.5171,8.2759C107.2036,11.5991,109.6694,14,115.0293,14c5.3599,0,7.82571-2.4009,11.2383-5.7241
		C130.0542,4.5889,134.7666,0,143.78419,0c9.01761,0,13.73001,4.5889,17.5166,8.2759C164.71291,11.5991,167.1787,14,172.5381,14
		c5.3584,0,7.8237-2.4009,11.23579-5.7236C187.5601,4.5889,192.272,0,201.28909,0c9.0166,0,13.7285,4.5889,17.5146,8.2764
		c3.41211,3.3227,5.877,5.7236,11.2354,5.7236c5.35741,0,7.8222-2.4009,11.23381-5.7236C245.05859,4.5889,249.77,0,258.7861,0
		c9.01712,0,13.72952,4.5889,17.51614,8.2764C279.71436,11.5991,282.17969,14,287.53909,14c5.3588,0,7.82422-2.4009,11.2363-5.7236
		C302.56149,4.5889,307.2739,0,316.2905,0c9.01709,0,13.729,4.5889,17.5152,8.2764C337.2178,11.5991,339.68311,14,345.0415,14
		c5.35889,0,7.8237-2.4009,11.23581-5.7236C360.06351,4.5889,364.77539,0,373.79199,0c9.01712,0,13.72949,4.5889,17.51559,8.2764
		C394.7197,11.5991,397.18509,14,402.54349,14s7.82321-2.4009,11.23532-5.7236C417.56491,4.5889,422.27689,0,431.29349,0
		c9.01752,0,13.7294,4.5889,17.51611,8.2764C452.22171,11.5991,454.68701,14,460.0459,14c5.3584,0,7.82321-2.4009,11.23538-5.7236
		C475.06738,4.5889,479.7793,0,488.7959,0c9.01611,0,13.728,4.5889,17.5137,8.2764C509.72119,11.5991,512.18652,14,517.54437,14
		c5.35754,0,7.82233-2.4009,11.23395-5.7236C532.56403,4.5889,537.27539,0,546.29199,0c9.01611,0,13.72803,4.5889,17.51367,8.2764
		C567.21729,11.5991,569.68207,14,575.03998,14c5.35754,0,7.82233-2.4009,11.23444-5.7236C590.06049,4.5889,594.77148,0,603.78809,0
		c9.01758,0,13.72949,4.5889,17.51562,8.2764C624.71582,11.5991,627.18066,14,632.53906,14c5.35742,0,7.8222-2.4009,11.23431-5.7236
		C647.55957,4.5889,652.27051,0,661.28711,0s13.72748,4.5894,17.5127,8.2769C682.21088,11.5996,684.67578,14,690.03217,14
		c5.35742,0,7.82233-2.4009,11.23444-5.7236C705.05182,4.5889,709.76367,0,718.7793,0c9.01556,0,13.72748,4.5889,17.5127,8.2764
		C739.7041,11.5991,742.16888,14,747.52637,14c5.35645,0,7.82135-2.4009,11.23242-5.7231C762.54388,4.5889,767.25488,0,776.27051,0
		c9.0166,0,13.72852,4.5889,17.51471,8.2764C797.19727,11.5991,799.66211,14,805.02051,14c5.35651,0,7.82129-2.4009,11.23236-5.7236
		C820.03809,4.5889,824.74902,0,833.76367,0c9.0166,0,13.72852,4.5889,17.51459,8.2764C854.69037,11.5991,857.15527,14,862.51367,14
		s7.82324-2.4009,11.23535-5.7236C877.53516,4.5889,882.24707,0,891.2627,0c9.0166,0,13.72748,4.5889,17.51367,8.2764
		C912.18848,11.5991,914.65326,14,920.01166,14s7.82336-2.4009,11.23541-5.7236C935.0332,4.5889,939.74408,0,948.76068,0
		s13.7276,4.5889,17.51367,8.2764C969.68646,11.5991,972.15137,14,977.50879,14s7.82227-2.4009,11.23438-5.7236
		C992.5293,4.5889,997.24017,0,1006.25677,0s13.72858,4.5889,17.51471,8.2764c3.41211,3.3227,5.87695,5.7236,11.23535,5.7236
		c5.35742,0,7.82227-2.4009,11.23438-5.7236C1050.02722,4.5889,1054.73828,0,1063.75488,0s13.72754,4.5889,17.51367,8.2764
		c3.41211,3.3227,5.87695,5.7236,11.23438,5.7236s7.82227-2.4009,11.23438-5.7236C1107.52344,4.5889,1112.23535,0,1121.25195,0
		s13.72754,4.5889,17.51367,8.2764C1142.17773,11.5991,1144.64258,14,1150,14V23z"/>
</g>
</svg>
