<?xml version="1.0" encoding="utf-8"?>
<!-- Generator: Adobe Illustrator 21.0.0, SVG Export Plug-In . SVG Version: 6.00 Build 0)  -->
<svg version="1.1" id="Layer_1" xmlns="http://www.w3.org/2000/svg" xmlns:xlink="http://www.w3.org/1999/xlink" x="0px" y="0px"
	 viewBox="-0.00002 0.4004 66.0005 100" enable-background="new -0.00002 0.4004 66.0005 100" xml:space="preserve">
<path fill="#FFFFFF" d="M56.14874,9.55576c-12.78898-12.20714-33.50465-12.20714-46.29501,0
	c-12.78848,12.19901-12.78848,31.99138,0,44.18692c0,0,23.13227,21.6583,23.13227,46.6569
	c0-24.9986,23.15688-46.6569,23.15688-46.6569C68.93671,41.54714,68.93671,21.75477,56.14874,9.55576z"/>
<path fill="#63D1BB" d="M46.92395,45.56133c-0.63074-3.25081,0.12877-6.89199,0.02708-10.20233
	c-0.11428-3.7255-0.70723-7.42533-0.65971-11.15657c0.03869-3.01967,0.54056-6.12416-0.499-9.01844
	c0.06499-0.32944,0.13274-0.65682,0.19375-0.98717c0.26844-1.45127-4.54066-0.68401-5.2953,0.64373
	c-0.47569,0.38947-0.71983,0.85444-0.51934,1.32824c0.05039,0.12004,0.09593,0.24117,0.14047,0.36229
	c-0.9097,4.4491-2.17971,8.75633-3.6388,13.06942c-0.55891,1.64936-1.23419,3.26143-1.80283,4.90642
	c-0.80801-1.53308-1.62466-3.04684-2.28148-4.69036c-1.9071-4.76694-3.62671-9.58378-5.95274-14.17097
	c0.26398-2.12306-4.44821-1.90075-5.37775,0.04365c-1.12329,2.35173-0.97805,4.72518-0.60792,7.2407
	c0.41656,2.83564,0.48967,5.62288,0.5236,8.48561c0.06588,5.52159,0.498,11.03059,0.57985,16.55079
	c-0.49214,0.54731-0.64086,1.22308-0.12599,1.90898c0.2243,0.2994,0.50089,0.53094,0.79294,0.76248
	c1.25513,1.00463,4.8605,0.1491,4.85415-1.76515c-0.01984-5.72455-0.43302-11.43949-0.58421-17.16118
	c-0.01498-0.5604-0.0251-1.12041-0.03333-1.68032c0.07936,0.20099,0.15733,0.40246,0.23778,0.60256
	c0.88887,2.22723,1.81841,4.39204,3.03475,6.46234c1.20424,2.05184,1.80918,4.25486,2.50331,6.49469
	c-0.26249,0.30087-0.41993,0.64185-0.32351,0.98339c-0.05426,0.24941,0.09782,0.40536,0.3487,0.4999
	c0.88649,0.75999,2.55718,0.38025,3.48523-0.00972c0.39721-0.16716,0.77896-0.3614,1.1461-0.58808
	c0.47955-0.29454,1.22646-0.94264,1.01237-1.60919c-0.04067-0.12877-0.08045-0.25763-0.12014-0.38749
	c0.65197-1.76216,0.9843-3.59565,1.34075-5.45622c0.37786-1.98358,1.08607-3.86063,1.79717-5.73955
	c0.07262,0.85981,0.14822,1.71862,0.21696,2.57604c0.28293,3.54624,0.04553,7.04209,0.01071,10.58931
	c-0.0126,1.17607,0.07361,2.26891,0.30317,3.41788c0.09494,0.47568,0.50961,2.51016,0.39046,2.62057
	c-0.84869,0.78371-0.60167,1.7448,0.53471,1.99469c1.26912,0.27906,2.88902-0.14722,3.84614-1.03073
	C48.08553,49.91499,47.29884,47.50176,46.92395,45.56133z"/>
</svg>
